SplineFontDB: 3.2
FontName: RisingSun-Medium
FullName: Rising Sun Medium
FamilyName: Rising Sun Medium
Weight: Medium
Copyright: Copyright (c) 2012, The Raleway Project Authors (matt@pixelspread.com)
Version: 4.321
ItalicAngle: 0
UnderlinePosition: -125
UnderlineWidth: 50
Ascent: 800
Descent: 200
InvalidEm: 0
sfntRevision: 0x0004526e
LayerCount: 2
Layer: 0 1 "Back" 1
Layer: 1 1 "Fore" 0
XUID: [1021 158 994486733 56427]
StyleMap: 0x0040
FSType: 0
OS2Version: 4
OS2_WeightWidthSlopeOnly: 0
OS2_UseTypoMetrics: 1
CreationTime: 1683072783
ModificationTime: 1710185795
PfmFamily: 81
TTFWeight: 500
TTFWidth: 5
LineGap: 21
VLineGap: 0
Panose: 0 0 0 0 0 0 0 0 0 0
OS2TypoAscent: 923
OS2TypoAOffset: 0
OS2TypoDescent: -213
OS2TypoDOffset: 0
OS2TypoLinegap: 21
OS2WinAscent: 944
OS2WinAOffset: 0
OS2WinDescent: 234
OS2WinDOffset: 0
HheadAscent: 923
HheadAOffset: 0
HheadDescent: -213
HheadDOffset: 0
OS2SubXSize: 650
OS2SubYSize: 600
OS2SubXOff: 0
OS2SubYOff: 75
OS2SupXSize: 650
OS2SupYSize: 600
OS2SupXOff: 0
OS2SupYOff: 350
OS2StrikeYSize: 50
OS2StrikeYPos: 300
OS2CapHeight: 710
OS2XHeight: 523
OS2Vendor: '    '
OS2CodePages: 2000019f.00000000
OS2UnicodeRanges: a00002ff.4000205b.00000000.00000000
Lookup: 1 0 0 "'aalt' Access All Alternates lookup 0" { "'aalt' Access All Alternates lookup 0 subtable"  } ['aalt' ('DFLT' <'dflt' > 'cyrl' <'BGR ' 'SRB ' 'dflt' > 'latn' <'AZE ' 'CAT ' 'CRT ' 'KAZ ' 'MOL ' 'ROM ' 'TAT ' 'TRK ' 'dflt' > ) ]
Lookup: 3 0 0 "'aalt' Access All Alternates lookup 1" { "'aalt' Access All Alternates lookup 1 subtable"  } ['aalt' ('DFLT' <'dflt' > 'cyrl' <'BGR ' 'SRB ' 'dflt' > 'latn' <'AZE ' 'CAT ' 'CRT ' 'KAZ ' 'MOL ' 'ROM ' 'TAT ' 'TRK ' 'dflt' > ) ]

StartChar: .notdef
Encoding: 65536 -1 0
Width: 608
GlyphClass: 1
Flags: W
LayerCount: 2
Fore
SplineSet
558 689 m 2,0,1
 558 699 558 699 553 704.5 c 128,-1,2
 548 710 548 710 540 710 c 2,3,-1
 69 710 l 2,4,5
 61 710 61 710 55.5 704 c 128,-1,6
 50 698 50 698 50 687 c 2,7,-1
 50 25 l 2,8,9
 50 12 50 12 55.5 6 c 128,-1,10
 61 0 61 0 77 0 c 2,11,-1
 525 0 l 2,12,13
 542 0 542 0 550 6.5 c 128,-1,14
 558 13 558 13 558 29 c 2,15,-1
 558 689 l 2,0,1
506 74 m 2,16,17
 506 61 506 61 499 55.5 c 128,-1,18
 492 50 492 50 478 50 c 2,19,-1
 125 50 l 2,20,21
 111 50 111 50 106.5 55 c 128,-1,22
 102 60 102 60 102 71 c 2,23,-1
 102 641 l 2,24,25
 102 650 102 650 106.5 655 c 128,-1,26
 111 660 111 660 118 660 c 2,27,-1
 491 660 l 2,28,29
 498 660 498 660 502 655 c 128,-1,30
 506 650 506 650 506 642 c 2,31,-1
 506 74 l 2,16,17
538 33 m 1,32,-1
 123 696 l 1,33,-1
 71 669 l 1,34,-1
 478 28 l 1,35,-1
 538 33 l 1,32,-1
EndSplineSet
EndChar

StartChar: exclam
Encoding: 33 33 4
Width: 282
GlyphClass: 1
Flags: W
LayerCount: 2
Fore
SplineSet
69 62 m 256,0,1
 69 47 69 47 74.5 34 c 128,-1,2
 80 21 80 21 90 11.5 c 128,-1,3
 100 2 100 2 113 -4 c 128,-1,4
 126 -10 126 -10 141 -10 c 256,5,6
 156 -10 156 -10 169 -4 c 128,-1,7
 182 2 182 2 192 11.5 c 128,-1,8
 202 21 202 21 207.5 34 c 128,-1,9
 213 47 213 47 213 62 c 256,10,11
 213 77 213 77 207.5 90 c 128,-1,12
 202 103 202 103 192 113 c 128,-1,13
 182 123 182 123 169 128.5 c 128,-1,14
 156 134 156 134 141 134 c 256,15,16
 126 134 126 134 113 128.5 c 128,-1,17
 100 123 100 123 90 113 c 128,-1,18
 80 103 80 103 74.5 90 c 128,-1,19
 69 77 69 77 69 62 c 256,0,1
175 252 m 1,20,-1
 195 510 l 1,21,-1
 195 717 l 1,22,-1
 87 717 l 1,23,-1
 87 510 l 1,24,-1
 107 252 l 1,25,-1
 175 252 l 1,20,-1
EndSplineSet
EndChar

StartChar: numbersign
Encoding: 35 35 6
Width: 705
GlyphClass: 1
Flags: W
LayerCount: 2
Fore
SplineSet
668 514 m 1,0,-1
 548 514 l 1,1,-1
 597 710 l 1,2,-1
 508 710 l 1,3,-1
 461 514 l 1,4,-1
 314 514 l 1,5,-1
 363 710 l 1,6,-1
 274 710 l 1,7,-1
 227 514 l 1,8,-1
 82 514 l 1,9,-1
 82 437 l 1,10,-1
 208 437 l 1,11,-1
 169 277 l 1,12,-1
 37 277 l 1,13,-1
 37 195 l 1,14,-1
 150 195 l 1,15,-1
 101 0 l 1,16,-1
 190 0 l 1,17,-1
 237 195 l 1,18,-1
 384 195 l 1,19,-1
 335 0 l 1,20,-1
 424 0 l 1,21,-1
 471 195 l 1,22,-1
 623 195 l 1,23,-1
 623 277 l 1,24,-1
 491 277 l 1,25,-1
 529 437 l 1,26,-1
 668 437 l 1,27,-1
 668 514 l 1,0,-1
257 277 m 1,28,-1
 295 437 l 1,29,-1
 442 437 l 1,30,-1
 403 277 l 1,31,-1
 257 277 l 1,28,-1
EndSplineSet
EndChar

StartChar: dollar
Encoding: 36 36 7
Width: 627
GlyphClass: 1
Flags: W
LayerCount: 2
Fore
SplineSet
286 -111 m 1,0,-1
 347 -111 l 1,1,-1
 347 49 l 1,2,-1
 286 50 l 1,3,-1
 286 -111 l 1,0,-1
339 61 m 1,4,-1
 339 653 l 1,5,-1
 293 645 l 1,6,-1
 293 63 l 1,7,-1
 339 61 l 1,4,-1
286 654 m 1,8,-1
 347 662 l 1,9,-1
 347 815 l 1,10,-1
 286 815 l 1,11,-1
 286 654 l 1,8,-1
559 635 m 1,12,13
 536 652 536 652 509.5 666.5 c 128,-1,14
 483 681 483 681 452.5 692 c 128,-1,15
 422 703 422 703 389 709 c 128,-1,16
 356 715 356 715 319 715 c 0,17,18
 265 715 265 715 217.5 701 c 128,-1,19
 170 687 170 687 135.5 659.5 c 128,-1,20
 101 632 101 632 81.5 592 c 128,-1,21
 62 552 62 552 62 499 c 0,22,23
 62 458 62 458 75.5 428 c 128,-1,24
 89 398 89 398 115.5 376.5 c 128,-1,25
 142 355 142 355 181.5 339 c 128,-1,26
 221 323 221 323 273 310 c 0,27,28
 320 298 320 298 356 287 c 128,-1,29
 392 276 392 276 417 262.5 c 128,-1,30
 442 249 442 249 455.5 230.5 c 128,-1,31
 469 212 469 212 469 185 c 0,32,33
 469 139 469 139 433 116 c 128,-1,34
 397 93 397 93 330 93 c 0,35,36
 289 93 289 93 250.5 102 c 128,-1,37
 212 111 212 111 179.5 125 c 128,-1,38
 147 139 147 139 122.5 155 c 128,-1,39
 98 171 98 171 86 184 c 1,40,-1
 34 89 l 1,41,42
 65 66 65 66 99 48 c 128,-1,43
 133 30 133 30 170.5 17.5 c 128,-1,44
 208 5 208 5 247.5 -1 c 128,-1,45
 287 -7 287 -7 327 -7 c 0,46,47
 381 -7 381 -7 428.5 4.5 c 128,-1,48
 476 16 476 16 511 40.5 c 128,-1,49
 546 65 546 65 567 104 c 128,-1,50
 588 143 588 143 588 196 c 0,51,52
 588 245 588 245 571.5 278 c 128,-1,53
 555 311 555 311 524.5 334.5 c 128,-1,54
 494 358 494 358 451 374 c 128,-1,55
 408 390 408 390 353 403 c 0,56,57
 308 413 308 413 275.5 422.5 c 128,-1,58
 243 432 243 432 220.5 444.5 c 128,-1,59
 198 457 198 457 187.5 474.5 c 128,-1,60
 177 492 177 492 177 517 c 0,61,62
 177 564 177 564 211.5 590.5 c 128,-1,63
 246 617 246 617 316 617 c 0,64,65
 348 617 348 617 378.5 609.5 c 128,-1,66
 409 602 409 602 434.5 591 c 128,-1,67
 460 580 460 580 479.5 568 c 128,-1,68
 499 556 499 556 508 544 c 1,69,-1
 559 635 l 1,12,13
EndSplineSet
EndChar

StartChar: percent
Encoding: 37 37 8
Width: 757
GlyphClass: 1
Flags: W
LayerCount: 2
Fore
SplineSet
195 423 m 256,0,1
 228 423 228 423 257 435 c 128,-1,2
 286 447 286 447 307.5 466.5 c 128,-1,3
 329 486 329 486 341.5 513.5 c 128,-1,4
 354 541 354 541 354 572 c 0,5,6
 354 602 354 602 341.5 629.5 c 128,-1,7
 329 657 329 657 307.5 677 c 128,-1,8
 286 697 286 697 257 708.5 c 128,-1,9
 228 720 228 720 195 720 c 256,10,11
 162 720 162 720 133 708.5 c 128,-1,12
 104 697 104 697 82.5 677 c 128,-1,13
 61 657 61 657 48.5 629.5 c 128,-1,14
 36 602 36 602 36 572 c 0,15,16
 36 541 36 541 48.5 513.5 c 128,-1,17
 61 486 61 486 82.5 466.5 c 128,-1,18
 104 447 104 447 133 435 c 128,-1,19
 162 423 162 423 195 423 c 256,0,1
195 480 m 0,20,21
 179 480 179 480 164 487 c 128,-1,22
 149 494 149 494 137.5 506.5 c 128,-1,23
 126 519 126 519 119.5 536 c 128,-1,24
 113 553 113 553 113 572 c 0,25,26
 113 590 113 590 119.5 606.5 c 128,-1,27
 126 623 126 623 137 636 c 128,-1,28
 148 649 148 649 163 656.5 c 128,-1,29
 178 664 178 664 195 664 c 0,30,31
 211 664 211 664 226 656.5 c 128,-1,32
 241 649 241 649 252 636.5 c 128,-1,33
 263 624 263 624 270 607 c 128,-1,34
 277 590 277 590 277 572 c 256,35,36
 277 554 277 554 270.5 537 c 128,-1,37
 264 520 264 520 253 507.5 c 128,-1,38
 242 495 242 495 227 487.5 c 128,-1,39
 212 480 212 480 195 480 c 0,20,21
562 -10 m 256,40,41
 595 -10 595 -10 624 1.5 c 128,-1,42
 653 13 653 13 674.5 33 c 128,-1,43
 696 53 696 53 708 80.5 c 128,-1,44
 720 108 720 108 720 138 c 0,45,46
 720 169 720 169 708 196.5 c 128,-1,47
 696 224 696 224 674.5 243.5 c 128,-1,48
 653 263 653 263 624 275 c 128,-1,49
 595 287 595 287 562 287 c 256,50,51
 529 287 529 287 500 275 c 128,-1,52
 471 263 471 263 449.5 243.5 c 128,-1,53
 428 224 428 224 415.5 196.5 c 128,-1,54
 403 169 403 169 403 138 c 0,55,56
 403 108 403 108 415.5 80.5 c 128,-1,57
 428 53 428 53 449.5 33 c 128,-1,58
 471 13 471 13 500 1.5 c 128,-1,59
 529 -10 529 -10 562 -10 c 256,40,41
562 46 m 256,60,61
 545 46 545 46 530 53.5 c 128,-1,62
 515 61 515 61 504 73.5 c 128,-1,63
 493 86 493 86 486.5 103 c 128,-1,64
 480 120 480 120 480 138 c 0,65,66
 480 157 480 157 486.5 173.5 c 128,-1,67
 493 190 493 190 504 202.5 c 128,-1,68
 515 215 515 215 529.5 222.5 c 128,-1,69
 544 230 544 230 562 230 c 0,70,71
 578 230 578 230 593 223 c 128,-1,72
 608 216 608 216 619 203.5 c 128,-1,73
 630 191 630 191 636.5 174 c 128,-1,74
 643 157 643 157 643 138 c 0,75,76
 643 120 643 120 636.5 103.5 c 128,-1,77
 630 87 630 87 619.5 74 c 128,-1,78
 609 61 609 61 594 53.5 c 128,-1,79
 579 46 579 46 562 46 c 256,60,61
130 -6 m 1,80,-1
 401 342 l 1,81,-1
 676 672 l 1,82,-1
 625 716 l 1,83,-1
 361 373 l 1,84,-1
 80 39 l 1,85,-1
 130 -6 l 1,80,-1
EndSplineSet
EndChar

StartChar: ampersand
Encoding: 38 38 9
Width: 695
GlyphClass: 1
Flags: W
LayerCount: 2
Fore
SplineSet
692 0 m 1,0,-1
 291 420 l 2,1,2
 261 451 261 451 241.5 472 c 128,-1,3
 222 493 222 493 211 508.5 c 128,-1,4
 200 524 200 524 195.5 535 c 128,-1,5
 191 546 191 546 191 558 c 0,6,7
 191 574 191 574 197.5 588.5 c 128,-1,8
 204 603 204 603 216 614 c 128,-1,9
 228 625 228 625 244.5 631.5 c 128,-1,10
 261 638 261 638 280 638 c 0,11,12
 315 638 315 638 338 618 c 128,-1,13
 361 598 361 598 361 567 c 0,14,15
 361 547 361 547 350.5 529.5 c 128,-1,16
 340 512 340 512 321 495.5 c 128,-1,17
 302 479 302 479 275.5 462 c 128,-1,18
 249 445 249 445 217 424 c 256,19,20
 185 403 185 403 154 380.5 c 128,-1,21
 123 358 123 358 98 330.5 c 128,-1,22
 73 303 73 303 58 269 c 128,-1,23
 43 235 43 235 43 194 c 0,24,25
 43 151 43 151 60 114 c 128,-1,26
 77 77 77 77 108.5 49.5 c 128,-1,27
 140 22 140 22 182.5 6 c 128,-1,28
 225 -10 225 -10 277 -10 c 0,29,30
 344 -10 344 -10 404.5 17.5 c 128,-1,31
 465 45 465 45 511 95.5 c 128,-1,32
 557 146 557 146 584.5 217.5 c 128,-1,33
 612 289 612 289 612 376 c 1,34,-1
 523 376 l 1,35,36
 523 311 523 311 504 256 c 128,-1,37
 485 201 485 201 453 161 c 128,-1,38
 421 121 421 121 378.5 98.5 c 128,-1,39
 336 76 336 76 288 76 c 0,40,41
 259 76 259 76 234 84.5 c 128,-1,42
 209 93 209 93 189.5 108 c 128,-1,43
 170 123 170 123 158.5 145 c 128,-1,44
 147 167 147 167 147 193 c 0,45,46
 147 218 147 218 157.5 240 c 128,-1,47
 168 262 168 262 186.5 281.5 c 128,-1,48
 205 301 205 301 229.5 319.5 c 128,-1,49
 254 338 254 338 283 356 c 0,50,51
 319 379 319 379 351.5 402 c 128,-1,52
 384 425 384 425 408 450.5 c 128,-1,53
 432 476 432 476 446 505 c 128,-1,54
 460 534 460 534 460 569 c 256,55,56
 460 604 460 604 446 632.5 c 128,-1,57
 432 661 432 661 407 680 c 128,-1,58
 382 699 382 699 349.5 709 c 128,-1,59
 317 719 317 719 280 719 c 0,60,61
 240 719 240 719 205.5 707 c 128,-1,62
 171 695 171 695 146 673 c 128,-1,63
 121 651 121 651 106.5 621 c 128,-1,64
 92 591 92 591 92 554 c 0,65,66
 92 533 92 533 98 512.5 c 128,-1,67
 104 492 104 492 117.5 470 c 128,-1,68
 131 448 131 448 153.5 421.5 c 128,-1,69
 176 395 176 395 208 361 c 2,70,-1
 549 0 l 1,71,-1
 692 0 l 1,0,-1
EndSplineSet
EndChar

StartChar: quotesingle
Encoding: 39 39 10
Width: 221
GlyphClass: 1
Flags: W
LayerCount: 2
Fore
SplineSet
115 507 m 1,0,-1
 197 720 l 1,1,-1
 99 720 l 1,2,-1
 65 507 l 1,3,-1
 115 507 l 1,0,-1
EndSplineSet
EndChar

StartChar: parenleft
Encoding: 40 40 11
Width: 295
GlyphClass: 1
Flags: W
LayerCount: 2
Fore
SplineSet
39 346 m 0,0,1
 39 297 39 297 50 246.5 c 128,-1,2
 61 196 61 196 80.5 147 c 128,-1,3
 100 98 100 98 127 49 c 128,-1,4
 154 0 154 0 185 -47 c 1,5,-1
 264 -6 l 1,6,7
 236 39 236 39 213 85 c 128,-1,8
 190 131 190 131 174 175 c 128,-1,9
 158 219 158 219 149 261.5 c 128,-1,10
 140 304 140 304 140 343 c 0,11,12
 140 393 140 393 153 447.5 c 128,-1,13
 166 502 166 502 185.5 552 c 128,-1,14
 205 602 205 602 227 645 c 128,-1,15
 249 688 249 688 267 714 c 1,16,-1
 183 750 l 1,17,18
 153 698 153 698 127 648 c 128,-1,19
 101 598 101 598 81 548 c 128,-1,20
 61 498 61 498 50 447.5 c 128,-1,21
 39 397 39 397 39 346 c 0,0,1
EndSplineSet
EndChar

StartChar: parenright
Encoding: 41 41 12
Width: 295
GlyphClass: 1
Flags: W
LayerCount: 2
Fore
SplineSet
256 346 m 0,0,1
 256 397 256 397 245 447.5 c 128,-1,2
 234 498 234 498 214 548 c 128,-1,3
 194 598 194 598 168 648 c 128,-1,4
 142 698 142 698 111 750 c 1,5,-1
 28 714 l 1,6,7
 45 688 45 688 67.5 645 c 128,-1,8
 90 602 90 602 109 552 c 128,-1,9
 128 502 128 502 141.5 447.5 c 128,-1,10
 155 393 155 393 155 343 c 0,11,12
 155 304 155 304 146 261.5 c 128,-1,13
 137 219 137 219 120.5 175 c 128,-1,14
 104 131 104 131 81.5 85 c 128,-1,15
 59 39 59 39 30 -6 c 1,16,-1
 110 -47 l 1,17,18
 142 0 142 0 168.5 49 c 128,-1,19
 195 98 195 98 214.5 147 c 128,-1,20
 234 196 234 196 245 246.5 c 128,-1,21
 256 297 256 297 256 346 c 0,0,1
EndSplineSet
EndChar

StartChar: asterisk
Encoding: 42 42 13
Width: 336
GlyphClass: 1
Flags: W
LayerCount: 2
Fore
SplineSet
124 501 m 1,0,-1
 168 571 l 1,1,-1
 212 501 l 1,2,-1
 257 530 l 1,3,-1
 211 598 l 1,4,-1
 280 620 l 1,5,-1
 265 669 l 1,6,-1
 194 640 l 1,7,-1
 198 715 l 1,8,-1
 138 715 l 1,9,-1
 142 640 l 1,10,-1
 71 669 l 1,11,-1
 56 620 l 1,12,-1
 125 598 l 1,13,-1
 80 530 l 1,14,-1
 124 501 l 1,0,-1
EndSplineSet
EndChar

StartChar: plus
Encoding: 43 43 14
Width: 418
GlyphClass: 1
Flags: W
LayerCount: 2
Fore
SplineSet
258 399 m 1,0,-1
 258 520 l 1,1,-1
 160 520 l 1,2,-1
 160 399 l 1,3,-1
 49 399 l 1,4,-1
 49 311 l 1,5,-1
 160 311 l 1,6,-1
 160 190 l 1,7,-1
 258 190 l 1,8,-1
 258 311 l 1,9,-1
 370 311 l 1,10,-1
 370 399 l 1,11,-1
 258 399 l 1,0,-1
EndSplineSet
EndChar

StartChar: comma
Encoding: 44 44 15
Width: 220
GlyphClass: 1
Flags: W
LayerCount: 2
Fore
SplineSet
71 -160 m 1,0,-1
 160 100 l 1,1,-1
 62 100 l 1,2,-1
 20 -160 l 1,3,-1
 71 -160 l 1,0,-1
EndSplineSet
EndChar

StartChar: hyphen
Encoding: 45 45 16
Width: 421
GlyphClass: 1
Flags: W
LayerCount: 2
Fore
SplineSet
360 225 m 1,0,-1
 360 323 l 1,1,-1
 61 323 l 1,2,-1
 61 225 l 1,3,-1
 360 225 l 1,0,-1
EndSplineSet
EndChar

StartChar: period
Encoding: 46 46 17
Width: 212
GlyphClass: 1
Flags: W
LayerCount: 2
Fore
SplineSet
42 54 m 0,0,1
 42 27 42 27 60.5 8.5 c 128,-1,2
 79 -10 79 -10 105 -10 c 0,3,4
 132 -10 132 -10 150.5 8.5 c 128,-1,5
 169 27 169 27 169 54 c 0,6,7
 169 80 169 80 150.5 98.5 c 128,-1,8
 132 117 132 117 105 117 c 0,9,10
 79 117 79 117 60.5 98.5 c 128,-1,11
 42 80 42 80 42 54 c 0,0,1
EndSplineSet
EndChar

StartChar: slash
Encoding: 47 47 18
Width: 662
GlyphClass: 1
Flags: W
LayerCount: 2
Fore
SplineSet
513 710 m 1,0,-1
 27 0 l 1,1,-1
 147 0 l 1,2,-1
 634 710 l 1,3,-1
 513 710 l 1,0,-1
EndSplineSet
Substitution2: "'frac' Diagonal Fractions lookup 21 subtable" fraction
Substitution2: "'aalt' Access All Alternates lookup 0 subtable" fraction
EndChar

StartChar: zero
Encoding: 48 48 19
Width: 695
GlyphClass: 1
Flags: W
LayerCount: 2
Fore
SplineSet
347 -10 m 0,0,1
 418 -9 418 -9 473.5 23 c 128,-1,2
 529 55 529 55 568.5 106 c 128,-1,3
 608 157 608 157 629 221 c 128,-1,4
 650 285 650 285 650 350 c 0,5,6
 650 408 650 408 631 471.5 c 128,-1,7
 612 535 612 535 573.5 588 c 128,-1,8
 535 641 535 641 479 675.5 c 128,-1,9
 423 710 423 710 347 710 c 0,10,11
 277 710 277 710 221 678 c 128,-1,12
 165 646 165 646 125.5 594.5 c 128,-1,13
 86 543 86 543 65.5 478.5 c 128,-1,14
 45 414 45 414 45 350 c 0,15,16
 45 290 45 290 64 227 c 128,-1,17
 83 164 83 164 121 111.5 c 128,-1,18
 159 59 159 59 216 25 c 128,-1,19
 273 -9 273 -9 347 -10 c 0,0,1
157 350 m 0,20,21
 157 391 157 391 168.5 437 c 128,-1,22
 180 483 180 483 203 521.5 c 128,-1,23
 226 560 226 560 262 585.5 c 128,-1,24
 298 611 298 611 347 611 c 0,25,26
 394 611 394 611 429.5 587 c 128,-1,27
 465 563 465 563 489 525.5 c 128,-1,28
 513 488 513 488 525.5 442 c 128,-1,29
 538 396 538 396 538 350 c 0,30,31
 538 309 538 309 526.5 263 c 128,-1,32
 515 217 515 217 492 178.5 c 128,-1,33
 469 140 469 140 433 114.5 c 128,-1,34
 397 89 397 89 347 89 c 0,35,36
 300 89 300 89 265 113 c 128,-1,37
 230 137 230 137 206 174.5 c 128,-1,38
 182 212 182 212 170.5 258 c 128,-1,39
 159 304 159 304 157 350 c 0,20,21
EndSplineSet
Substitution2: "'tnum' Tabular Numbers lookup 41 subtable" zero.tnum
Substitution2: "'frac' Diagonal Fractions lookup 22 subtable" zero.numr
Substitution2: "'dnom' Denominators lookup 20 subtable" zero.dnom
Substitution2: "'numr' Numerators lookup 19 subtable" zero.numr
Substitution2: "'sups' Superscript lookup 18 subtable" uni2070
Substitution2: "'sinf' Scientific Inferiors lookup 17 subtable" zero.subs
Substitution2: "'subs' Subscript lookup 16 subtable" uni2080
AlternateSubs2: "'aalt' Access All Alternates lookup 1 subtable" uni2080 zero.subs uni2070 zero.numr zero.dnom
EndChar

StartChar: one
Encoding: 49 49 20
Width: 411
GlyphClass: 1
Flags: W
LayerCount: 2
Fore
SplineSet
314 717 m 1,0,-1
 203 717 l 2,1,2
 202 716 202 716 187 700.5 c 128,-1,3
 172 685 172 685 148.5 667.5 c 128,-1,4
 125 650 125 650 97.5 635.5 c 128,-1,5
 70 621 70 621 43 621 c 1,6,-1
 43 520 l 1,7,8
 63 520 63 520 87.5 529 c 128,-1,9
 112 538 112 538 135 551.5 c 128,-1,10
 158 565 158 565 176.5 579.5 c 128,-1,11
 195 594 195 594 203 606 c 1,12,-1
 203 0 l 1,13,-1
 314 0 l 1,14,-1
 314 717 l 1,0,-1
EndSplineSet
Substitution2: "'tnum' Tabular Numbers lookup 41 subtable" one.tnum
Substitution2: "'frac' Diagonal Fractions lookup 22 subtable" one.numr
Substitution2: "'dnom' Denominators lookup 20 subtable" one.dnom
Substitution2: "'numr' Numerators lookup 19 subtable" one.numr
Substitution2: "'sups' Superscript lookup 18 subtable" onesuperior
Substitution2: "'sinf' Scientific Inferiors lookup 17 subtable" one.subs
Substitution2: "'subs' Subscript lookup 16 subtable" uni2081
AlternateSubs2: "'aalt' Access All Alternates lookup 1 subtable" uni2081 one.subs onesuperior one.numr one.dnom
EndChar

StartChar: two
Encoding: 50 50 21
Width: 598
GlyphClass: 1
Flags: W
LayerCount: 2
Fore
SplineSet
545 0 m 1,0,-1
 545 98 l 1,1,-1
 170 98 l 1,2,3
 173 122 173 122 181 143 c 128,-1,4
 189 164 189 164 208 185.5 c 128,-1,5
 227 207 227 207 262 230 c 128,-1,6
 297 253 297 253 355 282 c 0,7,8
 388 300 388 300 421.5 319.5 c 128,-1,9
 455 339 455 339 482.5 365 c 128,-1,10
 510 391 510 391 527 426.5 c 128,-1,11
 544 462 544 462 544 510 c 0,12,13
 544 554 544 554 529 592 c 128,-1,14
 514 630 514 630 485 658 c 128,-1,15
 456 686 456 686 413 702.5 c 128,-1,16
 370 719 370 719 313 719 c 0,17,18
 258 719 258 719 214 705 c 128,-1,19
 170 691 170 691 136.5 671.5 c 128,-1,20
 103 652 103 652 80.5 632 c 128,-1,21
 58 612 58 612 48 599 c 1,22,-1
 117 528 l 1,23,24
 129 543 129 543 147.5 559 c 128,-1,25
 166 575 166 575 189 588.5 c 128,-1,26
 212 602 212 602 240 611 c 128,-1,27
 268 620 268 620 300 620 c 0,28,29
 331 620 331 620 353.5 611 c 128,-1,30
 376 602 376 602 391.5 587 c 128,-1,31
 407 572 407 572 415 551.5 c 128,-1,32
 423 531 423 531 423 507 c 0,33,34
 423 465 423 465 401.5 437 c 128,-1,35
 380 409 380 409 347 387 c 128,-1,36
 314 365 314 365 274 346.5 c 128,-1,37
 234 328 234 328 197 306 c 0,38,39
 158 283 158 283 129.5 255 c 128,-1,40
 101 227 101 227 82 190 c 128,-1,41
 63 153 63 153 53.5 107 c 128,-1,42
 44 61 44 61 44 0 c 1,43,-1
 545 0 l 1,0,-1
EndSplineSet
Substitution2: "'tnum' Tabular Numbers lookup 41 subtable" two.tnum
Substitution2: "'frac' Diagonal Fractions lookup 22 subtable" two.numr
Substitution2: "'dnom' Denominators lookup 20 subtable" two.dnom
Substitution2: "'numr' Numerators lookup 19 subtable" two.numr
Substitution2: "'sups' Superscript lookup 18 subtable" twosuperior
Substitution2: "'sinf' Scientific Inferiors lookup 17 subtable" two.subs
Substitution2: "'subs' Subscript lookup 16 subtable" uni2082
AlternateSubs2: "'aalt' Access All Alternates lookup 1 subtable" uni2082 two.subs twosuperior two.numr two.dnom
EndChar

StartChar: three
Encoding: 51 51 22
Width: 585
GlyphClass: 1
Flags: W
LayerCount: 2
Fore
SplineSet
272 -8 m 0,0,1
 325 -8 325 -8 373.5 5 c 128,-1,2
 422 18 422 18 458 43.5 c 128,-1,3
 494 69 494 69 515.5 105.5 c 128,-1,4
 537 142 537 142 537 189 c 0,5,6
 537 222 537 222 526 252.5 c 128,-1,7
 515 283 515 283 495.5 307 c 128,-1,8
 476 331 476 331 447.5 347.5 c 128,-1,9
 419 364 419 364 385 369 c 1,10,11
 417 377 417 377 442 391 c 128,-1,12
 467 405 467 405 485 425 c 128,-1,13
 503 445 503 445 512 471 c 128,-1,14
 521 497 521 497 521 527 c 0,15,16
 521 568 521 568 503 603 c 128,-1,17
 485 638 485 638 453 664 c 128,-1,18
 421 690 421 690 377 704.5 c 128,-1,19
 333 719 333 719 280 719 c 0,20,21
 243 719 243 719 207.5 711.5 c 128,-1,22
 172 704 172 704 141 690 c 128,-1,23
 110 676 110 676 85 656 c 128,-1,24
 60 636 60 636 45 611 c 1,25,-1
 116 534 l 1,26,27
 135 572 135 572 176 598 c 128,-1,28
 217 624 217 624 276 624 c 0,29,30
 303 624 303 624 326 616.5 c 128,-1,31
 349 609 349 609 367 595.5 c 128,-1,32
 385 582 385 582 395.5 562 c 128,-1,33
 406 542 406 542 406 516 c 0,34,35
 406 462 406 462 356.5 435 c 128,-1,36
 307 408 307 408 223 408 c 2,37,-1
 189 408 l 1,38,-1
 189 322 l 1,39,-1
 223 322 l 2,40,41
 270 322 270 322 307.5 314.5 c 128,-1,42
 345 307 345 307 371 292 c 128,-1,43
 397 277 397 277 411 255 c 128,-1,44
 425 233 425 233 425 204 c 0,45,46
 425 179 425 179 413 157.5 c 128,-1,47
 401 136 401 136 380.5 121.5 c 128,-1,48
 360 107 360 107 331.5 99 c 128,-1,49
 303 91 303 91 270 91 c 0,50,51
 241 91 241 91 215.5 96 c 128,-1,52
 190 101 190 101 168.5 111.5 c 128,-1,53
 147 122 147 122 130 137 c 128,-1,54
 113 152 113 152 101 170 c 1,55,-1
 35 95 l 1,56,57
 52 70 52 70 77 51 c 128,-1,58
 102 32 102 32 133 19 c 128,-1,59
 164 6 164 6 199 -1 c 128,-1,60
 234 -8 234 -8 272 -8 c 0,0,1
EndSplineSet
Substitution2: "'tnum' Tabular Numbers lookup 41 subtable" three.tnum
Substitution2: "'frac' Diagonal Fractions lookup 22 subtable" three.numr
Substitution2: "'dnom' Denominators lookup 20 subtable" three.dnom
Substitution2: "'numr' Numerators lookup 19 subtable" three.numr
Substitution2: "'sups' Superscript lookup 18 subtable" threesuperior
Substitution2: "'sinf' Scientific Inferiors lookup 17 subtable" three.subs
Substitution2: "'subs' Subscript lookup 16 subtable" uni2083
AlternateSubs2: "'aalt' Access All Alternates lookup 1 subtable" uni2083 three.subs threesuperior three.numr three.dnom
EndChar

StartChar: four
Encoding: 52 52 23
Width: 581
GlyphClass: 1
Flags: W
LayerCount: 2
Fore
SplineSet
454 0 m 1,0,-1
 454 172 l 1,1,-1
 542 172 l 1,2,-1
 542 270 l 1,3,-1
 454 270 l 1,4,-1
 454 710 l 1,5,-1
 379 710 l 1,6,-1
 27 269 l 1,7,-1
 27 172 l 1,8,-1
 345 172 l 1,9,-1
 345 0 l 1,10,-1
 454 0 l 1,0,-1
357 545 m 1,11,-1
 357 270 l 1,12,-1
 138 270 l 1,13,-1
 357 545 l 1,11,-1
EndSplineSet
Substitution2: "'tnum' Tabular Numbers lookup 41 subtable" four.tnum
Substitution2: "'frac' Diagonal Fractions lookup 22 subtable" four.numr
Substitution2: "'dnom' Denominators lookup 20 subtable" four.dnom
Substitution2: "'numr' Numerators lookup 19 subtable" four.numr
Substitution2: "'sups' Superscript lookup 18 subtable" uni2074
Substitution2: "'sinf' Scientific Inferiors lookup 17 subtable" four.subs
Substitution2: "'subs' Subscript lookup 16 subtable" uni2084
AlternateSubs2: "'aalt' Access All Alternates lookup 1 subtable" uni2084 four.subs uni2074 four.numr four.dnom
EndChar

StartChar: five
Encoding: 53 53 24
Width: 563
GlyphClass: 1
Flags: W
LayerCount: 2
Fore
SplineSet
268 -10 m 0,0,1
 322 -10 322 -10 369 7.5 c 128,-1,2
 416 25 416 25 450 56.5 c 128,-1,3
 484 88 484 88 504 131.5 c 128,-1,4
 524 175 524 175 524 229 c 0,5,6
 524 279 524 279 506 320.5 c 128,-1,7
 488 362 488 362 457 392 c 128,-1,8
 426 422 426 422 383 439 c 128,-1,9
 340 456 340 456 291 456 c 0,10,11
 252 456 252 456 223.5 445 c 128,-1,12
 195 434 195 434 178 415 c 1,13,-1
 214 611 l 1,14,-1
 482 611 l 1,15,-1
 482 710 l 1,16,-1
 135 710 l 1,17,-1
 54 297 l 1,18,-1
 151 297 l 1,19,20
 171 328 171 328 205 345 c 128,-1,21
 239 362 239 362 276 362 c 0,22,23
 305 362 305 362 330 352.5 c 128,-1,24
 355 343 355 343 373 324.5 c 128,-1,25
 391 306 391 306 402 281 c 128,-1,26
 413 256 413 256 413 226 c 256,27,28
 413 196 413 196 402 170 c 128,-1,29
 391 144 391 144 372 125.5 c 128,-1,30
 353 107 353 107 326.5 97 c 128,-1,31
 300 87 300 87 269 87 c 0,32,33
 219 87 219 87 174.5 112.5 c 128,-1,34
 130 138 130 138 102 181 c 1,35,-1
 37 119 l 1,36,37
 70 59 70 59 130.5 24.5 c 128,-1,38
 191 -10 191 -10 268 -10 c 0,0,1
EndSplineSet
Substitution2: "'tnum' Tabular Numbers lookup 41 subtable" five.tnum
Substitution2: "'frac' Diagonal Fractions lookup 22 subtable" five.numr
Substitution2: "'dnom' Denominators lookup 20 subtable" five.dnom
Substitution2: "'numr' Numerators lookup 19 subtable" five.numr
Substitution2: "'sups' Superscript lookup 18 subtable" uni2075
Substitution2: "'sinf' Scientific Inferiors lookup 17 subtable" five.subs
Substitution2: "'subs' Subscript lookup 16 subtable" uni2085
AlternateSubs2: "'aalt' Access All Alternates lookup 1 subtable" uni2085 five.subs uni2075 five.numr five.dnom
EndChar

StartChar: six
Encoding: 54 54 25
Width: 607
GlyphClass: 1
Flags: W
LayerCount: 2
Fore
SplineSet
564 236 m 0,0,1
 564 185 564 185 544.5 140 c 128,-1,2
 525 95 525 95 490 61.5 c 128,-1,3
 455 28 455 28 408.5 9 c 128,-1,4
 362 -10 362 -10 308 -10 c 0,5,6
 249 -10 249 -10 201 11.5 c 128,-1,7
 153 33 153 33 119 73.5 c 128,-1,8
 85 114 85 114 67 172.5 c 128,-1,9
 49 231 49 231 49 305 c 0,10,11
 49 406 49 406 68 483 c 128,-1,12
 87 560 87 560 122.5 611.5 c 128,-1,13
 158 663 158 663 207.5 689 c 128,-1,14
 257 715 257 715 319 715 c 0,15,16
 387 715 387 715 443.5 684 c 128,-1,17
 500 653 500 653 535 595 c 1,18,-1
 471 528 l 1,19,20
 448 571 448 571 407 596 c 128,-1,21
 366 621 366 621 317 621 c 0,22,23
 280 621 280 621 249.5 604.5 c 128,-1,24
 219 588 219 588 197 556.5 c 128,-1,25
 175 525 175 525 163 479.5 c 128,-1,26
 151 434 151 434 150 376 c 1,27,28
 161 398 161 398 177.5 416 c 128,-1,29
 194 434 194 434 216 447 c 128,-1,30
 238 460 238 460 264 467 c 128,-1,31
 290 474 290 474 318 474 c 0,32,33
 370 474 370 474 415 455.5 c 128,-1,34
 460 437 460 437 493 405 c 128,-1,35
 526 373 526 373 545 329.5 c 128,-1,36
 564 286 564 286 564 236 c 0,0,1
308 83 m 0,37,38
 340 83 340 83 367.5 95 c 128,-1,39
 395 107 395 107 415.5 128 c 128,-1,40
 436 149 436 149 448.5 176.5 c 128,-1,41
 461 204 461 204 461 236 c 256,42,43
 461 268 461 268 448.5 295 c 128,-1,44
 436 322 436 322 415.5 342.5 c 128,-1,45
 395 363 395 363 367.5 375 c 128,-1,46
 340 387 340 387 308 387 c 0,47,48
 277 387 277 387 249.5 375 c 128,-1,49
 222 363 222 363 201 342.5 c 128,-1,50
 180 322 180 322 168 295 c 128,-1,51
 156 268 156 268 156 236 c 0,52,53
 156 205 156 205 168.5 177 c 128,-1,54
 181 149 181 149 201.5 128 c 128,-1,55
 222 107 222 107 250 95 c 128,-1,56
 278 83 278 83 308 83 c 0,37,38
EndSplineSet
Substitution2: "'tnum' Tabular Numbers lookup 41 subtable" six.tnum
Substitution2: "'frac' Diagonal Fractions lookup 22 subtable" six.numr
Substitution2: "'dnom' Denominators lookup 20 subtable" six.dnom
Substitution2: "'numr' Numerators lookup 19 subtable" six.numr
Substitution2: "'sups' Superscript lookup 18 subtable" uni2076
Substitution2: "'sinf' Scientific Inferiors lookup 17 subtable" six.subs
Substitution2: "'subs' Subscript lookup 16 subtable" uni2086
AlternateSubs2: "'aalt' Access All Alternates lookup 1 subtable" uni2086 six.subs uni2076 six.numr six.dnom
EndChar

StartChar: seven
Encoding: 55 55 26
Width: 547
GlyphClass: 1
Flags: W
LayerCount: 2
Fore
SplineSet
72 0 m 1,0,-1
 194 0 l 1,1,-1
 550 710 l 1,2,-1
 33 710 l 1,3,-1
 33 611 l 1,4,-1
 378 611 l 1,5,-1
 72 0 l 1,0,-1
EndSplineSet
Substitution2: "'tnum' Tabular Numbers lookup 41 subtable" seven.tnum
Substitution2: "'frac' Diagonal Fractions lookup 22 subtable" seven.numr
Substitution2: "'dnom' Denominators lookup 20 subtable" seven.dnom
Substitution2: "'numr' Numerators lookup 19 subtable" seven.numr
Substitution2: "'sups' Superscript lookup 18 subtable" uni2077
Substitution2: "'sinf' Scientific Inferiors lookup 17 subtable" seven.subs
Substitution2: "'subs' Subscript lookup 16 subtable" uni2087
AlternateSubs2: "'aalt' Access All Alternates lookup 1 subtable" uni2087 seven.subs uni2077 seven.numr seven.dnom
EndChar

StartChar: eight
Encoding: 56 56 27
Width: 601
GlyphClass: 1
Flags: W
LayerCount: 2
Fore
SplineSet
554 205 m 0,0,1
 554 237 554 237 543.5 264 c 128,-1,2
 533 291 533 291 516 313 c 128,-1,3
 499 335 499 335 476.5 352.5 c 128,-1,4
 454 370 454 370 429 380 c 1,5,6
 451 389 451 389 469.5 403 c 128,-1,7
 488 417 488 417 501.5 435.5 c 128,-1,8
 515 454 515 454 523.5 475.5 c 128,-1,9
 532 497 532 497 532 520 c 0,10,11
 532 566 532 566 510.5 601.5 c 128,-1,12
 489 637 489 637 456 661 c 128,-1,13
 423 685 423 685 381.5 697.5 c 128,-1,14
 340 710 340 710 300 710 c 256,15,16
 260 710 260 710 219 697.5 c 128,-1,17
 178 685 178 685 145 660.5 c 128,-1,18
 112 636 112 636 91 600.5 c 128,-1,19
 70 565 70 565 70 519 c 0,20,21
 70 496 70 496 77.5 474.5 c 128,-1,22
 85 453 85 453 99 435 c 128,-1,23
 113 417 113 417 131.5 403 c 128,-1,24
 150 389 150 389 170 380 c 1,25,26
 148 370 148 370 126 354 c 128,-1,27
 104 338 104 338 86.5 316.5 c 128,-1,28
 69 295 69 295 58 268 c 128,-1,29
 47 241 47 241 47 209 c 0,30,31
 47 163 47 163 66.5 123 c 128,-1,32
 86 83 86 83 119.5 54 c 128,-1,33
 153 25 153 25 199.5 8.5 c 128,-1,34
 246 -8 246 -8 299 -8 c 0,35,36
 351 -8 351 -8 397.5 7 c 128,-1,37
 444 22 444 22 478.5 50 c 128,-1,38
 513 78 513 78 533.5 117 c 128,-1,39
 554 156 554 156 554 205 c 0,0,1
444 212 m 0,40,41
 444 185 444 185 431.5 162.5 c 128,-1,42
 419 140 419 140 399 124 c 128,-1,43
 379 108 379 108 353.5 98.5 c 128,-1,44
 328 89 328 89 301 89 c 0,45,46
 275 89 275 89 249.5 98 c 128,-1,47
 224 107 224 107 203.5 122.5 c 128,-1,48
 183 138 183 138 170 160.5 c 128,-1,49
 157 183 157 183 157 211 c 256,50,51
 157 239 157 239 169 262 c 128,-1,52
 181 285 181 285 201 301 c 128,-1,53
 221 317 221 317 246.5 326 c 128,-1,54
 272 335 272 335 299 335 c 256,55,56
 326 335 326 335 352 326.5 c 128,-1,57
 378 318 378 318 398.5 302.5 c 128,-1,58
 419 287 419 287 431.5 264 c 128,-1,59
 444 241 444 241 444 212 c 0,40,41
180 516 m 0,60,61
 180 539 180 539 190 556.5 c 128,-1,62
 200 574 200 574 216 587 c 128,-1,63
 232 600 232 600 253.5 606.5 c 128,-1,64
 275 613 275 613 299 613 c 256,65,66
 323 613 323 613 345.5 606.5 c 128,-1,67
 368 600 368 600 384.5 587.5 c 128,-1,68
 401 575 401 575 411 557 c 128,-1,69
 421 539 421 539 421 517 c 0,70,71
 421 493 421 493 410 474.5 c 128,-1,72
 399 456 399 456 381.5 443 c 128,-1,73
 364 430 364 430 342.5 423.5 c 128,-1,74
 321 417 321 417 300 417 c 256,75,76
 279 417 279 417 258 423.5 c 128,-1,77
 237 430 237 430 219.5 442.5 c 128,-1,78
 202 455 202 455 191 473.5 c 128,-1,79
 180 492 180 492 180 516 c 0,60,61
EndSplineSet
Substitution2: "'tnum' Tabular Numbers lookup 41 subtable" eight.tnum
Substitution2: "'frac' Diagonal Fractions lookup 22 subtable" eight.numr
Substitution2: "'dnom' Denominators lookup 20 subtable" eight.dnom
Substitution2: "'numr' Numerators lookup 19 subtable" eight.numr
Substitution2: "'sups' Superscript lookup 18 subtable" uni2078
Substitution2: "'sinf' Scientific Inferiors lookup 17 subtable" eight.subs
Substitution2: "'subs' Subscript lookup 16 subtable" uni2088
AlternateSubs2: "'aalt' Access All Alternates lookup 1 subtable" uni2088 eight.subs uni2078 eight.numr eight.dnom
EndChar

StartChar: nine
Encoding: 57 57 28
Width: 606
GlyphClass: 1
Flags: W
LayerCount: 2
Fore
SplineSet
42 469 m 0,0,1
 42 521 42 521 62 566 c 128,-1,2
 82 611 82 611 116.5 644 c 128,-1,3
 151 677 151 677 197.5 696 c 128,-1,4
 244 715 244 715 299 715 c 0,5,6
 357 715 357 715 405 693.5 c 128,-1,7
 453 672 453 672 487 632 c 128,-1,8
 521 592 521 592 539.5 533.5 c 128,-1,9
 558 475 558 475 558 401 c 0,10,11
 558 300 558 300 539 223 c 128,-1,12
 520 146 520 146 484.5 94.5 c 128,-1,13
 449 43 449 43 399 16.5 c 128,-1,14
 349 -10 349 -10 288 -10 c 0,15,16
 220 -10 220 -10 163.5 21.5 c 128,-1,17
 107 53 107 53 71 111 c 1,18,-1
 136 178 l 1,19,20
 158 135 158 135 199 110 c 128,-1,21
 240 85 240 85 289 85 c 0,22,23
 327 85 327 85 357.5 101.5 c 128,-1,24
 388 118 388 118 409.5 149 c 128,-1,25
 431 180 431 180 443.5 225.5 c 128,-1,26
 456 271 456 271 456 329 c 1,27,28
 446 307 446 307 429 289 c 128,-1,29
 412 271 412 271 390 258 c 128,-1,30
 368 245 368 245 342.5 238 c 128,-1,31
 317 231 317 231 288 231 c 0,32,33
 237 231 237 231 192 249.5 c 128,-1,34
 147 268 147 268 113.5 300.5 c 128,-1,35
 80 333 80 333 61 376 c 128,-1,36
 42 419 42 419 42 469 c 0,0,1
298 623 m 256,37,38
 267 623 267 623 239.5 611 c 128,-1,39
 212 599 212 599 191.5 578 c 128,-1,40
 171 557 171 557 159 529.5 c 128,-1,41
 147 502 147 502 147 470 c 0,42,43
 147 439 147 439 159 411.5 c 128,-1,44
 171 384 171 384 191.5 363.5 c 128,-1,45
 212 343 212 343 240 331 c 128,-1,46
 268 319 268 319 299 319 c 256,47,48
 330 319 330 319 357.5 331 c 128,-1,49
 385 343 385 343 406 363.5 c 128,-1,50
 427 384 427 384 439 411 c 128,-1,51
 451 438 451 438 451 469 c 0,52,53
 451 501 451 501 439 528.5 c 128,-1,54
 427 556 427 556 405.5 577.5 c 128,-1,55
 384 599 384 599 356.5 611 c 128,-1,56
 329 623 329 623 298 623 c 256,37,38
EndSplineSet
Substitution2: "'tnum' Tabular Numbers lookup 41 subtable" nine.tnum
Substitution2: "'frac' Diagonal Fractions lookup 22 subtable" nine.numr
Substitution2: "'dnom' Denominators lookup 20 subtable" nine.dnom
Substitution2: "'numr' Numerators lookup 19 subtable" nine.numr
Substitution2: "'sups' Superscript lookup 18 subtable" uni2079
Substitution2: "'sinf' Scientific Inferiors lookup 17 subtable" nine.subs
Substitution2: "'subs' Subscript lookup 16 subtable" uni2089
AlternateSubs2: "'aalt' Access All Alternates lookup 1 subtable" uni2089 nine.subs uni2079 nine.numr nine.dnom
EndChar

StartChar: less
Encoding: 60 60 31
Width: 512
GlyphClass: 1
Flags: W
LayerCount: 2
Fore
SplineSet
33 229 m 1,0,-1
 453 -21 l 1,1,-1
 453 100 l 1,2,-1
 190 259 l 1,3,-1
 453 422 l 1,4,-1
 453 538 l 1,5,-1
 33 284 l 1,6,-1
 33 229 l 1,0,-1
EndSplineSet
EndChar

StartChar: equal
Encoding: 61 61 32
Width: 438
GlyphClass: 1
Flags: W
LayerCount: 2
Fore
SplineSet
373 163 m 1,0,-1
 373 235 l 1,1,-1
 65 235 l 1,2,-1
 65 163 l 1,3,-1
 373 163 l 1,0,-1
373 317 m 1,4,-1
 373 389 l 1,5,-1
 65 389 l 1,6,-1
 65 317 l 1,7,-1
 373 317 l 1,4,-1
EndSplineSet
EndChar

StartChar: greater
Encoding: 62 62 33
Width: 512
GlyphClass: 1
Flags: W
LayerCount: 2
Fore
SplineSet
480 284 m 1,0,-1
 59 538 l 1,1,-1
 59 422 l 1,2,-1
 322 259 l 1,3,-1
 59 100 l 1,4,-1
 59 -21 l 1,5,-1
 480 229 l 1,6,-1
 480 284 l 1,0,-1
EndSplineSet
EndChar

StartChar: question
Encoding: 63 63 34
Width: 482
GlyphClass: 1
Flags: W
LayerCount: 2
Fore
SplineSet
224 221 m 1,0,1
 224 250 224 250 233.5 270 c 128,-1,2
 243 290 243 290 257.5 304.5 c 128,-1,3
 272 319 272 319 291 330 c 128,-1,4
 310 341 310 341 329 352 c 0,5,6
 354 367 354 367 375.5 382.5 c 128,-1,7
 397 398 397 398 412.5 417.5 c 128,-1,8
 428 437 428 437 437 463 c 128,-1,9
 446 489 446 489 446 525 c 0,10,11
 446 575 446 575 428.5 611.5 c 128,-1,12
 411 648 411 648 382.5 672 c 128,-1,13
 354 696 354 696 317 707.5 c 128,-1,14
 280 719 280 719 243 719 c 0,15,16
 210 719 210 719 178 710.5 c 128,-1,17
 146 702 146 702 118.5 685.5 c 128,-1,18
 91 669 91 669 69.5 645 c 128,-1,19
 48 621 48 621 34 590 c 1,20,-1
 105 542 l 1,21,22
 115 558 115 558 128 574 c 128,-1,23
 141 590 141 590 158 602.5 c 128,-1,24
 175 615 175 615 196 622.5 c 128,-1,25
 217 630 217 630 240 630 c 0,26,27
 262 630 262 630 281.5 623.5 c 128,-1,28
 301 617 301 617 316.5 604 c 128,-1,29
 332 591 332 591 341.5 572 c 128,-1,30
 351 553 351 553 351 528 c 0,31,32
 351 497 351 497 336 473.5 c 128,-1,33
 321 450 321 450 300.5 433.5 c 128,-1,34
 280 417 280 417 257 404.5 c 128,-1,35
 234 392 234 392 217 381 c 0,36,37
 193 366 193 366 177 349 c 128,-1,38
 161 332 161 332 151.5 312 c 128,-1,39
 142 292 142 292 138 269 c 128,-1,40
 134 246 134 246 134 221 c 1,41,-1
 224 221 l 1,0,1
117 54 m 0,42,43
 117 27 117 27 136 8.5 c 128,-1,44
 155 -10 155 -10 181 -10 c 256,45,46
 207 -10 207 -10 226 8.5 c 128,-1,47
 245 27 245 27 245 54 c 0,48,49
 245 80 245 80 226 98.5 c 128,-1,50
 207 117 207 117 181 117 c 256,51,52
 155 117 155 117 136 98.5 c 128,-1,53
 117 80 117 80 117 54 c 0,42,43
EndSplineSet
EndChar

StartChar: at
Encoding: 64 64 35
Width: 842
GlyphClass: 1
Flags: W
LayerCount: 2
Fore
SplineSet
420 603 m 256,0,1
 346 603 346 603 278 577.5 c 128,-1,2
 210 552 210 552 158.5 504 c 128,-1,3
 107 456 107 456 75.5 386.5 c 128,-1,4
 44 317 44 317 44 230 c 0,5,6
 44 147 44 147 72.5 78 c 128,-1,7
 101 9 101 9 150.5 -41 c 128,-1,8
 200 -91 200 -91 266 -118.5 c 128,-1,9
 332 -146 332 -146 407 -146 c 0,10,11
 451 -146 451 -146 494 -136 c 128,-1,12
 537 -126 537 -126 579 -106 c 1,13,-1
 563 -62 l 1,14,15
 526 -78 526 -78 490 -89 c 128,-1,16
 454 -100 454 -100 409 -100 c 0,17,18
 339 -100 339 -100 281 -74 c 128,-1,19
 223 -48 223 -48 181 -3.5 c 128,-1,20
 139 41 139 41 116 101 c 128,-1,21
 93 161 93 161 93 230 c 0,22,23
 93 301 93 301 117.5 361 c 128,-1,24
 142 421 142 421 185.5 464.5 c 128,-1,25
 229 508 229 508 288.5 532.5 c 128,-1,26
 348 557 348 557 417 557 c 0,27,28
 489 557 489 557 548 531.5 c 128,-1,29
 607 506 607 506 650.5 461 c 128,-1,30
 694 416 694 416 718 355.5 c 128,-1,31
 742 295 742 295 742 224 c 0,32,33
 742 201 742 201 738.5 168.5 c 128,-1,34
 735 136 735 136 724 106 c 128,-1,35
 713 76 713 76 695.5 55.5 c 128,-1,36
 678 35 678 35 649 35 c 0,37,38
 632 35 632 35 622 43.5 c 128,-1,39
 612 52 612 52 606.5 67 c 128,-1,40
 601 82 601 82 599.5 101.5 c 128,-1,41
 598 121 598 121 598 143 c 2,42,-1
 598 252 l 2,43,44
 598 286 598 286 594 323 c 128,-1,45
 590 360 590 360 572.5 390 c 128,-1,46
 555 420 555 420 520 439.5 c 128,-1,47
 485 459 485 459 424 459 c 0,48,49
 376 459 376 459 334 446 c 128,-1,50
 292 433 292 433 255 409 c 1,51,-1
 278 350 l 1,52,53
 304 371 304 371 338.5 383 c 128,-1,54
 373 395 373 395 413 395 c 0,55,56
 449 395 449 395 471.5 385 c 128,-1,57
 494 375 494 375 507.5 357 c 128,-1,58
 521 339 521 339 526 313.5 c 128,-1,59
 531 288 531 288 531 258 c 1,60,61
 516 264 516 264 485.5 272 c 128,-1,62
 455 280 455 280 413 280 c 0,63,64
 379 280 379 280 345.5 273 c 128,-1,65
 312 266 312 266 285.5 249.5 c 128,-1,66
 259 233 259 233 242.5 205.5 c 128,-1,67
 226 178 226 178 226 138 c 0,68,69
 226 78 226 78 265.5 39 c 128,-1,70
 305 0 305 0 378 0 c 0,71,72
 430 0 430 0 474 19.5 c 128,-1,73
 518 39 518 39 548 70 c 1,74,75
 550 54 550 54 554.5 38.5 c 128,-1,76
 559 23 559 23 569 11 c 128,-1,77
 579 -1 579 -1 596 -8.5 c 128,-1,78
 613 -16 613 -16 639 -16 c 0,79,80
 692 -16 692 -16 722 13 c 128,-1,81
 752 42 752 42 767 81.5 c 128,-1,82
 782 121 782 121 786 161 c 128,-1,83
 790 201 790 201 790 222 c 0,84,85
 790 311 790 311 760 382 c 128,-1,86
 730 453 730 453 679 502 c 128,-1,87
 628 551 628 551 561 577 c 128,-1,88
 494 603 494 603 420 603 c 256,0,1
474 81 m 0,89,90
 455 71 455 71 430.5 65.5 c 128,-1,91
 406 60 406 60 384 60 c 0,92,93
 364 60 364 60 346.5 66 c 128,-1,94
 329 72 329 72 317.5 83 c 128,-1,95
 306 94 306 94 299.5 108.5 c 128,-1,96
 293 123 293 123 293 141 c 0,97,98
 293 165 293 165 302.5 180.5 c 128,-1,99
 312 196 312 196 328.5 206.5 c 128,-1,100
 345 217 345 217 366.5 221.5 c 128,-1,101
 388 226 388 226 412 226 c 0,102,103
 433 226 433 226 451.5 223 c 128,-1,104
 470 220 470 220 485 216.5 c 128,-1,105
 500 213 500 213 512 209.5 c 128,-1,106
 524 206 524 206 530 204 c 1,107,-1
 530 166 l 2,108,109
 530 154 530 154 528 142.5 c 128,-1,110
 526 131 526 131 519 119.5 c 128,-1,111
 512 108 512 108 501.5 98.5 c 128,-1,112
 491 89 491 89 474 81 c 0,89,90
EndSplineSet
EndChar

StartChar: A
Encoding: 65 65 36
Width: 675
GlyphClass: 1
Flags: W
LayerCount: 2
Fore
SplineSet
8 0 m 1,0,-1
 124 0 l 1,1,-1
 199 194 l 1,2,-1
 475 194 l 1,3,-1
 551 0 l 1,4,-1
 667 0 l 1,5,-1
 390 710 l 1,6,-1
 286 710 l 1,7,-1
 8 0 l 1,0,-1
219 276 m 1,8,-1
 338 589 l 1,9,-1
 453 276 l 1,10,-1
 219 276 l 1,8,-1
EndSplineSet
Substitution2: "Single Substitution lookup 45 subtable" ordfeminine
Substitution2: "'aalt' Access All Alternates lookup 0 subtable" ordfeminine
EndChar

StartChar: B
Encoding: 66 66 37
Width: 675
GlyphClass: 1
Flags: W
LayerCount: 2
Fore
SplineSet
637 183 m 0,0,1
 637 217 637 217 628 246 c 128,-1,2
 619 275 619 275 601.5 298.5 c 128,-1,3
 584 322 584 322 559.5 338.5 c 128,-1,4
 535 355 535 355 505 364 c 1,5,6
 554 386 554 386 580.5 431 c 128,-1,7
 607 476 607 476 607 529 c 0,8,9
 607 562 607 562 596 594.5 c 128,-1,10
 585 627 585 627 564 652.5 c 128,-1,11
 543 678 543 678 513 694 c 128,-1,12
 483 710 483 710 445 710 c 2,13,-1
 80 710 l 1,14,-1
 80 0 l 1,15,-1
 420 0 l 2,16,17
 465 0 465 0 504 12.5 c 128,-1,18
 543 25 543 25 573 48.5 c 128,-1,19
 603 72 603 72 620 106 c 128,-1,20
 637 140 637 140 637 183 c 0,0,1
525 204 m 0,21,22
 525 182 525 182 516.5 162 c 128,-1,23
 508 142 508 142 494.5 127.5 c 128,-1,24
 481 113 481 113 461.5 104 c 128,-1,25
 442 95 442 95 420 95 c 2,26,-1
 191 95 l 1,27,-1
 191 314 l 1,28,-1
 427 314 l 2,29,30
 448 314 448 314 466 305 c 128,-1,31
 484 296 484 296 497 281 c 128,-1,32
 510 266 510 266 517.5 245.5 c 128,-1,33
 525 225 525 225 525 204 c 0,21,22
405 614 m 2,34,35
 425 614 425 614 442 606.5 c 128,-1,36
 459 599 459 599 471 585 c 128,-1,37
 483 571 483 571 490 551 c 128,-1,38
 497 531 497 531 497 508 c 0,39,40
 497 486 497 486 489.5 466.5 c 128,-1,41
 482 447 482 447 469 433 c 128,-1,42
 456 419 456 419 438 411 c 128,-1,43
 420 403 420 403 399 403 c 2,44,-1
 191 403 l 1,45,-1
 191 614 l 1,46,-1
 405 614 l 2,34,35
EndSplineSet
EndChar

StartChar: C
Encoding: 67 67 38
Width: 684
GlyphClass: 1
Flags: W
LayerCount: 2
Fore
SplineSet
36 360 m 0,0,1
 36 293 36 293 60.5 227 c 128,-1,2
 85 161 85 161 130 109.5 c 128,-1,3
 175 58 175 58 237 26 c 128,-1,4
 299 -6 299 -6 373 -6 c 0,5,6
 415 -6 415 -6 459 5 c 128,-1,7
 503 16 503 16 542 37 c 128,-1,8
 581 58 581 58 612 88.5 c 128,-1,9
 643 119 643 119 660 159 c 1,10,-1
 568 211 l 1,11,12
 554 180 554 180 532 157.5 c 128,-1,13
 510 135 510 135 484.5 120.5 c 128,-1,14
 459 106 459 106 431.5 99.5 c 128,-1,15
 404 93 404 93 377 93 c 0,16,17
 327 93 327 93 285 114.5 c 128,-1,18
 243 136 243 136 212.5 172.5 c 128,-1,19
 182 209 182 209 165 256.5 c 128,-1,20
 148 304 148 304 148 356 c 0,21,22
 148 402 148 402 162.5 448.5 c 128,-1,23
 177 495 177 495 205.5 532 c 128,-1,24
 234 569 234 569 276.5 592 c 128,-1,25
 319 615 319 615 375 615 c 0,26,27
 400 615 400 615 427 609 c 128,-1,28
 454 603 454 603 479 590 c 128,-1,29
 504 577 504 577 525.5 555 c 128,-1,30
 547 533 547 533 561 501 c 1,31,-1
 648 559 l 1,32,33
 614 628 614 628 544.5 671 c 128,-1,34
 475 714 475 714 379 714 c 0,35,36
 298 714 298 714 234 683 c 128,-1,37
 170 652 170 652 125.5 601.5 c 128,-1,38
 81 551 81 551 58.5 488 c 128,-1,39
 36 425 36 425 36 360 c 0,0,1
EndSplineSet
EndChar

StartChar: D
Encoding: 68 68 39
Width: 716
GlyphClass: 1
Flags: W
LayerCount: 2
Fore
SplineSet
332 0 m 2,0,1
 410 0 410 0 474 25.5 c 128,-1,2
 538 51 538 51 583.5 97.5 c 128,-1,3
 629 144 629 144 653.5 209.5 c 128,-1,4
 678 275 678 275 678 356 c 0,5,6
 678 430 678 430 656 494.5 c 128,-1,7
 634 559 634 559 590.5 607 c 128,-1,8
 547 655 547 655 482.5 682.5 c 128,-1,9
 418 710 418 710 332 710 c 2,10,-1
 80 710 l 1,11,-1
 80 0 l 1,12,-1
 332 0 l 2,0,1
565 356 m 0,13,14
 565 301 565 301 550 253.5 c 128,-1,15
 535 206 535 206 505.5 171.5 c 128,-1,16
 476 137 476 137 432.5 117.5 c 128,-1,17
 389 98 389 98 332 98 c 2,18,-1
 191 98 l 1,19,-1
 191 612 l 1,20,-1
 332 612 l 2,21,22
 387 612 387 612 430.5 593 c 128,-1,23
 474 574 474 574 504 540.5 c 128,-1,24
 534 507 534 507 549.5 459.5 c 128,-1,25
 565 412 565 412 565 356 c 0,13,14
EndSplineSet
EndChar

StartChar: E
Encoding: 69 69 40
Width: 603
GlyphClass: 1
Flags: W
LayerCount: 2
Fore
SplineSet
191 98 m 1,0,-1
 191 316 l 1,1,-1
 509 316 l 1,2,-1
 509 408 l 1,3,-1
 191 408 l 1,4,-1
 191 612 l 1,5,-1
 558 612 l 1,6,-1
 558 710 l 1,7,-1
 80 710 l 1,8,-1
 80 0 l 1,9,-1
 567 0 l 1,10,-1
 567 98 l 1,11,-1
 191 98 l 1,0,-1
EndSplineSet
EndChar

StartChar: F
Encoding: 70 70 41
Width: 579
GlyphClass: 1
Flags: W
LayerCount: 2
Fore
SplineSet
191 0 m 1,0,-1
 191 307 l 1,1,-1
 494 307 l 1,2,-1
 494 399 l 1,3,-1
 191 399 l 1,4,-1
 191 612 l 1,5,-1
 553 612 l 1,6,-1
 553 710 l 1,7,-1
 80 710 l 1,8,-1
 80 0 l 1,9,-1
 191 0 l 1,0,-1
EndSplineSet
EndChar

StartChar: G
Encoding: 71 71 42
Width: 726
GlyphClass: 1
Flags: W
LayerCount: 2
Fore
SplineSet
378 -5 m 0,0,1
 419 -5 419 -5 458 2 c 128,-1,2
 497 9 497 9 532.5 23.5 c 128,-1,3
 568 38 568 38 601.5 61 c 128,-1,4
 635 84 635 84 665 116 c 1,5,-1
 665 365 l 1,6,-1
 368 365 l 1,7,-1
 369 269 l 1,8,-1
 553 269 l 1,9,-1
 553 156 l 1,10,11
 537 139 537 139 519 127 c 128,-1,12
 501 115 501 115 479.5 107.5 c 128,-1,13
 458 100 458 100 431.5 97 c 128,-1,14
 405 94 405 94 373 94 c 0,15,16
 320 94 320 94 278 116.5 c 128,-1,17
 236 139 236 139 207.5 176.5 c 128,-1,18
 179 214 179 214 164 260.5 c 128,-1,19
 149 307 149 307 149 354 c 0,20,21
 149 403 149 403 164 450 c 128,-1,22
 179 497 179 497 208 534 c 128,-1,23
 237 571 237 571 278.5 593.5 c 128,-1,24
 320 616 320 616 372 616 c 0,25,26
 409 616 409 616 439 604 c 128,-1,27
 469 592 469 592 492.5 574 c 128,-1,28
 516 556 516 556 533.5 534.5 c 128,-1,29
 551 513 551 513 561 495 c 1,30,-1
 649 564 l 1,31,32
 608 634 608 634 538 674.5 c 128,-1,33
 468 715 468 715 378 715 c 0,34,35
 301 715 301 715 238 685 c 128,-1,36
 175 655 175 655 130 605.5 c 128,-1,37
 85 556 85 556 60.5 491.5 c 128,-1,38
 36 427 36 427 36 357 c 0,39,40
 36 288 36 288 60.5 222.5 c 128,-1,41
 85 157 85 157 130 106.5 c 128,-1,42
 175 56 175 56 238 25.5 c 128,-1,43
 301 -5 301 -5 378 -5 c 0,0,1
EndSplineSet
Substitution2: "'ss11' Style Set 11 lookup 39 subtable" G.ss11
Substitution2: "'aalt' Access All Alternates lookup 0 subtable" G.ss11
EndChar

StartChar: H
Encoding: 72 72 43
Width: 743
GlyphClass: 1
Flags: W
LayerCount: 2
Fore
SplineSet
552 710 m 1,0,-1
 552 412 l 1,1,-1
 191 412 l 1,2,-1
 191 710 l 1,3,-1
 80 710 l 1,4,-1
 80 0 l 1,5,-1
 191 0 l 1,6,-1
 191 314 l 1,7,-1
 552 314 l 1,8,-1
 552 0 l 1,9,-1
 663 0 l 1,10,-1
 663 710 l 1,11,-1
 552 710 l 1,0,-1
EndSplineSet
EndChar

StartChar: I
Encoding: 73 73 44
Width: 271
GlyphClass: 1
Flags: W
LayerCount: 2
Fore
SplineSet
191 0 m 1,0,-1
 191 710 l 1,1,-1
 80 710 l 1,2,-1
 80 0 l 1,3,-1
 191 0 l 1,0,-1
EndSplineSet
EndChar

StartChar: J
Encoding: 74 74 45
Width: 542
GlyphClass: 2
Flags: W
LayerCount: 2
Fore
SplineSet
221 -9 m 0,0,1
 184 -9 184 -9 150.5 1.5 c 128,-1,2
 117 12 117 12 88.5 32 c 128,-1,3
 60 52 60 52 38.5 80 c 128,-1,4
 17 108 17 108 5 142 c 1,5,-1
 103 187 l 1,6,7
 110 166 110 166 121 148.5 c 128,-1,8
 132 131 132 131 146.5 118 c 128,-1,9
 161 105 161 105 179.5 97.5 c 128,-1,10
 198 90 198 90 221 90 c 0,11,12
 257 90 257 90 281.5 103.5 c 128,-1,13
 306 117 306 117 321 139.5 c 128,-1,14
 336 162 336 162 343 191 c 128,-1,15
 350 220 350 220 350 251 c 2,16,-1
 350 710 l 1,17,-1
 462 710 l 1,18,-1
 462 223 l 2,19,20
 462 169 462 169 443.5 126.5 c 128,-1,21
 425 84 425 84 392.5 54 c 128,-1,22
 360 24 360 24 316 7.5 c 128,-1,23
 272 -9 272 -9 221 -9 c 0,0,1
EndSplineSet
EndChar

StartChar: K
Encoding: 75 75 46
Width: 660
GlyphClass: 1
Flags: W
LayerCount: 2
Fore
SplineSet
191 0 m 1,0,-1
 191 215 l 1,1,-1
 299 327 l 1,2,-1
 540 0 l 1,3,-1
 665 0 l 1,4,-1
 369 396 l 1,5,-1
 649 710 l 1,6,-1
 527 710 l 1,7,-1
 191 342 l 1,8,-1
 191 709 l 1,9,-1
 80 709 l 1,10,-1
 80 0 l 1,11,-1
 191 0 l 1,0,-1
EndSplineSet
EndChar

StartChar: L
Encoding: 76 76 47
Width: 584
GlyphClass: 1
Flags: W
LayerCount: 2
Fore
SplineSet
572 0 m 1,0,-1
 572 98 l 1,1,-1
 191 98 l 1,2,-1
 191 710 l 1,3,-1
 80 710 l 1,4,-1
 80 0 l 1,5,-1
 572 0 l 1,0,-1
EndSplineSet
EndChar

StartChar: M
Encoding: 77 77 48
Width: 870
GlyphClass: 1
Flags: W
LayerCount: 2
Fore
SplineSet
790 0 m 1,0,-1
 790 710 l 1,1,-1
 672 710 l 1,2,-1
 435 274 l 1,3,-1
 199 710 l 1,4,-1
 80 710 l 1,5,-1
 80 0 l 1,6,-1
 191 0 l 1,7,-1
 191 508 l 1,8,-1
 403 122 l 1,9,-1
 468 122 l 1,10,-1
 679 508 l 1,11,-1
 679 0 l 1,12,-1
 790 0 l 1,0,-1
EndSplineSet
EndChar

StartChar: N
Encoding: 78 78 49
Width: 767
GlyphClass: 1
Flags: W
LayerCount: 2
Fore
SplineSet
590 0 m 1,0,-1
 687 0 l 1,1,-1
 687 709 l 1,2,-1
 576 709 l 1,3,-1
 576 194 l 1,4,-1
 171 710 l 1,5,-1
 80 710 l 1,6,-1
 80 0 l 1,7,-1
 191 0 l 1,8,-1
 191 505 l 1,9,-1
 590 0 l 1,0,-1
EndSplineSet
EndChar

StartChar: O
Encoding: 79 79 50
Width: 751
GlyphClass: 1
Flags: W
LayerCount: 2
Fore
SplineSet
375 -5 m 0,0,1
 448 -5 448 -5 510.5 24.5 c 128,-1,2
 573 54 573 54 618.5 103.5 c 128,-1,3
 664 153 664 153 689.5 218 c 128,-1,4
 715 283 715 283 715 354 c 0,5,6
 715 421 715 421 690.5 485.5 c 128,-1,7
 666 550 666 550 621.5 601 c 128,-1,8
 577 652 577 652 515 683.5 c 128,-1,9
 453 715 453 715 377 715 c 0,10,11
 304 715 304 715 241.5 685.5 c 128,-1,12
 179 656 179 656 133 606 c 128,-1,13
 87 556 87 556 61.5 491 c 128,-1,14
 36 426 36 426 36 355 c 0,15,16
 36 287 36 287 60 222 c 128,-1,17
 84 157 84 157 129 106.5 c 128,-1,18
 174 56 174 56 236 25.5 c 128,-1,19
 298 -5 298 -5 375 -5 c 0,0,1
148 355 m 0,20,21
 148 403 148 403 163.5 450 c 128,-1,22
 179 497 179 497 208 533.5 c 128,-1,23
 237 570 237 570 279.5 592.5 c 128,-1,24
 322 615 322 615 376 615 c 0,25,26
 427 615 427 615 469 593.5 c 128,-1,27
 511 572 511 572 541 536 c 128,-1,28
 571 500 571 500 587 453 c 128,-1,29
 603 406 603 406 603 355 c 0,30,31
 603 307 603 307 587.5 260.5 c 128,-1,32
 572 214 572 214 543 177 c 128,-1,33
 514 140 514 140 472 117 c 128,-1,34
 430 94 430 94 376 94 c 0,35,36
 323 94 323 94 281 115.5 c 128,-1,37
 239 137 239 137 209.5 173.5 c 128,-1,38
 180 210 180 210 164 257 c 128,-1,39
 148 304 148 304 148 355 c 0,20,21
EndSplineSet
Substitution2: "Single Substitution lookup 45 subtable" ordmasculine
Substitution2: "'aalt' Access All Alternates lookup 0 subtable" ordmasculine
EndChar

StartChar: P
Encoding: 80 80 51
Width: 623
GlyphClass: 1
Flags: W
LayerCount: 2
Fore
SplineSet
191 0 m 1,0,-1
 191 248 l 1,1,-1
 384 248 l 2,2,3
 432 248 432 248 471.5 267 c 128,-1,4
 511 286 511 286 539 318.5 c 128,-1,5
 567 351 567 351 582.5 393 c 128,-1,6
 598 435 598 435 598 479 c 0,7,8
 598 522 598 522 581.5 563 c 128,-1,9
 565 604 565 604 536 637 c 128,-1,10
 507 670 507 670 466.5 690 c 128,-1,11
 426 710 426 710 378 710 c 2,12,-1
 80 710 l 1,13,-1
 80 0 l 1,14,-1
 191 0 l 1,0,-1
191 612 m 1,15,-1
 372 612 l 2,16,17
 394 612 394 612 415 602.5 c 128,-1,18
 436 593 436 593 451.5 575 c 128,-1,19
 467 557 467 557 476.5 533 c 128,-1,20
 486 509 486 509 486 479 c 0,21,22
 486 451 486 451 477.5 426.5 c 128,-1,23
 469 402 469 402 455 384 c 128,-1,24
 441 366 441 366 421.5 356 c 128,-1,25
 402 346 402 346 377 346 c 2,26,-1
 191 346 l 1,27,-1
 191 612 l 1,15,-1
EndSplineSet
EndChar

StartChar: Q
Encoding: 81 81 52
Width: 750
GlyphClass: 1
Flags: W
LayerCount: 2
Fore
SplineSet
375 -5 m 0,0,1
 448 -5 448 -5 510.5 24.5 c 128,-1,2
 573 54 573 54 618.5 103.5 c 128,-1,3
 664 153 664 153 689.5 218 c 128,-1,4
 715 283 715 283 715 354 c 0,5,6
 715 421 715 421 690.5 485.5 c 128,-1,7
 666 550 666 550 621.5 601 c 128,-1,8
 577 652 577 652 515 683.5 c 128,-1,9
 453 715 453 715 377 715 c 0,10,11
 304 715 304 715 241.5 685.5 c 128,-1,12
 179 656 179 656 133 606 c 128,-1,13
 87 556 87 556 61.5 491 c 128,-1,14
 36 426 36 426 36 355 c 0,15,16
 36 287 36 287 60 222 c 128,-1,17
 84 157 84 157 129 107 c 128,-1,18
 174 57 174 57 236 26 c 128,-1,19
 298 -5 298 -5 375 -5 c 0,0,1
376 94 m 0,20,21
 323 94 323 94 281 115.5 c 128,-1,22
 239 137 239 137 209.5 173.5 c 128,-1,23
 180 210 180 210 164 257 c 128,-1,24
 148 304 148 304 148 355 c 0,25,26
 148 403 148 403 163.5 450 c 128,-1,27
 179 497 179 497 208 534 c 128,-1,28
 237 571 237 571 279.5 593.5 c 128,-1,29
 322 616 322 616 376 616 c 0,30,31
 427 616 427 616 469 594.5 c 128,-1,32
 511 573 511 573 541 536.5 c 128,-1,33
 571 500 571 500 587 453 c 128,-1,34
 603 406 603 406 603 355 c 0,35,36
 603 307 603 307 587.5 260.5 c 128,-1,37
 572 214 572 214 543 177 c 128,-1,38
 514 140 514 140 472 117 c 128,-1,39
 430 94 430 94 376 94 c 0,20,21
660 -22 m 1,40,-1
 727 45 l 1,41,-1
 453 319 l 1,42,-1
 385 252 l 1,43,-1
 660 -22 l 1,40,-1
EndSplineSet
EndChar

StartChar: R
Encoding: 82 82 53
Width: 661
GlyphClass: 1
Flags: W
LayerCount: 2
Fore
SplineSet
191 0 m 1,0,-1
 191 248 l 1,1,-1
 357 248 l 1,2,-1
 512 0 l 1,3,-1
 636 0 l 1,4,-1
 469 270 l 1,5,6
 501 280 501 280 526.5 300.5 c 128,-1,7
 552 321 552 321 570.5 349 c 128,-1,8
 589 377 589 377 598.5 410 c 128,-1,9
 608 443 608 443 608 479 c 0,10,11
 608 522 608 522 592 563 c 128,-1,12
 576 604 576 604 546.5 637 c 128,-1,13
 517 670 517 670 477 690 c 128,-1,14
 437 710 437 710 389 710 c 2,15,-1
 80 710 l 1,16,-1
 80 0 l 1,17,-1
 191 0 l 1,0,-1
191 612 m 1,18,-1
 382 612 l 2,19,20
 405 612 405 612 425.5 602 c 128,-1,21
 446 592 446 592 461.5 573.5 c 128,-1,22
 477 555 477 555 486.5 531 c 128,-1,23
 496 507 496 507 496 479 c 0,24,25
 496 452 496 452 488 428 c 128,-1,26
 480 404 480 404 466 385.5 c 128,-1,27
 452 367 452 367 432 356.5 c 128,-1,28
 412 346 412 346 388 346 c 2,29,-1
 191 346 l 1,30,-1
 191 612 l 1,18,-1
EndSplineSet
EndChar

StartChar: S
Encoding: 83 83 54
Width: 611
GlyphClass: 1
Flags: W
LayerCount: 2
Fore
SplineSet
550 635 m 1,0,1
 528 652 528 652 501 666.5 c 128,-1,2
 474 681 474 681 443.5 692 c 128,-1,3
 413 703 413 703 380 709 c 128,-1,4
 347 715 347 715 311 715 c 0,5,6
 256 715 256 715 209 701 c 128,-1,7
 162 687 162 687 127.5 659.5 c 128,-1,8
 93 632 93 632 73.5 592 c 128,-1,9
 54 552 54 552 54 499 c 0,10,11
 54 458 54 458 67 428 c 128,-1,12
 80 398 80 398 106.5 376.5 c 128,-1,13
 133 355 133 355 172.5 339 c 128,-1,14
 212 323 212 323 265 310 c 0,15,16
 311 298 311 298 347 287 c 128,-1,17
 383 276 383 276 408.5 262.5 c 128,-1,18
 434 249 434 249 447 230.5 c 128,-1,19
 460 212 460 212 460 185 c 0,20,21
 460 139 460 139 424 116 c 128,-1,22
 388 93 388 93 321 93 c 0,23,24
 281 93 281 93 242.5 102 c 128,-1,25
 204 111 204 111 171.5 125 c 128,-1,26
 139 139 139 139 114.5 155 c 128,-1,27
 90 171 90 171 77 184 c 1,28,-1
 26 89 l 1,29,30
 56 66 56 66 90.5 48 c 128,-1,31
 125 30 125 30 162 17.5 c 128,-1,32
 199 5 199 5 238.5 -1 c 128,-1,33
 278 -7 278 -7 319 -7 c 0,34,35
 373 -7 373 -7 420 4.5 c 128,-1,36
 467 16 467 16 502.5 40.5 c 128,-1,37
 538 65 538 65 558.5 104 c 128,-1,38
 579 143 579 143 579 196 c 0,39,40
 579 245 579 245 563 278 c 128,-1,41
 547 311 547 311 516 334.5 c 128,-1,42
 485 358 485 358 442 374 c 128,-1,43
 399 390 399 390 344 403 c 0,44,45
 300 413 300 413 267 422.5 c 128,-1,46
 234 432 234 432 212 444.5 c 128,-1,47
 190 457 190 457 179 474.5 c 128,-1,48
 168 492 168 492 168 517 c 0,49,50
 168 564 168 564 202.5 590.5 c 128,-1,51
 237 617 237 617 308 617 c 0,52,53
 340 617 340 617 370 609.5 c 128,-1,54
 400 602 400 602 425.5 591 c 128,-1,55
 451 580 451 580 470.5 568 c 128,-1,56
 490 556 490 556 500 544 c 1,57,-1
 550 635 l 1,0,1
EndSplineSet
EndChar

StartChar: T
Encoding: 84 84 55
Width: 616
GlyphClass: 1
Flags: W
LayerCount: 2
Fore
SplineSet
600 710 m 1,0,-1
 16 710 l 1,1,-1
 16 612 l 1,2,-1
 253 612 l 1,3,-1
 253 0 l 1,4,-1
 364 0 l 1,5,-1
 364 612 l 1,6,-1
 600 612 l 1,7,-1
 600 710 l 1,0,-1
EndSplineSet
EndChar

StartChar: U
Encoding: 85 85 56
Width: 753
GlyphClass: 1
Flags: W
LayerCount: 2
Fore
SplineSet
377 -5 m 0,0,1
 459 -5 459 -5 517 23 c 128,-1,2
 575 51 575 51 611.5 100 c 128,-1,3
 648 149 648 149 665 213 c 128,-1,4
 682 277 682 277 682 350 c 2,5,-1
 682 710 l 1,6,-1
 571 710 l 1,7,-1
 571 350 l 2,8,9
 571 302 571 302 562 256 c 128,-1,10
 553 210 553 210 530.5 174.5 c 128,-1,11
 508 139 508 139 470 116.5 c 128,-1,12
 432 94 432 94 376 94 c 256,13,14
 320 94 320 94 283 116 c 128,-1,15
 246 138 246 138 223.5 173 c 128,-1,16
 201 208 201 208 191 254.5 c 128,-1,17
 181 301 181 301 181 350 c 2,18,-1
 181 710 l 1,19,-1
 70 710 l 1,20,-1
 70 350 l 2,21,22
 70 281 70 281 86 217 c 128,-1,23
 102 153 102 153 138.5 103.5 c 128,-1,24
 175 54 175 54 233.5 24.5 c 128,-1,25
 292 -5 292 -5 377 -5 c 0,0,1
EndSplineSet
EndChar

StartChar: V
Encoding: 86 86 57
Width: 678
GlyphClass: 1
Flags: W
LayerCount: 2
Fore
SplineSet
6 710 m 1,0,-1
 287 0 l 1,1,-1
 392 0 l 1,2,-1
 671 710 l 1,3,-1
 554 710 l 1,4,-1
 339 135 l 1,5,-1
 124 710 l 1,6,-1
 6 710 l 1,0,-1
EndSplineSet
EndChar

StartChar: W
Encoding: 87 87 58
Width: 1086
GlyphClass: 1
Flags: W
LayerCount: 2
Fore
SplineSet
240 0 m 1,0,-1
 350 0 l 1,1,-1
 541 536 l 1,2,-1
 737 0 l 1,3,-1
 848 0 l 1,4,-1
 1071 710 l 1,5,-1
 951 710 l 1,6,-1
 783 157 l 1,7,-1
 597 710 l 1,8,-1
 485 710 l 1,9,-1
 304 157 l 1,10,-1
 136 710 l 1,11,-1
 17 710 l 1,12,-1
 240 0 l 1,0,-1
EndSplineSet
Substitution2: "'ss09' Style Set 9 lookup 37 subtable" W.ss09
Substitution2: "'aalt' Access All Alternates lookup 0 subtable" W.ss09
EndChar

StartChar: X
Encoding: 88 88 59
Width: 641
GlyphClass: 1
Flags: W
LayerCount: 2
Fore
SplineSet
0 710 m 1,0,-1
 257 350 l 1,1,-1
 8 0 l 1,2,-1
 132 0 l 1,3,-1
 321 270 l 1,4,-1
 510 0 l 1,5,-1
 633 0 l 1,6,-1
 384 350 l 1,7,-1
 641 710 l 1,8,-1
 518 710 l 1,9,-1
 321 430 l 1,10,-1
 124 710 l 1,11,-1
 0 710 l 1,0,-1
EndSplineSet
EndChar

StartChar: Y
Encoding: 89 89 60
Width: 657
GlyphClass: 1
Flags: W
LayerCount: 2
Fore
SplineSet
9 710 m 1,0,-1
 273 256 l 1,1,-1
 273 0 l 1,2,-1
 383 0 l 1,3,-1
 383 254 l 1,4,-1
 648 710 l 1,5,-1
 528 710 l 1,6,-1
 328 356 l 1,7,-1
 131 710 l 1,8,-1
 9 710 l 1,0,-1
EndSplineSet
EndChar

StartChar: Z
Encoding: 90 90 61
Width: 629
GlyphClass: 1
Flags: W
LayerCount: 2
Fore
SplineSet
31 0 m 1,0,-1
 594 0 l 1,1,-1
 594 98 l 1,2,-1
 172 98 l 1,3,-1
 593 625 l 1,4,-1
 593 710 l 1,5,-1
 41 710 l 1,6,-1
 41 612 l 1,7,-1
 462 612 l 1,8,-1
 31 85 l 1,9,-1
 31 0 l 1,0,-1
EndSplineSet
EndChar

StartChar: bracketleft
Encoding: 91 91 62
Width: 290
GlyphClass: 1
Flags: W
LayerCount: 2
Fore
SplineSet
244 -40 m 1,0,-1
 244 48 l 1,1,-1
 184 48 l 1,2,-1
 184 652 l 1,3,-1
 244 652 l 1,4,-1
 244 740 l 1,5,-1
 83 740 l 1,6,-1
 83 -40 l 1,7,-1
 244 -40 l 1,0,-1
EndSplineSet
EndChar

StartChar: backslash
Encoding: 92 92 63
Width: 611
GlyphClass: 1
Flags: W
LayerCount: 2
Fore
SplineSet
27 710 m 1,0,-1
 463 0 l 1,1,-1
 584 0 l 1,2,-1
 149 710 l 1,3,-1
 27 710 l 1,0,-1
EndSplineSet
EndChar

StartChar: bracketright
Encoding: 93 93 64
Width: 290
GlyphClass: 1
Flags: W
LayerCount: 2
Fore
SplineSet
207 -40 m 1,0,-1
 207 740 l 1,1,-1
 46 740 l 1,2,-1
 46 652 l 1,3,-1
 107 652 l 1,4,-1
 107 48 l 1,5,-1
 46 48 l 1,6,-1
 46 -40 l 1,7,-1
 207 -40 l 1,0,-1
EndSplineSet
EndChar

StartChar: asciicircum
Encoding: 94 94 65
Width: 567
GlyphClass: 1
Flags: W
LayerCount: 2
Fore
SplineSet
129 303 m 1,0,-1
 284 616 l 1,1,-1
 436 303 l 1,2,-1
 527 303 l 1,3,-1
 330 710 l 1,4,-1
 239 710 l 1,5,-1
 41 303 l 1,6,-1
 129 303 l 1,0,-1
EndSplineSet
EndChar

StartChar: underscore
Encoding: 95 95 66
Width: 491
GlyphClass: 1
Flags: W
LayerCount: 2
Fore
SplineSet
431 -98 m 1,0,-1
 431 0 l 1,1,-1
 59 0 l 1,2,-1
 59 -98 l 1,3,-1
 431 -98 l 1,0,-1
EndSplineSet
EndChar

StartChar: a
Encoding: 97 97 68
Width: 556
GlyphClass: 1
Flags: W
LayerCount: 2
Fore
SplineSet
496 0 m 1,0,-1
 496 319 l 2,1,2
 496 368 496 368 481 407.5 c 128,-1,3
 466 447 466 447 437 474.5 c 128,-1,4
 408 502 408 502 366 517 c 128,-1,5
 324 532 324 532 269 532 c 0,6,7
 210 532 210 532 158 513.5 c 128,-1,8
 106 495 106 495 59 464 c 1,9,-1
 93 395 l 1,10,11
 136 425 136 425 176.5 440 c 128,-1,12
 217 455 217 455 259 455 c 0,13,14
 290 455 290 455 313.5 446.5 c 128,-1,15
 337 438 337 438 353.5 422 c 128,-1,16
 370 406 370 406 378.5 382.5 c 128,-1,17
 387 359 387 359 387 331 c 2,18,-1
 387 294 l 1,19,20
 367 303 367 303 331.5 311 c 128,-1,21
 296 319 296 319 249 319 c 0,22,23
 207 319 207 319 167 309 c 128,-1,24
 127 299 127 299 96 278 c 128,-1,25
 65 257 65 257 46.5 226 c 128,-1,26
 28 195 28 195 28 154 c 0,27,28
 28 120 28 120 41.5 89.5 c 128,-1,29
 55 59 55 59 78.5 37 c 128,-1,30
 102 15 102 15 134.5 2.5 c 128,-1,31
 167 -10 167 -10 205 -10 c 0,32,33
 261 -10 261 -10 310 11 c 128,-1,34
 359 32 359 32 391 76 c 1,35,-1
 391 0 l 1,36,-1
 496 0 l 1,0,-1
367 125 m 0,37,38
 356 112 356 112 341 101 c 128,-1,39
 326 90 326 90 308 83.5 c 128,-1,40
 290 77 290 77 271 73.5 c 128,-1,41
 252 70 252 70 234 70 c 0,42,43
 213 70 213 70 194.5 76.5 c 128,-1,44
 176 83 176 83 161.5 95.5 c 128,-1,45
 147 108 147 108 139 125.5 c 128,-1,46
 131 143 131 143 131 163 c 0,47,48
 131 187 131 187 143 204.5 c 128,-1,49
 155 222 155 222 174.5 233.5 c 128,-1,50
 194 245 194 245 218 250.5 c 128,-1,51
 242 256 242 256 266 256 c 0,52,53
 295 256 295 256 326.5 250.5 c 128,-1,54
 358 245 358 245 387 233 c 1,55,-1
 387 164 l 2,56,57
 387 155 387 155 381.5 145 c 128,-1,58
 376 135 376 135 367 125 c 0,37,38
EndSplineSet
Substitution2: "Single Substitution lookup 45 subtable" ordfeminine
Substitution2: "'ss02' Style Set 2 lookup 30 subtable" a.ss02
Substitution2: "'ss01' Style Set 1 lookup 29 subtable" a.ss01
Substitution2: "'salt' Stylistic Alternatives lookup 28 subtable" a.ss01
AlternateSubs2: "'aalt' Access All Alternates lookup 1 subtable" ordfeminine a.ss01 a.ss02
EndChar

StartChar: b
Encoding: 98 98 69
Width: 628
GlyphClass: 1
Flags: W
LayerCount: 2
Fore
SplineSet
348 -10 m 0,0,1
 401 -10 401 -10 446 11.5 c 128,-1,2
 491 33 491 33 523.5 69 c 128,-1,3
 556 105 556 105 575 154.5 c 128,-1,4
 594 204 594 204 594 259 c 256,5,6
 594 314 594 314 577.5 363 c 128,-1,7
 561 412 561 412 530.5 449.5 c 128,-1,8
 500 487 500 487 457.5 509.5 c 128,-1,9
 415 532 415 532 362 532 c 0,10,11
 299 532 299 532 252.5 502.5 c 128,-1,12
 206 473 206 473 175 424 c 1,13,-1
 175 730 l 1,14,-1
 66 730 l 1,15,-1
 66 0 l 1,16,-1
 162 0 l 1,17,-1
 162 95 l 1,18,19
 175 71 175 71 194.5 51.5 c 128,-1,20
 214 32 214 32 238 18.5 c 128,-1,21
 262 5 262 5 290 -2.5 c 128,-1,22
 318 -10 318 -10 348 -10 c 0,0,1
319 83 m 0,23,24
 297 83 297 83 274.5 91 c 128,-1,25
 252 99 252 99 231.5 112.5 c 128,-1,26
 211 126 211 126 196 145 c 128,-1,27
 181 164 181 164 175 186 c 1,28,-1
 175 326 l 1,29,30
 186 349 186 349 201 369.5 c 128,-1,31
 216 390 216 390 236 405.5 c 128,-1,32
 256 421 256 421 279 430 c 128,-1,33
 302 439 302 439 327 439 c 0,34,35
 362 439 362 439 390.5 424 c 128,-1,36
 419 409 419 409 439.5 384.5 c 128,-1,37
 460 360 460 360 471.5 327 c 128,-1,38
 483 294 483 294 483 259 c 0,39,40
 483 225 483 225 471 193 c 128,-1,41
 459 161 459 161 437.5 136.5 c 128,-1,42
 416 112 416 112 385.5 97.5 c 128,-1,43
 355 83 355 83 319 83 c 0,23,24
EndSplineSet
EndChar

StartChar: c
Encoding: 99 99 70
Width: 559
GlyphClass: 1
Flags: W
LayerCount: 2
Fore
SplineSet
303 -10 m 0,0,1
 344 -10 344 -10 380.5 0 c 128,-1,2
 417 10 417 10 446.5 27.5 c 128,-1,3
 476 45 476 45 498 70 c 128,-1,4
 520 95 520 95 533 123 c 1,5,-1
 427 155 l 1,6,7
 421 141 421 141 408.5 127.5 c 128,-1,8
 396 114 396 114 379 104 c 128,-1,9
 362 94 362 94 342 88.5 c 128,-1,10
 322 83 322 83 301 83 c 0,11,12
 269 83 269 83 240.5 96.5 c 128,-1,13
 212 110 212 110 190.5 134 c 128,-1,14
 169 158 169 158 156.5 191 c 128,-1,15
 144 224 144 224 144 262 c 0,16,17
 144 301 144 301 156 333.5 c 128,-1,18
 168 366 168 366 189 389.5 c 128,-1,19
 210 413 210 413 239 426 c 128,-1,20
 268 439 268 439 301 439 c 0,21,22
 340 439 340 439 372.5 420.5 c 128,-1,23
 405 402 405 402 424 369 c 1,24,-1
 530 402 l 1,25,26
 500 461 500 461 442 496.5 c 128,-1,27
 384 532 384 532 302 532 c 0,28,29
 240 532 240 532 190.5 510.5 c 128,-1,30
 141 489 141 489 106 452 c 128,-1,31
 71 415 71 415 52 366 c 128,-1,32
 33 317 33 317 33 262 c 256,33,34
 33 207 33 207 52 157.5 c 128,-1,35
 71 108 71 108 106.5 71 c 128,-1,36
 142 34 142 34 192 12 c 128,-1,37
 242 -10 242 -10 303 -10 c 0,0,1
EndSplineSet
EndChar

StartChar: d
Encoding: 100 100 71
Width: 629
GlyphClass: 1
Flags: W
LayerCount: 2
Fore
SplineSet
562 0 m 1,0,-1
 562 730 l 1,1,-1
 454 730 l 1,2,-1
 454 424 l 1,3,4
 440 447 440 447 420.5 467 c 128,-1,5
 401 487 401 487 377 501 c 128,-1,6
 353 515 353 515 326 523.5 c 128,-1,7
 299 532 299 532 268 532 c 0,8,9
 217 532 217 532 174.5 510.5 c 128,-1,10
 132 489 132 489 100.5 452.5 c 128,-1,11
 69 416 69 416 51.5 366.5 c 128,-1,12
 34 317 34 317 34 261 c 0,13,14
 34 206 34 206 52.5 156.5 c 128,-1,15
 71 107 71 107 104 70 c 128,-1,16
 137 33 137 33 182.5 11.5 c 128,-1,17
 228 -10 228 -10 282 -10 c 0,18,19
 338 -10 338 -10 382 16 c 128,-1,20
 426 42 426 42 454 87 c 1,21,-1
 454 0 l 1,22,-1
 562 0 l 1,0,-1
454 187 m 1,23,24
 449 165 449 165 434 146 c 128,-1,25
 419 127 419 127 398.5 113 c 128,-1,26
 378 99 378 99 354.5 91 c 128,-1,27
 331 83 331 83 309 83 c 0,28,29
 275 83 275 83 245 97 c 128,-1,30
 215 111 215 111 193 134.5 c 128,-1,31
 171 158 171 158 158.5 190.5 c 128,-1,32
 146 223 146 223 146 259 c 0,33,34
 146 294 146 294 157 326.5 c 128,-1,35
 168 359 168 359 188.5 384 c 128,-1,36
 209 409 209 409 237.5 424 c 128,-1,37
 266 439 266 439 301 439 c 0,38,39
 324 439 324 439 347.5 430.5 c 128,-1,40
 371 422 371 422 391.5 406.5 c 128,-1,41
 412 391 412 391 428.5 370.5 c 128,-1,42
 445 350 445 350 454 326 c 1,43,-1
 454 187 l 1,23,24
EndSplineSet
Substitution2: "'ss03' Style Set 3 lookup 31 subtable" d.ss03
Substitution2: "'aalt' Access All Alternates lookup 0 subtable" d.ss03
EndChar

StartChar: e
Encoding: 101 101 72
Width: 595
GlyphClass: 1
Flags: W
LayerCount: 2
Fore
SplineSet
303 -10 m 0,0,1
 344 -10 344 -10 381 0 c 128,-1,2
 418 10 418 10 448 28 c 128,-1,3
 478 46 478 46 501 70.5 c 128,-1,4
 524 95 524 95 538 124 c 1,5,-1
 445 150 l 1,6,7
 438 133 438 133 423.5 117.5 c 128,-1,8
 409 102 409 102 390.5 92 c 128,-1,9
 372 82 372 82 350.5 76 c 128,-1,10
 329 70 329 70 307 70 c 0,11,12
 276 70 276 70 248.5 81.5 c 128,-1,13
 221 93 221 93 199 113 c 128,-1,14
 177 133 177 133 163.5 161.5 c 128,-1,15
 150 190 150 190 147 226 c 1,16,-1
 568 226 l 1,17,18
 569 232 569 232 569.5 242.5 c 128,-1,19
 570 253 570 253 570 265 c 0,20,21
 570 318 570 318 551.5 366 c 128,-1,22
 533 414 533 414 498.5 451 c 128,-1,23
 464 488 464 488 414.5 510 c 128,-1,24
 365 532 365 532 304 532 c 256,25,26
 243 532 243 532 193 510.5 c 128,-1,27
 143 489 143 489 107 451.5 c 128,-1,28
 71 414 71 414 52 364.5 c 128,-1,29
 33 315 33 315 33 260 c 256,30,31
 33 205 33 205 52 156 c 128,-1,32
 71 107 71 107 106.5 70 c 128,-1,33
 142 33 142 33 192 11.5 c 128,-1,34
 242 -10 242 -10 303 -10 c 0,0,1
144 297 m 1,35,36
 147 332 147 332 160 360 c 128,-1,37
 173 388 173 388 194.5 408.5 c 128,-1,38
 216 429 216 429 244 440.5 c 128,-1,39
 272 452 272 452 303 452 c 0,40,41
 335 452 335 452 362.5 441 c 128,-1,42
 390 430 390 430 411.5 409.5 c 128,-1,43
 433 389 433 389 447 360.5 c 128,-1,44
 461 332 461 332 464 297 c 1,45,-1
 144 297 l 1,35,36
EndSplineSet
EndChar

StartChar: f
Encoding: 102 102 73
Width: 355
GlyphClass: 1
Flags: W
LayerCount: 2
Fore
SplineSet
205 0 m 1,0,-1
 205 427 l 1,1,-1
 339 427 l 1,2,-1
 339 511 l 1,3,-1
 205 511 l 1,4,-1
 205 535 l 2,5,6
 205 590 205 590 225.5 619 c 128,-1,7
 246 648 246 648 286 648 c 0,8,9
 305 648 305 648 325 642.5 c 128,-1,10
 345 637 345 637 360 628 c 1,11,-1
 384 708 l 1,12,13
 357 723 357 723 325.5 731.5 c 128,-1,14
 294 740 294 740 263 740 c 0,15,16
 225 740 225 740 194 725.5 c 128,-1,17
 163 711 163 711 141 684 c 128,-1,18
 119 657 119 657 107.5 618 c 128,-1,19
 96 579 96 579 96 531 c 2,20,-1
 96 511 l 1,21,-1
 26 511 l 1,22,-1
 26 427 l 1,23,-1
 96 427 l 1,24,-1
 96 0 l 1,25,-1
 205 0 l 1,0,-1
EndSplineSet
EndChar

StartChar: g
Encoding: 103 103 74
Width: 629
GlyphClass: 1
Flags: W
LayerCount: 2
Fore
SplineSet
273 -5 m 0,0,1
 328 -5 328 -5 377 21.5 c 128,-1,2
 426 48 426 48 454 95 c 1,3,-1
 454 14 l 2,4,5
 454 -25 454 -25 440 -54 c 128,-1,6
 426 -83 426 -83 403.5 -102.5 c 128,-1,7
 381 -122 381 -122 350 -131 c 128,-1,8
 319 -140 319 -140 285 -140 c 0,9,10
 231 -140 231 -140 183.5 -118 c 128,-1,11
 136 -96 136 -96 105 -54 c 1,12,-1
 45 -111 l 1,13,14
 84 -163 84 -163 141 -193 c 128,-1,15
 198 -223 198 -223 285 -223 c 0,16,17
 345 -223 345 -223 395.5 -207 c 128,-1,18
 446 -191 446 -191 483 -161 c 128,-1,19
 520 -131 520 -131 541 -87 c 128,-1,20
 562 -43 562 -43 562 14 c 2,21,-1
 562 523 l 1,22,-1
 467 523 l 1,23,-1
 467 424 l 1,24,25
 452 447 452 447 432 467.5 c 128,-1,26
 412 488 412 488 388 502 c 128,-1,27
 364 516 364 516 336.5 524 c 128,-1,28
 309 532 309 532 277 532 c 0,29,30
 223 532 223 532 178.5 510.5 c 128,-1,31
 134 489 134 489 102 452.5 c 128,-1,32
 70 416 70 416 52.5 366.5 c 128,-1,33
 35 317 35 317 35 261 c 0,34,35
 35 208 35 208 52 160 c 128,-1,36
 69 112 69 112 100.5 75.5 c 128,-1,37
 132 39 132 39 176.5 17 c 128,-1,38
 221 -5 221 -5 273 -5 c 0,0,1
308 83 m 0,39,40
 274 83 274 83 244 97 c 128,-1,41
 214 111 214 111 192 134.5 c 128,-1,42
 170 158 170 158 157.5 190 c 128,-1,43
 145 222 145 222 145 258 c 0,44,45
 145 292 145 292 156 324.5 c 128,-1,46
 167 357 167 357 187 382.5 c 128,-1,47
 207 408 207 408 235.5 423.5 c 128,-1,48
 264 439 264 439 300 439 c 0,49,50
 324 439 324 439 347.5 431 c 128,-1,51
 371 423 371 423 391 407.5 c 128,-1,52
 411 392 411 392 427.5 371.5 c 128,-1,53
 444 351 444 351 454 326 c 1,54,-1
 454 187 l 1,55,56
 448 167 448 167 434 148 c 128,-1,57
 420 129 420 129 400 114.5 c 128,-1,58
 380 100 380 100 357 91.5 c 128,-1,59
 334 83 334 83 308 83 c 0,39,40
EndSplineSet
EndChar

StartChar: h
Encoding: 104 104 75
Width: 596
GlyphClass: 1
Flags: W
LayerCount: 2
Fore
SplineSet
535 319 m 2,0,1
 535 362 535 362 527 400.5 c 128,-1,2
 519 439 519 439 500.5 468 c 128,-1,3
 482 497 482 497 450 514.5 c 128,-1,4
 418 532 418 532 370 532 c 0,5,6
 308 532 308 532 256.5 502 c 128,-1,7
 205 472 205 472 175 418 c 1,8,-1
 175 730 l 1,9,-1
 66 730 l 1,10,-1
 66 0 l 1,11,-1
 175 0 l 1,12,-1
 175 311 l 1,13,14
 183 338 183 338 199.5 361 c 128,-1,15
 216 384 216 384 236.5 400.5 c 128,-1,16
 257 417 257 417 280 426.5 c 128,-1,17
 303 436 303 436 326 436 c 0,18,19
 374 436 374 436 400 400.5 c 128,-1,20
 426 365 426 365 426 293 c 2,21,-1
 426 0 l 1,22,-1
 535 0 l 1,23,-1
 535 319 l 2,0,1
EndSplineSet
EndChar

StartChar: k
Encoding: 107 107 78
Width: 548
GlyphClass: 1
Flags: W
LayerCount: 2
Fore
SplineSet
546 0 m 1,0,-1
 332 303 l 1,1,-1
 535 522 l 1,2,-1
 419 522 l 1,3,-1
 175 269 l 1,4,-1
 175 730 l 1,5,-1
 66 730 l 1,6,-1
 66 0 l 1,7,-1
 175 0 l 1,8,-1
 175 159 l 1,9,-1
 262 242 l 1,10,-1
 430 0 l 1,11,-1
 546 0 l 1,0,-1
EndSplineSet
EndChar

StartChar: l
Encoding: 108 108 79
Width: 300
GlyphClass: 1
Flags: W
LayerCount: 2
Fore
SplineSet
67 111 m 2,0,1
 67 54 67 54 99 23 c 128,-1,2
 131 -8 131 -8 187 -8 c 0,3,4
 213 -8 213 -8 245.5 -1 c 128,-1,5
 278 6 278 6 302 16 c 1,6,-1
 286 102 l 1,7,8
 273 96 273 96 255 91.5 c 128,-1,9
 237 87 237 87 218 87 c 0,10,11
 209 87 209 87 201 89 c 128,-1,12
 193 91 193 91 187.5 98 c 128,-1,13
 182 105 182 105 179 117 c 128,-1,14
 176 129 176 129 176 150 c 2,15,-1
 176 730 l 1,16,-1
 67 730 l 1,17,-1
 67 111 l 2,0,1
EndSplineSet
Substitution2: "'ss05' Style Set 5 lookup 33 subtable" l.ss05
Substitution2: "'aalt' Access All Alternates lookup 0 subtable" l.ss05
EndChar

StartChar: m
Encoding: 109 109 80
Width: 927
GlyphClass: 1
Flags: W
LayerCount: 2
Fore
SplineSet
866 319 m 2,0,1
 866 362 866 362 858.5 400.5 c 128,-1,2
 851 439 851 439 833.5 468.5 c 128,-1,3
 816 498 816 498 785.5 515 c 128,-1,4
 755 532 755 532 708 532 c 0,5,6
 645 532 645 532 595 501.5 c 128,-1,7
 545 471 545 471 512 412 c 1,8,9
 502 464 502 464 464.5 498 c 128,-1,10
 427 532 427 532 362 532 c 256,11,12
 297 532 297 532 246.5 502.5 c 128,-1,13
 196 473 196 473 165 418 c 1,14,-1
 165 523 l 1,15,-1
 66 523 l 1,16,-1
 66 0 l 1,17,-1
 175 0 l 1,18,-1
 175 311 l 1,19,20
 183 339 183 339 198 362 c 128,-1,21
 213 385 213 385 231.5 401 c 128,-1,22
 250 417 250 417 272.5 426.5 c 128,-1,23
 295 436 295 436 318 436 c 0,24,25
 364 436 364 436 387.5 402 c 128,-1,26
 411 368 411 368 411 293 c 2,27,-1
 411 0 l 1,28,-1
 520 0 l 1,29,-1
 520 310 l 1,30,31
 528 338 528 338 542.5 361 c 128,-1,32
 557 384 557 384 576 400.5 c 128,-1,33
 595 417 595 417 617 426.5 c 128,-1,34
 639 436 639 436 663 436 c 0,35,36
 709 436 709 436 733 401 c 128,-1,37
 757 366 757 366 757 293 c 2,38,-1
 757 0 l 1,39,-1
 866 0 l 1,40,-1
 866 319 l 2,0,1
EndSplineSet
EndChar

StartChar: n
Encoding: 110 110 81
Width: 596
GlyphClass: 1
Flags: W
LayerCount: 2
Fore
SplineSet
535 319 m 2,0,1
 535 362 535 362 528 401 c 128,-1,2
 521 440 521 440 503 469 c 128,-1,3
 485 498 485 498 455 515 c 128,-1,4
 425 532 425 532 378 532 c 0,5,6
 344 532 344 532 312 524 c 128,-1,7
 280 516 280 516 252 501 c 128,-1,8
 224 486 224 486 201.5 464.5 c 128,-1,9
 179 443 179 443 165 418 c 1,10,-1
 165 523 l 1,11,-1
 66 523 l 1,12,-1
 66 0 l 1,13,-1
 175 0 l 1,14,-1
 175 311 l 1,15,16
 183 338 183 338 199.5 361 c 128,-1,17
 216 384 216 384 238 400.5 c 128,-1,18
 260 417 260 417 284 426.5 c 128,-1,19
 308 436 308 436 332 436 c 0,20,21
 378 436 378 436 402 402 c 128,-1,22
 426 368 426 368 426 293 c 2,23,-1
 426 0 l 1,24,-1
 535 0 l 1,25,-1
 535 319 l 2,0,1
EndSplineSet
EndChar

StartChar: o
Encoding: 111 111 82
Width: 602
GlyphClass: 1
Flags: W
LayerCount: 2
Fore
SplineSet
301 -10 m 0,0,1
 362 -10 362 -10 411.5 12 c 128,-1,2
 461 34 461 34 496.5 71 c 128,-1,3
 532 108 532 108 550.5 157.5 c 128,-1,4
 569 207 569 207 569 261 c 256,5,6
 569 315 569 315 550 364.5 c 128,-1,7
 531 414 531 414 496 451 c 128,-1,8
 461 488 461 488 411.5 510 c 128,-1,9
 362 532 362 532 301 532 c 256,10,11
 240 532 240 532 190.5 510 c 128,-1,12
 141 488 141 488 106 451 c 128,-1,13
 71 414 71 414 52 364.5 c 128,-1,14
 33 315 33 315 33 261 c 256,15,16
 33 207 33 207 51.5 157.5 c 128,-1,17
 70 108 70 108 105 71 c 128,-1,18
 140 34 140 34 189.5 12 c 128,-1,19
 239 -10 239 -10 301 -10 c 0,0,1
144 260 m 256,20,21
 144 298 144 298 156 330.5 c 128,-1,22
 168 363 168 363 189.5 387 c 128,-1,23
 211 411 211 411 239.5 425 c 128,-1,24
 268 439 268 439 301 439 c 0,25,26
 333 439 333 439 362 425.5 c 128,-1,27
 391 412 391 412 412.5 388 c 128,-1,28
 434 364 434 364 446 331.5 c 128,-1,29
 458 299 458 299 458 261 c 256,30,31
 458 223 458 223 446 190.5 c 128,-1,32
 434 158 434 158 412.5 134 c 128,-1,33
 391 110 391 110 362 96.5 c 128,-1,34
 333 83 333 83 301 83 c 0,35,36
 268 83 268 83 239.5 96.5 c 128,-1,37
 211 110 211 110 189.5 133.5 c 128,-1,38
 168 157 168 157 156 189.5 c 128,-1,39
 144 222 144 222 144 260 c 256,20,21
EndSplineSet
Substitution2: "Single Substitution lookup 45 subtable" ordmasculine
Substitution2: "'aalt' Access All Alternates lookup 0 subtable" ordmasculine
EndChar

StartChar: p
Encoding: 112 112 83
Width: 628
GlyphClass: 1
Flags: W
LayerCount: 2
Fore
SplineSet
362 -10 m 0,0,1
 413 -10 413 -10 455.5 11.5 c 128,-1,2
 498 33 498 33 529 69.5 c 128,-1,3
 560 106 560 106 577 155.5 c 128,-1,4
 594 205 594 205 594 262 c 0,5,6
 594 316 594 316 575.5 365 c 128,-1,7
 557 414 557 414 524 451.5 c 128,-1,8
 491 489 491 489 446.5 510.5 c 128,-1,9
 402 532 402 532 348 532 c 0,10,11
 288 532 288 532 240 504 c 128,-1,12
 192 476 192 476 162 429 c 1,13,-1
 162 523 l 1,14,-1
 66 523 l 1,15,-1
 66 -213 l 1,16,-1
 175 -213 l 1,17,-1
 175 98 l 1,18,19
 189 75 189 75 208 54.5 c 128,-1,20
 227 34 227 34 250.5 20 c 128,-1,21
 274 6 274 6 302.5 -2 c 128,-1,22
 331 -10 331 -10 362 -10 c 0,0,1
327 83 m 0,23,24
 303 83 303 83 280 91.5 c 128,-1,25
 257 100 257 100 237 115.5 c 128,-1,26
 217 131 217 131 201 152 c 128,-1,27
 185 173 185 173 175 197 c 1,28,-1
 175 335 l 1,29,30
 181 357 181 357 196 376 c 128,-1,31
 211 395 211 395 231.5 409 c 128,-1,32
 252 423 252 423 274.5 431 c 128,-1,33
 297 439 297 439 319 439 c 0,34,35
 354 439 354 439 384 425 c 128,-1,36
 414 411 414 411 436 387 c 128,-1,37
 458 363 458 363 470.5 330.5 c 128,-1,38
 483 298 483 298 483 262 c 0,39,40
 483 228 483 228 472 195.5 c 128,-1,41
 461 163 461 163 440.5 138 c 128,-1,42
 420 113 420 113 391.5 98 c 128,-1,43
 363 83 363 83 327 83 c 0,23,24
EndSplineSet
EndChar

StartChar: q
Encoding: 113 113 84
Width: 628
GlyphClass: 1
Flags: W
LayerCount: 2
Fore
SplineSet
266 -10 m 0,0,1
 325 -10 325 -10 372.5 17.5 c 128,-1,2
 420 45 420 45 453 98 c 1,3,-1
 453 -213 l 1,4,-1
 561 -213 l 1,5,-1
 561 523 l 1,6,-1
 466 523 l 1,7,-1
 466 427 l 1,8,9
 451 451 451 451 431.5 470 c 128,-1,10
 412 489 412 489 388.5 503 c 128,-1,11
 365 517 365 517 337.5 524.5 c 128,-1,12
 310 532 310 532 280 532 c 0,13,14
 228 532 228 532 183 510.5 c 128,-1,15
 138 489 138 489 105 452.5 c 128,-1,16
 72 416 72 416 53 367 c 128,-1,17
 34 318 34 318 34 262 c 0,18,19
 34 207 34 207 51 157.5 c 128,-1,20
 68 108 68 108 98.5 71 c 128,-1,21
 129 34 129 34 172 12 c 128,-1,22
 215 -10 215 -10 266 -10 c 0,0,1
305 83 m 0,23,24
 270 83 270 83 240.5 97 c 128,-1,25
 211 111 211 111 189.5 134.5 c 128,-1,26
 168 158 168 158 156.5 190.5 c 128,-1,27
 145 223 145 223 145 259 c 0,28,29
 145 294 145 294 156.5 326.5 c 128,-1,30
 168 359 168 359 189.5 384 c 128,-1,31
 211 409 211 409 240 424 c 128,-1,32
 269 439 269 439 305 439 c 0,33,34
 328 439 328 439 352.5 429.5 c 128,-1,35
 377 420 377 420 397.5 404.5 c 128,-1,36
 418 389 418 389 433 367.5 c 128,-1,37
 448 346 448 346 453 322 c 1,38,-1
 453 183 l 1,39,40
 441 162 441 162 425.5 143.5 c 128,-1,41
 410 125 410 125 391.5 112 c 128,-1,42
 373 99 373 99 351.5 91 c 128,-1,43
 330 83 330 83 305 83 c 0,23,24
EndSplineSet
Substitution2: "'ss06' Style Set 6 lookup 34 subtable" q.ss06
Substitution2: "'aalt' Access All Alternates lookup 0 subtable" q.ss06
EndChar

StartChar: r
Encoding: 114 114 85
Width: 374
GlyphClass: 1
Flags: W
LayerCount: 2
Fore
SplineSet
359 527 m 1,0,1
 354 528 354 528 347.5 528 c 128,-1,2
 341 528 341 528 331 528 c 0,3,4
 281 525 281 525 237.5 492.5 c 128,-1,5
 194 460 194 460 167 406 c 1,6,-1
 167 523 l 1,7,-1
 66 523 l 1,8,-1
 66 0 l 1,9,-1
 175 0 l 1,10,-1
 175 320 l 1,11,12
 196 371 196 371 245.5 399 c 128,-1,13
 295 427 295 427 359 429 c 1,14,-1
 359 527 l 1,0,1
EndSplineSet
EndChar

StartChar: s
Encoding: 115 115 86
Width: 491
GlyphClass: 1
Flags: W
LayerCount: 2
Fore
SplineSet
252 -10 m 0,0,1
 299 -10 299 -10 337 1 c 128,-1,2
 375 12 375 12 402 33 c 128,-1,3
 429 54 429 54 444 83.5 c 128,-1,4
 459 113 459 113 459 151 c 0,5,6
 459 187 459 187 445.5 210.5 c 128,-1,7
 432 234 432 234 406.5 251 c 128,-1,8
 381 268 381 268 345.5 280.5 c 128,-1,9
 310 293 310 293 264 307 c 0,10,11
 238 315 238 315 217.5 321.5 c 128,-1,12
 197 328 197 328 183.5 336.5 c 128,-1,13
 170 345 170 345 163.5 356 c 128,-1,14
 157 367 157 367 157 384 c 0,15,16
 157 403 157 403 165.5 415.5 c 128,-1,17
 174 428 174 428 187.5 436 c 128,-1,18
 201 444 201 444 219 447 c 128,-1,19
 237 450 237 450 255 450 c 0,20,21
 298 450 298 450 334 435 c 128,-1,22
 370 420 370 420 405 388 c 1,23,-1
 452 460 l 1,24,25
 414 497 414 497 366 514.5 c 128,-1,26
 318 532 318 532 261 532 c 0,27,28
 215 532 215 532 177 521 c 128,-1,29
 139 510 139 510 112 489.5 c 128,-1,30
 85 469 85 469 70 439 c 128,-1,31
 55 409 55 409 55 371 c 0,32,33
 55 339 55 339 66 316.5 c 128,-1,34
 77 294 77 294 98.5 277 c 128,-1,35
 120 260 120 260 152 247 c 128,-1,36
 184 234 184 234 225 221 c 0,37,38
 255 213 255 213 279 206.5 c 128,-1,39
 303 200 303 200 319.5 192 c 128,-1,40
 336 184 336 184 344.5 172.5 c 128,-1,41
 353 161 353 161 353 143 c 0,42,43
 353 108 353 108 324 90.5 c 128,-1,44
 295 73 295 73 247 73 c 0,45,46
 201 73 201 73 156.5 91 c 128,-1,47
 112 109 112 109 66 149 c 1,48,-1
 26 76 l 1,49,50
 69 33 69 33 127 11.5 c 128,-1,51
 185 -10 185 -10 252 -10 c 0,0,1
EndSplineSet
EndChar

StartChar: t
Encoding: 116 116 87
Width: 366
GlyphClass: 1
Flags: W
LayerCount: 2
Fore
SplineSet
333 113 m 1,0,1
 328 110 328 110 320 106.5 c 128,-1,2
 312 103 312 103 302 99.5 c 128,-1,3
 292 96 292 96 280.5 94 c 128,-1,4
 269 92 269 92 257 92 c 0,5,6
 235 92 235 92 219.5 104.5 c 128,-1,7
 204 117 204 117 202 145 c 2,8,-1
 202 439 l 1,9,-1
 316 439 l 1,10,-1
 316 523 l 1,11,-1
 202 523 l 1,12,-1
 202 695 l 1,13,-1
 94 695 l 1,14,-1
 94 523 l 1,15,-1
 24 523 l 1,16,-1
 24 439 l 1,17,-1
 94 439 l 1,18,-1
 94 110 l 2,19,20
 94 79 94 79 104 57 c 128,-1,21
 114 35 114 35 131 20.5 c 128,-1,22
 148 6 148 6 171 -1 c 128,-1,23
 194 -8 194 -8 220 -8 c 0,24,25
 241 -8 241 -8 261 -4 c 128,-1,26
 281 0 281 0 298.5 5 c 128,-1,27
 316 10 316 10 331 16 c 128,-1,28
 346 22 346 22 356 27 c 1,29,-1
 333 113 l 1,0,1
EndSplineSet
Substitution2: "'ss07' Style Set 7 lookup 35 subtable" t.ss07
Substitution2: "'aalt' Access All Alternates lookup 0 subtable" t.ss07
EndChar

StartChar: u
Encoding: 117 117 88
Width: 601
GlyphClass: 1
Flags: W
LayerCount: 2
Fore
SplineSet
534 0 m 1,0,-1
 534 523 l 1,1,-1
 426 523 l 1,2,-1
 426 197 l 1,3,4
 416 172 416 172 399.5 150.5 c 128,-1,5
 383 129 383 129 363 114.5 c 128,-1,6
 343 100 343 100 320.5 91.5 c 128,-1,7
 298 83 298 83 274 83 c 0,8,9
 244 83 244 83 223.5 94 c 128,-1,10
 203 105 203 105 191 124 c 128,-1,11
 179 143 179 143 174.5 169.5 c 128,-1,12
 170 196 170 196 170 225 c 2,13,-1
 170 523 l 1,14,-1
 61 523 l 1,15,-1
 61 203 l 2,16,17
 61 158 61 158 70 118.5 c 128,-1,18
 79 79 79 79 98.5 50.5 c 128,-1,19
 118 22 118 22 151.5 6 c 128,-1,20
 185 -10 185 -10 234 -10 c 0,21,22
 264 -10 264 -10 292.5 -3 c 128,-1,23
 321 4 321 4 347 18 c 128,-1,24
 373 32 373 32 394 52.5 c 128,-1,25
 415 73 415 73 430 100 c 1,26,-1
 430 0 l 1,27,-1
 534 0 l 1,0,-1
EndSplineSet
Substitution2: "'ss08' Style Set 8 lookup 36 subtable" u.ss08
Substitution2: "'aalt' Access All Alternates lookup 0 subtable" u.ss08
EndChar

StartChar: v
Encoding: 118 118 89
Width: 544
GlyphClass: 1
Flags: W
LayerCount: 2
Fore
SplineSet
331 0 m 1,0,-1
 530 523 l 1,1,-1
 426 523 l 1,2,-1
 276 101 l 1,3,-1
 126 523 l 1,4,-1
 13 523 l 1,5,-1
 212 0 l 1,6,-1
 331 0 l 1,0,-1
EndSplineSet
EndChar

StartChar: w
Encoding: 119 119 90
Width: 854
GlyphClass: 1
Flags: W
LayerCount: 2
Fore
SplineSet
17 522 m 1,0,-1
 198 0 l 1,1,-1
 310 0 l 1,2,-1
 428 365 l 1,3,-1
 545 0 l 1,4,-1
 657 0 l 1,5,-1
 837 522 l 1,6,-1
 731 522 l 1,7,-1
 596 121 l 1,8,-1
 476 522 l 1,9,-1
 379 522 l 1,10,-1
 259 121 l 1,11,-1
 124 522 l 1,12,-1
 17 522 l 1,0,-1
EndSplineSet
Substitution2: "'ss09' Style Set 9 lookup 37 subtable" w.ss09
Substitution2: "'aalt' Access All Alternates lookup 0 subtable" w.ss09
EndChar

StartChar: x
Encoding: 120 120 91
Width: 521
GlyphClass: 1
Flags: W
LayerCount: 2
Fore
SplineSet
10 523 m 1,0,-1
 198 260 l 1,1,-1
 8 0 l 1,2,-1
 125 0 l 1,3,-1
 252 179 l 1,4,-1
 260 195 l 1,5,-1
 269 179 l 1,6,-1
 396 0 l 1,7,-1
 513 0 l 1,8,-1
 323 261 l 1,9,-1
 511 523 l 1,10,-1
 394 523 l 1,11,-1
 269 343 l 1,12,-1
 260 326 l 1,13,-1
 252 343 l 1,14,-1
 126 523 l 1,15,-1
 10 523 l 1,0,-1
EndSplineSet
EndChar

StartChar: y
Encoding: 121 121 92
Width: 549
GlyphClass: 1
Flags: W
LayerCount: 2
Fore
SplineSet
430 523 m 1,0,-1
 283 101 l 1,1,-1
 122 523 l 1,2,-1
 9 523 l 1,3,-1
 224 0 l 1,4,-1
 139 -213 l 1,5,-1
 263 -213 l 1,6,-1
 533 523 l 1,7,-1
 430 523 l 1,0,-1
EndSplineSet
Substitution2: "'ss10' Style Set 10 lookup 38 subtable" y.ss10
Substitution2: "'aalt' Access All Alternates lookup 0 subtable" y.ss10
EndChar

StartChar: z
Encoding: 122 122 93
Width: 493
GlyphClass: 1
Flags: W
LayerCount: 2
Fore
SplineSet
28 0 m 1,0,-1
 461 0 l 1,1,-1
 461 77 l 1,2,-1
 149 77 l 1,3,-1
 458 455 l 1,4,-1
 458 523 l 1,5,-1
 39 523 l 1,6,-1
 39 446 l 1,7,-1
 340 446 l 1,8,-1
 28 68 l 1,9,-1
 28 0 l 1,0,-1
EndSplineSet
EndChar

StartChar: braceleft
Encoding: 123 123 94
Width: 292
GlyphClass: 1
Flags: W
LayerCount: 2
Fore
SplineSet
243 652 m 1,0,-1
 243 740 l 1,1,-1
 113 740 l 2,2,3
 108 740 108 740 99 734.5 c 128,-1,4
 90 729 90 729 90 710 c 2,5,-1
 90 460 l 2,6,7
 90 452 90 452 87 441 c 128,-1,8
 84 430 84 430 78 421 c 128,-1,9
 72 412 72 412 64 406 c 128,-1,10
 56 400 56 400 45 400 c 1,11,-1
 45 322 l 1,12,13
 64 319 64 319 77 301.5 c 128,-1,14
 90 284 90 284 90 260 c 2,15,-1
 90 -1 l 2,16,17
 90 -18 90 -18 98 -24.5 c 128,-1,18
 106 -31 106 -31 113 -31 c 2,19,-1
 243 -31 l 1,20,-1
 243 57 l 1,21,-1
 188 57 l 1,22,-1
 188 294 l 2,23,24
 188 310 188 310 180 328 c 128,-1,25
 172 346 172 346 157 360 c 1,26,27
 173 374 173 374 180.5 392 c 128,-1,28
 188 410 188 410 188 426 c 2,29,-1
 188 652 l 1,30,-1
 243 652 l 1,0,-1
EndSplineSet
EndChar

StartChar: bar
Encoding: 124 124 95
Width: 254
GlyphClass: 1
Flags: W
LayerCount: 2
Fore
SplineSet
174 -130 m 1,0,-1
 174 775 l 1,1,-1
 81 775 l 1,2,-1
 81 -130 l 1,3,-1
 174 -130 l 1,0,-1
EndSplineSet
EndChar

StartChar: braceright
Encoding: 125 125 96
Width: 292
GlyphClass: 1
Flags: W
LayerCount: 2
Fore
SplineSet
103 652 m 1,0,-1
 103 426 l 2,1,2
 103 410 103 410 111 392 c 128,-1,3
 119 374 119 374 135 360 c 1,4,5
 119 346 119 346 111 328 c 128,-1,6
 103 310 103 310 103 294 c 2,7,-1
 103 57 l 1,8,-1
 48 57 l 1,9,-1
 48 -31 l 1,10,-1
 178 -31 l 2,11,12
 185 -31 185 -31 193 -24.5 c 128,-1,13
 201 -18 201 -18 201 -1 c 2,14,-1
 201 260 l 2,15,16
 201 284 201 284 214 301.5 c 128,-1,17
 227 319 227 319 247 322 c 1,18,-1
 247 400 l 1,19,20
 237 400 237 400 228.5 406 c 128,-1,21
 220 412 220 412 214 421 c 128,-1,22
 208 430 208 430 204.5 441 c 128,-1,23
 201 452 201 452 201 460 c 2,24,-1
 201 710 l 2,25,26
 201 729 201 729 192.5 734.5 c 128,-1,27
 184 740 184 740 178 740 c 2,28,-1
 48 740 l 1,29,-1
 48 652 l 1,30,-1
 103 652 l 1,0,-1
EndSplineSet
EndChar

StartChar: asciitilde
Encoding: 126 126 97
Width: 548
GlyphClass: 1
Flags: W
LayerCount: 2
Fore
SplineSet
61 233 m 1,0,-1
 123 233 l 1,1,2
 123 234 123 234 125.5 242 c 128,-1,3
 128 250 128 250 135.5 260.5 c 128,-1,4
 143 271 143 271 155.5 279 c 128,-1,5
 168 287 168 287 187 287 c 0,6,7
 207 287 207 287 226 279 c 128,-1,8
 245 271 245 271 265.5 260.5 c 128,-1,9
 286 250 286 250 308.5 241.5 c 128,-1,10
 331 233 331 233 357 233 c 0,11,12
 394 233 394 233 419.5 249.5 c 128,-1,13
 445 266 445 266 460 287.5 c 128,-1,14
 475 309 475 309 481.5 327.5 c 128,-1,15
 488 346 488 346 488 350 c 1,16,-1
 427 350 l 1,17,18
 427 348 427 348 423.5 339.5 c 128,-1,19
 420 331 420 331 412 322 c 128,-1,20
 404 313 404 313 391 305.5 c 128,-1,21
 378 298 378 298 358 298 c 0,22,23
 336 298 336 298 316 307 c 128,-1,24
 296 316 296 316 276 326 c 128,-1,25
 256 336 256 336 234.5 345 c 128,-1,26
 213 354 213 354 188 354 c 0,27,28
 152 354 152 354 128 338 c 128,-1,29
 104 322 104 322 89 301 c 128,-1,30
 74 280 74 280 67.5 260 c 128,-1,31
 61 240 61 240 61 233 c 1,0,-1
EndSplineSet
EndChar

StartChar: exclamdown
Encoding: 161 161 99
Width: 282
GlyphClass: 1
Flags: W
LayerCount: 2
Fore
SplineSet
213 457 m 256,0,1
 213 472 213 472 207.5 485 c 128,-1,2
 202 498 202 498 192 507.5 c 128,-1,3
 182 517 182 517 169 523 c 128,-1,4
 156 529 156 529 141 529 c 256,5,6
 126 529 126 529 113 523 c 128,-1,7
 100 517 100 517 90 507.5 c 128,-1,8
 80 498 80 498 74.5 485 c 128,-1,9
 69 472 69 472 69 457 c 256,10,11
 69 442 69 442 74.5 429 c 128,-1,12
 80 416 80 416 90 406.5 c 128,-1,13
 100 397 100 397 113 391 c 128,-1,14
 126 385 126 385 141 385 c 256,15,16
 156 385 156 385 169 391 c 128,-1,17
 182 397 182 397 192 406.5 c 128,-1,18
 202 416 202 416 207.5 429 c 128,-1,19
 213 442 213 442 213 457 c 256,0,1
107 267 m 1,20,-1
 87 9 l 1,21,-1
 87 -198 l 1,22,-1
 195 -198 l 1,23,-1
 195 9 l 1,24,-1
 175 267 l 1,25,-1
 107 267 l 1,20,-1
EndSplineSet
EndChar

StartChar: cent
Encoding: 162 162 100
Width: 580
GlyphClass: 1
Flags: W
LayerCount: 2
Fore
SplineSet
327 -120 m 1,0,-1
 327 -10 l 1,1,2
 354 -10 354 -10 385.5 -2 c 128,-1,3
 417 6 417 6 447.5 23 c 128,-1,4
 478 40 478 40 503 65 c 128,-1,5
 528 90 528 90 542 123 c 1,6,-1
 436 155 l 1,7,8
 432 141 432 141 420 129 c 128,-1,9
 408 117 408 117 392.5 108 c 128,-1,10
 377 99 377 99 360 93.5 c 128,-1,11
 343 88 343 88 327 85 c 1,12,-1
 327 436 l 1,13,14
 360 434 360 434 388 417 c 128,-1,15
 416 400 416 400 433 369 c 1,16,-1
 538 402 l 1,17,18
 508 462 508 462 453.5 495.5 c 128,-1,19
 399 529 399 529 327 531 c 1,20,-1
 327 645 l 1,21,-1
 276 645 l 1,22,-1
 276 531 l 1,23,24
 220 524 220 524 176 499 c 128,-1,25
 132 474 132 474 102 437.5 c 128,-1,26
 72 401 72 401 56.5 355 c 128,-1,27
 41 309 41 309 41 258 c 0,28,29
 41 210 41 210 58.5 164 c 128,-1,30
 76 118 76 118 107 81 c 128,-1,31
 138 44 138 44 181.5 19.5 c 128,-1,32
 225 -5 225 -5 276 -9 c 1,33,-1
 276 -120 l 1,34,-1
 327 -120 l 1,0,-1
152 258 m 0,35,36
 152 288 152 288 160 317.5 c 128,-1,37
 168 347 168 347 184 370.5 c 128,-1,38
 200 394 200 394 223.5 410.5 c 128,-1,39
 247 427 247 427 276 431 c 1,40,-1
 276 90 l 1,41,42
 249 97 249 97 226 113 c 128,-1,43
 203 129 203 129 186.5 151.5 c 128,-1,44
 170 174 170 174 161 201.5 c 128,-1,45
 152 229 152 229 152 258 c 0,35,36
EndSplineSet
EndChar

StartChar: sterling
Encoding: 163 163 101
Width: 527
GlyphClass: 1
Flags: W
LayerCount: 2
Fore
SplineSet
55 295 m 1,0,-1
 416 295 l 1,1,-1
 416 378 l 1,2,-1
 55 378 l 1,3,-1
 55 295 l 1,0,-1
77 -8 m 1,4,5
 107 1 107 1 139.5 6.5 c 128,-1,6
 172 12 172 12 197 12 c 0,7,8
 221 12 221 12 243.5 7.5 c 128,-1,9
 266 3 266 3 287.5 -2 c 128,-1,10
 309 -7 309 -7 331 -11 c 128,-1,11
 353 -15 353 -15 375 -15 c 0,12,13
 404 -15 404 -15 433 -7.5 c 128,-1,14
 462 0 462 0 488 13 c 1,15,-1
 461 95 l 1,16,17
 437 86 437 86 418.5 82 c 128,-1,18
 400 78 400 78 380 78 c 0,19,20
 363 78 363 78 346.5 81 c 128,-1,21
 330 84 330 84 313.5 87 c 128,-1,22
 297 90 297 90 279.5 92.5 c 128,-1,23
 262 95 262 95 242 95 c 0,24,25
 225 95 225 95 206.5 92.5 c 128,-1,26
 188 90 188 90 168 84 c 1,27,28
 193 111 193 111 210.5 135 c 128,-1,29
 228 159 228 159 239 181 c 128,-1,30
 250 203 250 203 255 225 c 128,-1,31
 260 247 260 247 260 271 c 0,32,33
 260 314 260 314 247 348.5 c 128,-1,34
 234 383 234 383 217.5 414 c 128,-1,35
 201 445 201 445 188 473 c 128,-1,36
 175 501 175 501 175 530 c 0,37,38
 175 551 175 551 182 568.5 c 128,-1,39
 189 586 189 586 202 598.5 c 128,-1,40
 215 611 215 611 233 618.5 c 128,-1,41
 251 626 251 626 271 626 c 0,42,43
 310 626 310 626 348.5 603 c 128,-1,44
 387 580 387 580 412 543 c 1,45,-1
 470 610 l 1,46,47
 436 659 436 659 384 687 c 128,-1,48
 332 715 332 715 273 715 c 0,49,50
 232 715 232 715 196.5 701.5 c 128,-1,51
 161 688 161 688 134 664 c 128,-1,52
 107 640 107 640 91.5 608 c 128,-1,53
 76 576 76 576 76 540 c 256,54,55
 76 504 76 504 90.5 471.5 c 128,-1,56
 105 439 105 439 121.5 406.5 c 128,-1,57
 138 374 138 374 152 339.5 c 128,-1,58
 166 305 166 305 166 266 c 0,59,60
 166 242 166 242 159.5 218.5 c 128,-1,61
 153 195 153 195 139 170.5 c 128,-1,62
 125 146 125 146 103.5 121 c 128,-1,63
 82 96 82 96 52 70 c 1,64,-1
 77 -8 l 1,4,5
EndSplineSet
EndChar

StartChar: currency
Encoding: 164 164 102
Width: 544
GlyphClass: 1
Flags: W
LayerCount: 2
Fore
SplineSet
94 562 m 1,0,-1
 47 515 l 1,1,-1
 117 444 l 1,2,3
 101 421 101 421 93.5 394 c 128,-1,4
 86 367 86 367 86 337 c 256,5,6
 86 307 86 307 94 280 c 128,-1,7
 102 253 102 253 118 230 c 1,8,-1
 47 159 l 1,9,-1
 89 117 l 1,10,-1
 162 186 l 1,11,12
 185 170 185 170 212.5 161.5 c 128,-1,13
 240 153 240 153 272 153 c 0,14,15
 305 153 305 153 332.5 161.5 c 128,-1,16
 360 170 360 170 382 186 c 1,17,-1
 455 117 l 1,18,-1
 497 159 l 1,19,-1
 426 229 l 1,20,21
 442 252 442 252 450.5 279.5 c 128,-1,22
 459 307 459 307 459 337 c 256,23,24
 459 367 459 367 450.5 394.5 c 128,-1,25
 442 422 442 422 427 445 c 1,26,-1
 497 515 l 1,27,-1
 450 562 l 1,28,-1
 380 491 l 1,29,30
 357 506 357 506 330.5 514.5 c 128,-1,31
 304 523 304 523 272 523 c 0,32,33
 241 523 241 523 214 514.5 c 128,-1,34
 187 506 187 506 165 490 c 1,35,-1
 94 562 l 1,0,-1
170 336 m 0,36,37
 170 361 170 361 178 382 c 128,-1,38
 186 403 186 403 199.5 418 c 128,-1,39
 213 433 213 433 232 442 c 128,-1,40
 251 451 251 451 272 451 c 0,41,42
 294 451 294 451 312.5 442.5 c 128,-1,43
 331 434 331 434 345 419 c 128,-1,44
 359 404 359 404 367 383 c 128,-1,45
 375 362 375 362 375 338 c 256,46,47
 375 314 375 314 367 293 c 128,-1,48
 359 272 359 272 345 256.5 c 128,-1,49
 331 241 331 241 312.5 232.5 c 128,-1,50
 294 224 294 224 272 224 c 0,51,52
 251 224 251 224 232 232.5 c 128,-1,53
 213 241 213 241 199.5 256 c 128,-1,54
 186 271 186 271 178 292 c 128,-1,55
 170 313 170 313 170 336 c 0,36,37
EndSplineSet
EndChar

StartChar: yen
Encoding: 165 165 103
Width: 698
GlyphClass: 1
Flags: W
LayerCount: 2
Fore
SplineSet
668 710 m 1,0,-1
 547 710 l 1,1,-1
 347 353 l 1,2,-1
 150 710 l 1,3,-1
 29 710 l 1,4,-1
 221 388 l 1,5,-1
 141 388 l 1,6,-1
 141 316 l 1,7,-1
 259 316 l 1,8,-1
 292 256 l 1,9,-1
 292 225 l 1,10,-1
 141 225 l 1,11,-1
 141 153 l 1,12,-1
 292 153 l 1,13,-1
 292 0 l 1,14,-1
 403 0 l 1,15,-1
 403 153 l 1,16,-1
 555 153 l 1,17,-1
 555 225 l 1,18,-1
 403 225 l 1,19,-1
 403 254 l 1,20,-1
 438 316 l 1,21,-1
 554 316 l 1,22,-1
 554 388 l 1,23,-1
 476 388 l 1,24,-1
 668 710 l 1,0,-1
EndSplineSet
EndChar

StartChar: brokenbar
Encoding: 166 166 104
Width: 257
GlyphClass: 1
Flags: W
LayerCount: 2
Fore
SplineSet
82 269 m 1,0,-1
 82 -130 l 1,1,-1
 175 -130 l 1,2,-1
 175 269 l 1,3,-1
 82 269 l 1,0,-1
82 775 m 1,4,-1
 82 376 l 1,5,-1
 175 376 l 1,6,-1
 175 775 l 1,7,-1
 82 775 l 1,4,-1
EndSplineSet
EndChar

StartChar: section
Encoding: 167 167 105
Width: 524
GlyphClass: 1
Flags: W
LayerCount: 2
Fore
SplineSet
442 207 m 1,0,1
 451 219 451 219 459 241.5 c 128,-1,2
 467 264 467 264 467 293 c 0,3,4
 467 338 467 338 447.5 369 c 128,-1,5
 428 400 428 400 398.5 419 c 128,-1,6
 369 438 369 438 331 447 c 128,-1,7
 293 456 293 456 257 456 c 0,8,9
 235 456 235 456 216.5 460 c 128,-1,10
 198 464 198 464 184.5 473 c 128,-1,11
 171 482 171 482 163 497 c 128,-1,12
 155 512 155 512 155 534 c 0,13,14
 155 554 155 554 163 569 c 128,-1,15
 171 584 171 584 185 595.5 c 128,-1,16
 199 607 199 607 217.5 612.5 c 128,-1,17
 236 618 236 618 257 618 c 0,18,19
 274 618 274 618 290.5 615 c 128,-1,20
 307 612 307 612 321.5 605 c 128,-1,21
 336 598 336 598 348.5 587.5 c 128,-1,22
 361 577 361 577 368 563 c 1,23,-1
 452 602 l 1,24,25
 439 621 439 621 421.5 640.5 c 128,-1,26
 404 660 404 660 379.5 676.5 c 128,-1,27
 355 693 355 693 323 704 c 128,-1,28
 291 715 291 715 250 715 c 256,29,30
 209 715 209 715 172 700.5 c 128,-1,31
 135 686 135 686 107 661.5 c 128,-1,32
 79 637 79 637 62 604 c 128,-1,33
 45 571 45 571 45 532 c 256,34,35
 45 493 45 493 59 463.5 c 128,-1,36
 73 434 73 434 90 420 c 1,37,38
 83 409 83 409 75.5 389 c 128,-1,39
 68 369 68 369 68 341 c 0,40,41
 68 302 68 302 82.5 272 c 128,-1,42
 97 242 97 242 123 220 c 128,-1,43
 149 198 149 198 186.5 185.5 c 128,-1,44
 224 173 224 173 271 169 c 0,45,46
 288 168 288 168 305 165 c 128,-1,47
 322 162 322 162 336.5 155.5 c 128,-1,48
 351 149 351 149 360 135.5 c 128,-1,49
 369 122 369 122 369 100 c 0,50,51
 369 80 369 80 359.5 64 c 128,-1,52
 350 48 350 48 335 37 c 128,-1,53
 320 26 320 26 301 20.5 c 128,-1,54
 282 15 282 15 262 15 c 0,55,56
 226 15 226 15 193 29.5 c 128,-1,57
 160 44 160 44 127 77 c 1,58,-1
 57 11 l 1,59,60
 71 -4 71 -4 91 -21.5 c 128,-1,61
 111 -39 111 -39 137.5 -53.5 c 128,-1,62
 164 -68 164 -68 196.5 -78 c 128,-1,63
 229 -88 229 -88 267 -88 c 0,64,65
 301 -88 301 -88 338.5 -77 c 128,-1,66
 376 -66 376 -66 407.5 -43 c 128,-1,67
 439 -20 439 -20 460 16.5 c 128,-1,68
 481 53 481 53 481 104 c 0,69,70
 481 142 481 142 470.5 167.5 c 128,-1,71
 460 193 460 193 442 207 c 1,0,1
174 327 m 0,72,73
 174 342 174 342 179.5 356.5 c 128,-1,74
 185 371 185 371 193 379 c 1,75,76
 205 375 205 375 223 371.5 c 128,-1,77
 241 368 241 368 261 368 c 0,78,79
 277 368 277 368 295.5 364 c 128,-1,80
 314 360 314 360 328.5 351.5 c 128,-1,81
 343 343 343 343 353 328 c 128,-1,82
 363 313 363 313 363 290 c 0,83,84
 363 275 363 275 357 259.5 c 128,-1,85
 351 244 351 244 341 235 c 1,86,87
 328 241 328 241 310.5 242.5 c 128,-1,88
 293 244 293 244 274.5 246.5 c 128,-1,89
 256 249 256 249 238 252.5 c 128,-1,90
 220 256 220 256 205.5 264.5 c 128,-1,91
 191 273 191 273 182.5 288 c 128,-1,92
 174 303 174 303 174 327 c 0,72,73
EndSplineSet
EndChar

StartChar: copyright
Encoding: 169 169 107
Width: 838
GlyphClass: 1
Flags: W
LayerCount: 2
Fore
SplineSet
417 -7 m 256,0,1
 497 -7 497 -7 566.5 20.5 c 128,-1,2
 636 48 636 48 686.5 96.5 c 128,-1,3
 737 145 737 145 765 211 c 128,-1,4
 793 277 793 277 793 355 c 0,5,6
 793 432 793 432 765 498 c 128,-1,7
 737 564 737 564 686.5 612 c 128,-1,8
 636 660 636 660 566.5 687.5 c 128,-1,9
 497 715 497 715 417 715 c 256,10,11
 337 715 337 715 268.5 687.5 c 128,-1,12
 200 660 200 660 150.5 612 c 128,-1,13
 101 564 101 564 73 498 c 128,-1,14
 45 432 45 432 45 355 c 0,15,16
 45 277 45 277 73 211 c 128,-1,17
 101 145 101 145 150.5 96.5 c 128,-1,18
 200 48 200 48 268.5 20.5 c 128,-1,19
 337 -7 337 -7 417 -7 c 256,0,1
417 41 m 0,20,21
 348 41 348 41 289 65 c 128,-1,22
 230 89 230 89 187.5 131.5 c 128,-1,23
 145 174 145 174 120.5 231 c 128,-1,24
 96 288 96 288 96 354 c 0,25,26
 96 421 96 421 120.5 477.5 c 128,-1,27
 145 534 145 534 188 576.5 c 128,-1,28
 231 619 231 619 289.5 643 c 128,-1,29
 348 667 348 667 417 667 c 256,30,31
 486 667 486 667 546 643 c 128,-1,32
 606 619 606 619 649.5 576.5 c 128,-1,33
 693 534 693 534 717.5 477 c 128,-1,34
 742 420 742 420 742 353 c 0,35,36
 742 284 742 284 717 226.5 c 128,-1,37
 692 169 692 169 648 128 c 128,-1,38
 604 87 604 87 544.5 64 c 128,-1,39
 485 41 485 41 417 41 c 0,20,21
425 121 m 0,40,41
 465 121 465 121 499 131.5 c 128,-1,42
 533 142 533 142 560 160 c 128,-1,43
 587 178 587 178 606 200 c 128,-1,44
 625 222 625 222 634 244 c 1,45,-1
 530 276 l 1,46,47
 523 261 523 261 511.5 249.5 c 128,-1,48
 500 238 500 238 485 229.5 c 128,-1,49
 470 221 470 221 454 216.5 c 128,-1,50
 438 212 438 212 422 212 c 0,51,52
 399 212 399 212 376 221.5 c 128,-1,53
 353 231 353 231 334 249 c 128,-1,54
 315 267 315 267 303 294 c 128,-1,55
 291 321 291 321 291 355 c 0,56,57
 291 383 291 383 299.5 408.5 c 128,-1,58
 308 434 308 434 324.5 454 c 128,-1,59
 341 474 341 474 365 486 c 128,-1,60
 389 498 389 498 421 498 c 0,61,62
 434 498 434 498 449 495 c 128,-1,63
 464 492 464 492 478 485 c 128,-1,64
 492 478 492 478 504.5 466.5 c 128,-1,65
 517 455 517 455 526 437 c 1,66,-1
 629 469 l 1,67,68
 604 526 604 526 549.5 558 c 128,-1,69
 495 590 495 590 421 590 c 0,70,71
 361 590 361 590 316 569.5 c 128,-1,72
 271 549 271 549 241.5 516 c 128,-1,73
 212 483 212 483 197 441 c 128,-1,74
 182 399 182 399 182 355 c 0,75,76
 182 304 182 304 200.5 261 c 128,-1,77
 219 218 219 218 251.5 187 c 128,-1,78
 284 156 284 156 328.5 138.5 c 128,-1,79
 373 121 373 121 425 121 c 0,40,41
EndSplineSet
EndChar

StartChar: ordfeminine
Encoding: 170 170 108
Width: 441
GlyphClass: 1
Flags: W
LayerCount: 2
Fore
SplineSet
163 342 m 0,0,1
 203 342 203 342 237 358.5 c 128,-1,2
 271 375 271 375 296 407 c 1,3,-1
 297 349 l 1,4,-1
 366 349 l 1,5,-1
 366 565 l 2,6,7
 366 637 366 637 324 674.5 c 128,-1,8
 282 712 282 712 208 712 c 0,9,10
 169 712 169 712 133 700.5 c 128,-1,11
 97 689 97 689 62 666 c 1,12,-1
 88 613 l 1,13,14
 118 633 118 633 145 643.5 c 128,-1,15
 172 654 172 654 200 654 c 0,16,17
 241 654 241 654 262 633 c 128,-1,18
 283 612 283 612 283 575 c 2,19,-1
 283 553 l 1,20,21
 264 560 264 560 240.5 564.5 c 128,-1,22
 217 569 217 569 193 569 c 0,23,24
 127 569 127 569 85 537 c 128,-1,25
 43 505 43 505 43 454 c 0,26,27
 43 430 43 430 52 409.5 c 128,-1,28
 61 389 61 389 77.5 374 c 128,-1,29
 94 359 94 359 116 350.5 c 128,-1,30
 138 342 138 342 163 342 c 0,0,1
187 403 m 0,31,32
 159 403 159 403 140 420 c 128,-1,33
 121 437 121 437 121 461 c 0,34,35
 121 488 121 488 145 504 c 128,-1,36
 169 520 169 520 207 520 c 0,37,38
 226 520 226 520 246 517 c 128,-1,39
 266 514 266 514 283 506 c 1,40,-1
 283 462 l 2,41,42
 283 456 283 456 280 449 c 128,-1,43
 277 442 277 442 269 436 c 0,44,45
 257 422 257 422 234.5 412.5 c 128,-1,46
 212 403 212 403 187 403 c 0,31,32
EndSplineSet
EndChar

StartChar: guillemotleft
Encoding: 171 171 109
Width: 619
GlyphClass: 1
Flags: W
LayerCount: 2
Fore
SplineSet
38 229 m 1,0,-1
 296 54 l 1,1,-1
 296 144 l 1,2,-1
 125 259 l 1,3,-1
 296 378 l 1,4,-1
 296 468 l 1,5,-1
 38 284 l 1,6,-1
 38 229 l 1,0,-1
302 229 m 1,7,-1
 560 54 l 1,8,-1
 560 144 l 1,9,-1
 388 259 l 1,10,-1
 560 378 l 1,11,-1
 560 468 l 1,12,-1
 302 284 l 1,13,-1
 302 229 l 1,7,-1
EndSplineSet
EndChar

StartChar: logicalnot
Encoding: 172 172 110
Width: 600
GlyphClass: 1
Flags: W
LayerCount: 2
Fore
SplineSet
63 386 m 1,0,-1
 63 288 l 1,1,-1
 440 288 l 1,2,-1
 440 114 l 1,3,-1
 532 114 l 1,4,-1
 532 386 l 1,5,-1
 63 386 l 1,0,-1
EndSplineSet
EndChar

StartChar: uni00AD
Encoding: 173 173 111
Width: 591
GlyphClass: 1
Flags: W
LayerCount: 2
Fore
SplineSet
530 225 m 1,0,-1
 530 323 l 1,1,-1
 61 323 l 1,2,-1
 61 225 l 1,3,-1
 530 225 l 1,0,-1
EndSplineSet
EndChar

StartChar: registered
Encoding: 174 174 112
Width: 838
GlyphClass: 1
Flags: W
LayerCount: 2
Fore
SplineSet
418 -7 m 0,0,1
 498 -7 498 -7 567 20.5 c 128,-1,2
 636 48 636 48 686.5 96.5 c 128,-1,3
 737 145 737 145 765 211 c 128,-1,4
 793 277 793 277 793 355 c 0,5,6
 793 432 793 432 765 498 c 128,-1,7
 737 564 737 564 686.5 612 c 128,-1,8
 636 660 636 660 567 687.5 c 128,-1,9
 498 715 498 715 418 715 c 0,10,11
 337 715 337 715 269 687.5 c 128,-1,12
 201 660 201 660 151 612 c 128,-1,13
 101 564 101 564 73 498 c 128,-1,14
 45 432 45 432 45 355 c 0,15,16
 45 277 45 277 73 211 c 128,-1,17
 101 145 101 145 151 96.5 c 128,-1,18
 201 48 201 48 269 20.5 c 128,-1,19
 337 -7 337 -7 418 -7 c 0,0,1
418 40 m 0,20,21
 348 40 348 40 289.5 64.5 c 128,-1,22
 231 89 231 89 188.5 131.5 c 128,-1,23
 146 174 146 174 122 231.5 c 128,-1,24
 98 289 98 289 98 355 c 256,25,26
 98 421 98 421 122 477.5 c 128,-1,27
 146 534 146 534 188.5 576.5 c 128,-1,28
 231 619 231 619 289.5 643 c 128,-1,29
 348 667 348 667 418 667 c 256,30,31
 488 667 488 667 546.5 643 c 128,-1,32
 605 619 605 619 648 576.5 c 128,-1,33
 691 534 691 534 715.5 477 c 128,-1,34
 740 420 740 420 740 354 c 0,35,36
 740 285 740 285 715 227.5 c 128,-1,37
 690 170 690 170 647 128.5 c 128,-1,38
 604 87 604 87 545 63.5 c 128,-1,39
 486 40 486 40 418 40 c 0,20,21
260 133 m 1,40,-1
 338 133 l 1,41,-1
 338 289 l 1,42,-1
 423 289 l 1,43,-1
 520 133 l 1,44,-1
 608 133 l 1,45,-1
 502 302 l 1,46,47
 521 308 521 308 538 321 c 128,-1,48
 555 334 555 334 566.5 351 c 128,-1,49
 578 368 578 368 584.5 389 c 128,-1,50
 591 410 591 410 591 432 c 0,51,52
 591 459 591 459 581 485 c 128,-1,53
 571 511 571 511 552.5 531.5 c 128,-1,54
 534 552 534 552 509 565 c 128,-1,55
 484 578 484 578 453 578 c 2,56,-1
 260 578 l 1,57,-1
 260 133 l 1,40,-1
338 355 m 1,58,-1
 338 509 l 1,59,-1
 445 509 l 2,60,61
 460 509 460 509 472 503.5 c 128,-1,62
 484 498 484 498 493.5 488 c 128,-1,63
 503 478 503 478 508.5 464 c 128,-1,64
 514 450 514 450 514 432 c 0,65,66
 514 415 514 415 509.5 401 c 128,-1,67
 505 387 505 387 496.5 377 c 128,-1,68
 488 367 488 367 476 361 c 128,-1,69
 464 355 464 355 448 355 c 2,70,-1
 338 355 l 1,58,-1
EndSplineSet
EndChar

StartChar: degree
Encoding: 176 176 114
Width: 278
GlyphClass: 1
Flags: W
LayerCount: 2
Fore
SplineSet
44 632 m 0,0,1
 44 589 44 589 71 561.5 c 128,-1,2
 98 534 98 534 139 534 c 256,3,4
 180 534 180 534 207 561 c 128,-1,5
 234 588 234 588 234 632 c 0,6,7
 234 671 234 671 207 697.5 c 128,-1,8
 180 724 180 724 139 724 c 256,9,10
 98 724 98 724 71 697.5 c 128,-1,11
 44 671 44 671 44 632 c 0,0,1
110 657 m 0,12,13
 116 663 116 663 123 666 c 128,-1,14
 130 669 130 669 139 669 c 0,15,16
 146 669 146 669 154 666 c 128,-1,17
 162 663 162 663 167 657 c 0,18,19
 172 652 172 652 175.5 645 c 128,-1,20
 179 638 179 638 179 629 c 0,21,22
 179 622 179 622 175.5 614 c 128,-1,23
 172 606 172 606 167 601 c 256,24,25
 162 596 162 596 154 592.5 c 128,-1,26
 146 589 146 589 139 589 c 0,27,28
 130 589 130 589 123 592.5 c 128,-1,29
 116 596 116 596 110 601 c 0,30,31
 105 606 105 606 102 613.5 c 128,-1,32
 99 621 99 621 99 629 c 0,33,34
 99 638 99 638 102 645 c 128,-1,35
 105 652 105 652 110 657 c 0,12,13
EndSplineSet
EndChar

StartChar: plusminus
Encoding: 177 177 115
Width: 469
GlyphClass: 1
Flags: W
LayerCount: 2
Fore
SplineSet
405 41 m 1,0,-1
 405 129 l 1,1,-1
 63 129 l 1,2,-1
 63 41 l 1,3,-1
 405 41 l 1,0,-1
283 416 m 1,4,-1
 283 547 l 1,5,-1
 185 547 l 1,6,-1
 185 416 l 1,7,-1
 64 416 l 1,8,-1
 64 328 l 1,9,-1
 185 328 l 1,10,-1
 185 196 l 1,11,-1
 283 196 l 1,12,-1
 283 328 l 1,13,-1
 405 328 l 1,14,-1
 405 416 l 1,15,-1
 283 416 l 1,4,-1
EndSplineSet
EndChar

StartChar: twosuperior
Encoding: 178 178 116
Width: 405
GlyphClass: 1
Flags: W
LayerCount: 2
Fore
SplineSet
364 395 m 1,0,-1
 364 460 l 1,1,-1
 122 460 l 1,2,3
 122 472 122 472 129 485.5 c 128,-1,4
 136 499 136 499 150 511 c 128,-1,5
 164 523 164 523 185 534.5 c 128,-1,6
 206 546 206 546 234 555 c 0,7,8
 254 561 254 561 277.5 570 c 128,-1,9
 301 579 301 579 321.5 594.5 c 128,-1,10
 342 610 342 610 356 632.5 c 128,-1,11
 370 655 370 655 370 687 c 0,12,13
 370 715 370 715 360 738 c 128,-1,14
 350 761 350 761 330 778 c 128,-1,15
 310 795 310 795 280.5 804 c 128,-1,16
 251 813 251 813 212 813 c 0,17,18
 176 813 176 813 146 805.5 c 128,-1,19
 116 798 116 798 93.5 787.5 c 128,-1,20
 71 777 71 777 56.5 765 c 128,-1,21
 42 753 42 753 36 745 c 1,22,-1
 78 697 l 1,23,24
 87 706 87 706 98.5 715.5 c 128,-1,25
 110 725 110 725 126 733 c 128,-1,26
 142 741 142 741 161 745.5 c 128,-1,27
 180 750 180 750 203 750 c 0,28,29
 248 750 248 750 272 732 c 128,-1,30
 296 714 296 714 296 686 c 0,31,32
 296 665 296 665 283.5 650 c 128,-1,33
 271 635 271 635 251.5 624 c 128,-1,34
 232 613 232 613 207.5 604 c 128,-1,35
 183 595 183 595 161 586 c 0,36,37
 126 572 126 572 101.5 555 c 128,-1,38
 77 538 77 538 62 515.5 c 128,-1,39
 47 493 47 493 39.5 463.5 c 128,-1,40
 32 434 32 434 32 395 c 1,41,-1
 364 395 l 1,0,-1
EndSplineSet
EndChar

StartChar: threesuperior
Encoding: 179 179 117
Width: 400
GlyphClass: 1
Flags: W
LayerCount: 2
Fore
SplineSet
192 389 m 0,0,1
 226 389 226 389 257 396.5 c 128,-1,2
 288 404 288 404 312 418 c 128,-1,3
 336 432 336 432 350 454 c 128,-1,4
 364 476 364 476 364 505 c 0,5,6
 364 545 364 545 337.5 574.5 c 128,-1,7
 311 604 311 604 264 611 c 1,8,9
 307 620 307 620 330 642 c 128,-1,10
 353 664 353 664 353 699 c 0,11,12
 353 724 353 724 341 744.5 c 128,-1,13
 329 765 329 765 307.5 780.5 c 128,-1,14
 286 796 286 796 256 804.5 c 128,-1,15
 226 813 226 813 191 813 c 0,16,17
 167 813 167 813 143 809 c 128,-1,18
 119 805 119 805 98 797.5 c 128,-1,19
 77 790 77 790 60 778.5 c 128,-1,20
 43 767 43 767 32 752 c 1,21,-1
 75 701 l 1,22,23
 91 724 91 724 119.5 738.5 c 128,-1,24
 148 753 148 753 189 753 c 0,25,26
 207 753 207 753 223.5 749 c 128,-1,27
 240 745 240 745 252.5 738 c 128,-1,28
 265 731 265 731 273 720 c 128,-1,29
 281 709 281 709 281 695 c 0,30,31
 281 665 281 665 248 651.5 c 128,-1,32
 215 638 215 638 154 638 c 2,33,-1
 131 638 l 1,34,-1
 131 578 l 1,35,-1
 154 578 l 2,36,37
 222 578 222 578 258.5 562 c 128,-1,38
 295 546 295 546 295 515 c 0,39,40
 295 486 295 486 264.5 470.5 c 128,-1,41
 234 455 234 455 190 455 c 0,42,43
 165 455 165 455 143.5 460.5 c 128,-1,44
 122 466 122 466 106 475.5 c 128,-1,45
 90 485 90 485 80.5 496 c 128,-1,46
 71 507 71 507 67 517 c 1,47,-1
 30 472 l 1,48,49
 42 433 42 433 86 411 c 128,-1,50
 130 389 130 389 192 389 c 0,0,1
EndSplineSet
EndChar

StartChar: uni00B5
Encoding: 181 181 119
Width: 644
GlyphClass: 1
Flags: W
LayerCount: 2
Fore
SplineSet
77 -212 m 1,0,-1
 186 -212 l 1,1,-1
 179 59 l 1,2,3
 184 46 184 46 192.5 33.5 c 128,-1,4
 201 21 201 21 213.5 11.5 c 128,-1,5
 226 2 226 2 243.5 -4 c 128,-1,6
 261 -10 261 -10 282 -10 c 0,7,8
 311 -10 311 -10 338 0 c 128,-1,9
 365 10 365 10 388 26.5 c 128,-1,10
 411 43 411 43 429.5 64 c 128,-1,11
 448 85 448 85 458 106 c 1,12,-1
 469 0 l 1,13,-1
 551 0 l 1,14,-1
 551 523 l 1,15,-1
 443 523 l 1,16,-1
 443 197 l 1,17,18
 431 169 431 169 414 148 c 128,-1,19
 397 127 397 127 377 112.5 c 128,-1,20
 357 98 357 98 334 90.5 c 128,-1,21
 311 83 311 83 289 83 c 0,22,23
 237 83 237 83 211.5 118.5 c 128,-1,24
 186 154 186 154 186 225 c 2,25,-1
 186 523 l 1,26,-1
 77 523 l 1,27,-1
 77 -212 l 1,0,-1
EndSplineSet
EndChar

StartChar: paragraph
Encoding: 182 182 120
Width: 635
GlyphClass: 1
Flags: W
LayerCount: 2
Fore
SplineSet
35 461 m 0,0,1
 35 406 35 406 52 360.5 c 128,-1,2
 69 315 69 315 100 283.5 c 128,-1,3
 131 252 131 252 176 235 c 128,-1,4
 221 218 221 218 275 217 c 1,5,-1
 275 -80 l 1,6,-1
 368 -80 l 1,7,-1
 368 217 l 1,8,-1
 428 217 l 1,9,-1
 428 -80 l 1,10,-1
 521 -80 l 1,11,-1
 521 628 l 1,12,-1
 591 628 l 1,13,-1
 591 710 l 1,14,-1
 317 710 l 2,15,16
 183 710 183 710 109 644.5 c 128,-1,17
 35 579 35 579 35 461 c 0,0,1
126 464 m 0,18,19
 126 537 126 537 164.5 581 c 128,-1,20
 203 625 203 625 275 628 c 1,21,-1
 275 299 l 1,22,23
 244 301 244 301 217.5 312.5 c 128,-1,24
 191 324 191 324 170.5 344.5 c 128,-1,25
 150 365 150 365 138 394.5 c 128,-1,26
 126 424 126 424 126 464 c 0,18,19
428 299 m 1,27,-1
 368 299 l 1,28,-1
 368 628 l 1,29,-1
 428 628 l 1,30,-1
 428 299 l 1,27,-1
EndSplineSet
EndChar

StartChar: onesuperior
Encoding: 185 185 123
Width: 288
GlyphClass: 1
Flags: W
LayerCount: 2
Fore
SplineSet
195 461 m 1,0,-1
 195 813 l 1,1,-1
 128 813 l 1,2,3
 128 812 128 812 119 803 c 128,-1,4
 110 794 110 794 96 784 c 128,-1,5
 82 774 82 774 65.5 765 c 128,-1,6
 49 756 49 756 33 756 c 1,7,-1
 33 691 l 1,8,9
 45 691 45 691 59.5 696.5 c 128,-1,10
 74 702 74 702 87.5 709.5 c 128,-1,11
 101 717 101 717 112 725.5 c 128,-1,12
 123 734 123 734 128 740 c 1,13,-1
 128 461 l 1,14,-1
 49 461 l 1,15,-1
 49 396 l 1,16,-1
 267 396 l 1,17,-1
 267 461 l 1,18,-1
 195 461 l 1,0,-1
EndSplineSet
EndChar

StartChar: ordmasculine
Encoding: 186 186 124
Width: 446
GlyphClass: 1
Flags: W
LayerCount: 2
Fore
SplineSet
223 342 m 256,0,1
 265 342 265 342 299 357 c 128,-1,2
 333 372 333 372 357 397.5 c 128,-1,3
 381 423 381 423 394 456.5 c 128,-1,4
 407 490 407 490 407 526 c 0,5,6
 407 564 407 564 394 597.5 c 128,-1,7
 381 631 381 631 357 656.5 c 128,-1,8
 333 682 333 682 299 697 c 128,-1,9
 265 712 265 712 223 712 c 256,10,11
 181 712 181 712 147 697 c 128,-1,12
 113 682 113 682 89 656.5 c 128,-1,13
 65 631 65 631 52 597.5 c 128,-1,14
 39 564 39 564 39 526 c 0,15,16
 39 490 39 490 52 456.5 c 128,-1,17
 65 423 65 423 89 397.5 c 128,-1,18
 113 372 113 372 147 357 c 128,-1,19
 181 342 181 342 223 342 c 256,0,1
123 526 m 256,20,21
 123 550 123 550 131 571 c 128,-1,22
 139 592 139 592 152.5 607 c 128,-1,23
 166 622 166 622 184 631 c 128,-1,24
 202 640 202 640 223 640 c 256,25,26
 244 640 244 640 262 631.5 c 128,-1,27
 280 623 280 623 293.5 608 c 128,-1,28
 307 593 307 593 315 572.5 c 128,-1,29
 323 552 323 552 323 527 c 0,30,31
 323 503 323 503 315 482 c 128,-1,32
 307 461 307 461 293.5 445.5 c 128,-1,33
 280 430 280 430 262 421.5 c 128,-1,34
 244 413 244 413 223 413 c 256,35,36
 202 413 202 413 184 421.5 c 128,-1,37
 166 430 166 430 152.5 445 c 128,-1,38
 139 460 139 460 131 481 c 128,-1,39
 123 502 123 502 123 526 c 256,20,21
EndSplineSet
EndChar

StartChar: guillemotright
Encoding: 187 187 125
Width: 619
GlyphClass: 1
Flags: W
LayerCount: 2
Fore
SplineSet
581 284 m 1,0,-1
 324 468 l 1,1,-1
 324 378 l 1,2,-1
 495 259 l 1,3,-1
 324 144 l 1,4,-1
 324 54 l 1,5,-1
 581 229 l 1,6,-1
 581 284 l 1,0,-1
318 284 m 1,7,-1
 60 468 l 1,8,-1
 60 378 l 1,9,-1
 231 259 l 1,10,-1
 60 144 l 1,11,-1
 60 54 l 1,12,-1
 318 229 l 1,13,-1
 318 284 l 1,7,-1
EndSplineSet
EndChar

StartChar: onehalf
Encoding: 189 189 127
Width: 869
GlyphClass: 1
Flags: W
LayerCount: 2
Fore
SplineSet
195 379 m 1,0,-1
 195 731 l 1,1,-1
 128 731 l 1,2,3
 128 730 128 730 119 721 c 128,-1,4
 110 712 110 712 96 702 c 128,-1,5
 82 692 82 692 65.5 683 c 128,-1,6
 49 674 49 674 33 674 c 1,7,-1
 33 609 l 1,8,9
 45 609 45 609 59.5 614.5 c 128,-1,10
 74 620 74 620 87.5 627.5 c 128,-1,11
 101 635 101 635 112 643.5 c 128,-1,12
 123 652 123 652 128 658 c 1,13,-1
 128 379 l 1,14,-1
 49 379 l 1,15,-1
 49 314 l 1,16,-1
 267 314 l 1,17,-1
 267 379 l 1,18,-1
 195 379 l 1,0,-1
131 -6 m 1,19,-1
 401 342 l 1,20,-1
 677 672 l 1,21,-1
 626 716 l 1,22,-1
 361 373 l 1,23,-1
 81 39 l 1,24,-1
 131 -6 l 1,19,-1
831 0 m 1,25,-1
 831 65 l 1,26,-1
 590 65 l 1,27,28
 590 77 590 77 597 90 c 128,-1,29
 604 103 604 103 617.5 115.5 c 128,-1,30
 631 128 631 128 651.5 139.5 c 128,-1,31
 672 151 672 151 699 160 c 0,32,33
 719 166 719 166 741.5 175 c 128,-1,34
 764 184 764 184 783.5 199 c 128,-1,35
 803 214 803 214 816.5 236.5 c 128,-1,36
 830 259 830 259 830 291 c 0,37,38
 830 319 830 319 820.5 342.5 c 128,-1,39
 811 366 811 366 791.5 383 c 128,-1,40
 772 400 772 400 743.5 409 c 128,-1,41
 715 418 715 418 677 418 c 0,42,43
 642 418 642 418 612.5 410.5 c 128,-1,44
 583 403 583 403 561.5 392.5 c 128,-1,45
 540 382 540 382 526 370 c 128,-1,46
 512 358 512 358 506 349 c 1,47,-1
 547 301 l 1,48,49
 555 311 555 311 566.5 320.5 c 128,-1,50
 578 330 578 330 593.5 337.5 c 128,-1,51
 609 345 609 345 627.5 350 c 128,-1,52
 646 355 646 355 668 355 c 0,53,54
 712 355 712 355 735 337 c 128,-1,55
 758 319 758 319 758 290 c 0,56,57
 758 269 758 269 746 254 c 128,-1,58
 734 239 734 239 714.5 228 c 128,-1,59
 695 217 695 217 672 208.5 c 128,-1,60
 649 200 649 200 627 191 c 0,61,62
 594 177 594 177 570 160 c 128,-1,63
 546 143 546 143 531 120.5 c 128,-1,64
 516 98 516 98 509 68.5 c 128,-1,65
 502 39 502 39 502 0 c 1,66,-1
 831 0 l 1,25,-1
EndSplineSet
EndChar

StartChar: questiondown
Encoding: 191 191 129
Width: 476
GlyphClass: 1
Flags: W
LayerCount: 2
Fore
SplineSet
254 285 m 1,0,1
 254 256 254 256 244.5 236 c 128,-1,2
 235 216 235 216 220.5 201.5 c 128,-1,3
 206 187 206 187 187 176 c 128,-1,4
 168 165 168 165 149 154 c 0,5,6
 124 139 124 139 102.5 123.5 c 128,-1,7
 81 108 81 108 65.5 88.5 c 128,-1,8
 50 69 50 69 41 43 c 128,-1,9
 32 17 32 17 32 -19 c 0,10,11
 32 -69 32 -69 49.5 -105.5 c 128,-1,12
 67 -142 67 -142 95.5 -166 c 128,-1,13
 124 -190 124 -190 161 -201.5 c 128,-1,14
 198 -213 198 -213 235 -213 c 0,15,16
 268 -213 268 -213 300 -204.5 c 128,-1,17
 332 -196 332 -196 359.5 -179.5 c 128,-1,18
 387 -163 387 -163 409 -139 c 128,-1,19
 431 -115 431 -115 444 -84 c 1,20,-1
 373 -36 l 1,21,22
 363 -52 363 -52 350 -68 c 128,-1,23
 337 -84 337 -84 320 -96.5 c 128,-1,24
 303 -109 303 -109 282 -116.5 c 128,-1,25
 261 -124 261 -124 238 -124 c 0,26,27
 216 -124 216 -124 196.5 -117.5 c 128,-1,28
 177 -111 177 -111 161.5 -98 c 128,-1,29
 146 -85 146 -85 136.5 -66 c 128,-1,30
 127 -47 127 -47 127 -22 c 0,31,32
 127 9 127 9 142 32.5 c 128,-1,33
 157 56 157 56 177.5 72.5 c 128,-1,34
 198 89 198 89 221 101.5 c 128,-1,35
 244 114 244 114 261 125 c 0,36,37
 285 140 285 140 301 157 c 128,-1,38
 317 174 317 174 326.5 194 c 128,-1,39
 336 214 336 214 340 237 c 128,-1,40
 344 260 344 260 344 285 c 1,41,-1
 254 285 l 1,0,1
361 452 m 0,42,43
 361 479 361 479 342 497.5 c 128,-1,44
 323 516 323 516 297 516 c 256,45,46
 271 516 271 516 252 497.5 c 128,-1,47
 233 479 233 479 233 452 c 0,48,49
 233 426 233 426 252 407.5 c 128,-1,50
 271 389 271 389 297 389 c 256,51,52
 323 389 323 389 342 407.5 c 128,-1,53
 361 426 361 426 361 452 c 0,42,43
EndSplineSet
EndChar

StartChar: AE
Encoding: 198 198 136
Width: 963
GlyphClass: 1
Flags: W
LayerCount: 2
Fore
SplineSet
-25 0 m 1,0,-1
 94 0 l 1,1,-1
 213 194 l 1,2,-1
 453 194 l 1,3,-1
 453 0 l 1,4,-1
 928 0 l 1,5,-1
 928 98 l 1,6,-1
 563 98 l 1,7,-1
 563 313 l 1,8,-1
 865 313 l 1,9,-1
 865 411 l 1,10,-1
 563 411 l 1,11,-1
 563 612 l 1,12,-1
 919 612 l 1,13,-1
 919 710 l 1,14,-1
 423 710 l 1,15,-1
 -25 0 l 1,0,-1
262 292 m 1,16,-1
 445 583 l 1,17,-1
 445 292 l 1,18,-1
 262 292 l 1,16,-1
EndSplineSet
EndChar

StartChar: Idieresis
Encoding: 207 207 145
Width: 271
GlyphClass: 1
Flags: W
LayerCount: 2
Fore
SplineSet
191 0 m 1,0,-1
 191 710 l 1,1,-1
 80 710 l 1,2,-1
 80 0 l 1,3,-1
 191 0 l 1,0,-1
11 857 m 0,4,5
 11 830 11 830 26 811.5 c 128,-1,6
 41 793 41 793 63 793 c 0,7,8
 84 793 84 793 99.5 811.5 c 128,-1,9
 115 830 115 830 115 857 c 0,10,11
 115 883 115 883 99.5 901.5 c 128,-1,12
 84 920 84 920 63 920 c 0,13,14
 41 920 41 920 26 901.5 c 128,-1,15
 11 883 11 883 11 857 c 0,4,5
156 857 m 0,16,17
 156 830 156 830 171 811.5 c 128,-1,18
 186 793 186 793 208 793 c 0,19,20
 229 793 229 793 244 811.5 c 128,-1,21
 259 830 259 830 259 857 c 0,22,23
 259 883 259 883 244 901.5 c 128,-1,24
 229 920 229 920 208 920 c 0,25,26
 186 920 186 920 171 901.5 c 128,-1,27
 156 883 156 883 156 857 c 0,16,17
EndSplineSet
EndChar

StartChar: Eth
Encoding: 208 208 146
Width: 722
GlyphClass: 1
Flags: W
LayerCount: 2
Fore
SplineSet
348 316 m 1,0,-1
 348 398 l 1,1,-1
 33 398 l 1,2,-1
 33 316 l 1,3,-1
 348 316 l 1,0,-1
337 0 m 2,4,5
 416 0 416 0 480 25.5 c 128,-1,6
 544 51 544 51 589.5 97.5 c 128,-1,7
 635 144 635 144 659 209.5 c 128,-1,8
 683 275 683 275 683 356 c 0,9,10
 683 430 683 430 661.5 494.5 c 128,-1,11
 640 559 640 559 596.5 607 c 128,-1,12
 553 655 553 655 488.5 682.5 c 128,-1,13
 424 710 424 710 337 710 c 2,14,-1
 86 710 l 1,15,-1
 86 0 l 1,16,-1
 337 0 l 2,4,5
571 356 m 0,17,18
 571 301 571 301 555.5 253.5 c 128,-1,19
 540 206 540 206 511 171.5 c 128,-1,20
 482 137 482 137 438 117.5 c 128,-1,21
 394 98 394 98 337 98 c 2,22,-1
 197 98 l 1,23,-1
 197 612 l 1,24,-1
 337 612 l 2,25,26
 393 612 393 612 436.5 593 c 128,-1,27
 480 574 480 574 510 540.5 c 128,-1,28
 540 507 540 507 555.5 459.5 c 128,-1,29
 571 412 571 412 571 356 c 0,17,18
EndSplineSet
EndChar

StartChar: multiply
Encoding: 215 215 153
Width: 470
GlyphClass: 1
Flags: W
LayerCount: 2
Fore
SplineSet
303 274 m 1,0,-1
 409 381 l 1,1,-1
 342 450 l 1,2,-1
 235 342 l 1,3,-1
 128 449 l 1,4,-1
 60 381 l 1,5,-1
 166 274 l 1,6,-1
 57 165 l 1,7,-1
 124 96 l 1,8,-1
 235 206 l 1,9,-1
 345 96 l 1,10,-1
 413 164 l 1,11,-1
 303 274 l 1,0,-1
EndSplineSet
EndChar

StartChar: Thorn
Encoding: 222 222 160
Width: 604
GlyphClass: 1
Flags: W
LayerCount: 2
Fore
SplineSet
361 577 m 2,0,-1
 191 577 l 1,1,-1
 191 710 l 1,2,-1
 80 710 l 1,3,-1
 80 0 l 1,4,-1
 191 0 l 1,5,-1
 191 115 l 1,6,-1
 367 115 l 2,7,8
 415 115 415 115 454.5 134 c 128,-1,9
 494 153 494 153 522 185 c 128,-1,10
 550 217 550 217 565.5 259 c 128,-1,11
 581 301 581 301 581 346 c 0,12,13
 581 389 581 389 564.5 430 c 128,-1,14
 548 471 548 471 519 504 c 128,-1,15
 490 537 490 537 449.5 557 c 128,-1,16
 409 577 409 577 361 577 c 2,0,-1
361 213 m 2,17,-1
 191 213 l 1,18,-1
 191 479 l 1,19,-1
 356 479 l 2,20,21
 378 479 378 479 399 468.5 c 128,-1,22
 420 458 420 458 435.5 440 c 128,-1,23
 451 422 451 422 460.5 398 c 128,-1,24
 470 374 470 374 470 346 c 0,25,26
 470 319 470 319 462 295 c 128,-1,27
 454 271 454 271 440 253 c 128,-1,28
 426 235 426 235 406 224 c 128,-1,29
 386 213 386 213 361 213 c 2,17,-1
EndSplineSet
EndChar

StartChar: germandbls
Encoding: 223 223 161
Width: 555
GlyphClass: 1
Flags: W
LayerCount: 2
Fore
SplineSet
244 -6 m 1,0,1
 302 -4 302 -4 353 9.5 c 128,-1,2
 404 23 404 23 442 49 c 128,-1,3
 480 75 480 75 501.5 115 c 128,-1,4
 523 155 523 155 523 209 c 0,5,6
 523 281 523 281 485 333.5 c 128,-1,7
 447 386 447 386 378 402 c 1,8,9
 397 408 397 408 414 422 c 128,-1,10
 431 436 431 436 444 456.5 c 128,-1,11
 457 477 457 477 464.5 501 c 128,-1,12
 472 525 472 525 472 552 c 0,13,14
 472 588 472 588 457.5 618 c 128,-1,15
 443 648 443 648 417 669.5 c 128,-1,16
 391 691 391 691 356 702.5 c 128,-1,17
 321 714 321 714 280 714 c 0,18,19
 234 714 234 714 195 699.5 c 128,-1,20
 156 685 156 685 127.5 659.5 c 128,-1,21
 99 634 99 634 82.5 598.5 c 128,-1,22
 66 563 66 563 66 519 c 2,23,-1
 66 0 l 1,24,-1
 170 0 l 1,25,-1
 170 501 l 2,26,27
 170 524 170 524 175.5 545 c 128,-1,28
 181 566 181 566 194 583.5 c 128,-1,29
 207 601 207 601 226.5 611 c 128,-1,30
 246 621 246 621 274 621 c 0,31,32
 291 621 291 621 308 616 c 128,-1,33
 325 611 325 611 338.5 601 c 128,-1,34
 352 591 352 591 360.5 574.5 c 128,-1,35
 369 558 369 558 369 534 c 0,36,37
 369 514 369 514 362 497.5 c 128,-1,38
 355 481 355 481 343 469 c 128,-1,39
 331 457 331 457 313.5 450.5 c 128,-1,40
 296 444 296 444 275 444 c 2,41,-1
 256 444 l 1,42,-1
 256 346 l 1,43,-1
 276 346 l 2,44,45
 305 346 305 346 329 337.5 c 128,-1,46
 353 329 353 329 371.5 312.5 c 128,-1,47
 390 296 390 296 400 272.5 c 128,-1,48
 410 249 410 249 410 219 c 0,49,50
 410 187 410 187 398 163.5 c 128,-1,51
 386 140 386 140 363.5 124.5 c 128,-1,52
 341 109 341 109 310.5 101.5 c 128,-1,53
 280 94 280 94 244 94 c 1,54,-1
 244 -6 l 1,0,1
EndSplineSet
EndChar

StartChar: ae
Encoding: 230 230 168
Width: 935
GlyphClass: 1
Flags: W
LayerCount: 2
Fore
SplineSet
204 -10 m 0,0,1
 232 -10 232 -10 263 -3.5 c 128,-1,2
 294 3 294 3 323.5 16 c 128,-1,3
 353 29 353 29 379 50 c 128,-1,4
 405 71 405 71 422 101 c 1,5,6
 457 51 457 51 513.5 20.5 c 128,-1,7
 570 -10 570 -10 643 -10 c 0,8,9
 684 -10 684 -10 721 0 c 128,-1,10
 758 10 758 10 788 28 c 128,-1,11
 818 46 818 46 841 70.5 c 128,-1,12
 864 95 864 95 878 124 c 1,13,-1
 785 150 l 1,14,15
 778 133 778 133 763.5 117.5 c 128,-1,16
 749 102 749 102 730.5 92 c 128,-1,17
 712 82 712 82 690.5 76 c 128,-1,18
 669 70 669 70 647 70 c 0,19,20
 615 70 615 70 585.5 81.5 c 128,-1,21
 556 93 556 93 533.5 113 c 128,-1,22
 511 133 511 133 496.5 161.5 c 128,-1,23
 482 190 482 190 480 226 c 1,24,-1
 908 226 l 1,25,26
 909 232 909 232 909.5 243 c 128,-1,27
 910 254 910 254 910 261 c 0,28,29
 910 316 910 316 891 365 c 128,-1,30
 872 414 872 414 837 451.5 c 128,-1,31
 802 489 802 489 752 510.5 c 128,-1,32
 702 532 702 532 641 532 c 256,33,34
 580 532 580 532 531.5 508.5 c 128,-1,35
 483 485 483 485 450 446 c 1,36,37
 423 487 423 487 377 509.5 c 128,-1,38
 331 532 331 532 268 532 c 0,39,40
 214 532 214 532 162 515 c 128,-1,41
 110 498 110 498 58 464 c 1,42,-1
 92 395 l 1,43,44
 136 425 136 425 176.5 440 c 128,-1,45
 217 455 217 455 258 455 c 0,46,47
 314 455 314 455 345.5 429 c 128,-1,48
 377 403 377 403 384 355 c 1,49,50
 379 343 379 343 376.5 328 c 128,-1,51
 374 313 374 313 373 299 c 1,52,53
 346 308 346 308 314 313.5 c 128,-1,54
 282 319 282 319 248 319 c 0,55,56
 200 319 200 319 159.5 307 c 128,-1,57
 119 295 119 295 89.5 273 c 128,-1,58
 60 251 60 251 44 221 c 128,-1,59
 28 191 28 191 28 154 c 0,60,61
 28 120 28 120 41.5 89.5 c 128,-1,62
 55 59 55 59 78.5 37 c 128,-1,63
 102 15 102 15 134 2.5 c 128,-1,64
 166 -10 166 -10 204 -10 c 0,0,1
234 70 m 0,65,66
 212 70 212 70 193 77 c 128,-1,67
 174 84 174 84 160 96.5 c 128,-1,68
 146 109 146 109 138 126 c 128,-1,69
 130 143 130 143 130 163 c 0,70,71
 130 184 130 184 140 201 c 128,-1,72
 150 218 150 218 168 230 c 128,-1,73
 186 242 186 242 211 249 c 128,-1,74
 236 256 236 256 265 256 c 0,75,76
 292 256 292 256 320 251 c 128,-1,77
 348 246 348 246 373 238 c 1,78,79
 374 221 374 221 377.5 198.5 c 128,-1,80
 381 176 381 176 387 161 c 1,81,82
 386 152 386 152 381 142.5 c 128,-1,83
 376 133 376 133 367 125 c 0,84,85
 347 100 347 100 311 85 c 128,-1,86
 275 70 275 70 234 70 c 0,65,66
478 294 m 1,87,88
 480 329 480 329 493 358 c 128,-1,89
 506 387 506 387 527.5 408 c 128,-1,90
 549 429 549 429 577.5 440.5 c 128,-1,91
 606 452 606 452 639 452 c 0,92,93
 673 452 673 452 701.5 440.5 c 128,-1,94
 730 429 730 429 751.5 408 c 128,-1,95
 773 387 773 387 786.5 358 c 128,-1,96
 800 329 800 329 802 294 c 1,97,-1
 478 294 l 1,87,88
EndSplineSet
EndChar

StartChar: idieresis
Encoding: 239 239 177
Width: 241
GlyphClass: 1
Flags: W
LayerCount: 2
Fore
SplineSet
175 0 m 1,0,-1
 175 523 l 1,1,-1
 66 523 l 1,2,-1
 66 0 l 1,3,-1
 175 0 l 1,0,-1
4 669 m 0,4,5
 4 643 4 643 18.5 624.5 c 128,-1,6
 33 606 33 606 53 606 c 256,7,8
 73 606 73 606 87.5 624.5 c 128,-1,9
 102 643 102 643 102 669 c 0,10,11
 102 696 102 696 87.5 714.5 c 128,-1,12
 73 733 73 733 53 733 c 256,13,14
 33 733 33 733 18.5 714.5 c 128,-1,15
 4 696 4 696 4 669 c 0,4,5
139 669 m 0,16,17
 139 643 139 643 153 624.5 c 128,-1,18
 167 606 167 606 187 606 c 0,19,20
 208 606 208 606 222 624.5 c 128,-1,21
 236 643 236 643 236 669 c 0,22,23
 236 696 236 696 222 714.5 c 128,-1,24
 208 733 208 733 187 733 c 0,25,26
 167 733 167 733 153 714.5 c 128,-1,27
 139 696 139 696 139 669 c 0,16,17
EndSplineSet
EndChar

StartChar: eth
Encoding: 240 240 178
Width: 609
GlyphClass: 1
Flags: W
LayerCount: 2
Fore
SplineSet
572 290 m 0,0,1
 572 344 572 344 558 404.5 c 128,-1,2
 544 465 544 465 512.5 524 c 128,-1,3
 481 583 481 583 430.5 636.5 c 128,-1,4
 380 690 380 690 308 730 c 1,5,-1
 163 730 l 1,6,7
 239 689 239 689 291.5 647 c 128,-1,8
 344 605 344 605 379 561.5 c 128,-1,9
 414 518 414 518 433 472.5 c 128,-1,10
 452 427 452 427 461 379 c 1,11,12
 448 401 448 401 428.5 418 c 128,-1,13
 409 435 409 435 385 447 c 128,-1,14
 361 459 361 459 334 466 c 128,-1,15
 307 473 307 473 278 473 c 0,16,17
 228 473 228 473 183.5 454 c 128,-1,18
 139 435 139 435 106 402 c 128,-1,19
 73 369 73 369 54.5 325.5 c 128,-1,20
 36 282 36 282 36 233 c 0,21,22
 36 182 36 182 56.5 137.5 c 128,-1,23
 77 93 77 93 112.5 60.5 c 128,-1,24
 148 28 148 28 196.5 9 c 128,-1,25
 245 -10 245 -10 300 -10 c 0,26,27
 356 -10 356 -10 406 10.5 c 128,-1,28
 456 31 456 31 493 70 c 128,-1,29
 530 109 530 109 551 164.5 c 128,-1,30
 572 220 572 220 572 290 c 0,0,1
147 233 m 0,31,32
 147 265 147 265 159 292.5 c 128,-1,33
 171 320 171 320 192 341 c 128,-1,34
 213 362 213 362 242 373.5 c 128,-1,35
 271 385 271 385 305 385 c 0,36,37
 338 385 338 385 366.5 373.5 c 128,-1,38
 395 362 395 362 416 342.5 c 128,-1,39
 437 323 437 323 449 296.5 c 128,-1,40
 461 270 461 270 461 238 c 256,41,42
 461 206 461 206 449 178 c 128,-1,43
 437 150 437 150 415.5 129 c 128,-1,44
 394 108 394 108 365 95.5 c 128,-1,45
 336 83 336 83 302 83 c 0,46,47
 269 83 269 83 241 94.5 c 128,-1,48
 213 106 213 106 192 126.5 c 128,-1,49
 171 147 171 147 159 174.5 c 128,-1,50
 147 202 147 202 147 233 c 0,31,32
482 713 m 1,51,-1
 370 647 l 1,52,-1
 339 638 l 1,53,-1
 224 571 l 1,54,-1
 256 528 l 1,55,-1
 373 596 l 1,56,-1
 407 607 l 1,57,-1
 514 669 l 1,58,-1
 482 713 l 1,51,-1
EndSplineSet
EndChar

StartChar: divide
Encoding: 247 247 185
Width: 523
GlyphClass: 1
Flags: W
LayerCount: 2
Fore
SplineSet
463 248 m 1,0,-1
 463 335 l 1,1,-1
 60 335 l 1,2,-1
 60 248 l 1,3,-1
 463 248 l 1,0,-1
198 108 m 0,4,5
 198 82 198 82 216.5 63.5 c 128,-1,6
 235 45 235 45 262 45 c 0,7,8
 288 45 288 45 306.5 63.5 c 128,-1,9
 325 82 325 82 325 108 c 0,10,11
 325 135 325 135 306.5 153.5 c 128,-1,12
 288 172 288 172 262 172 c 0,13,14
 235 172 235 172 216.5 153.5 c 128,-1,15
 198 135 198 135 198 108 c 0,4,5
199 476 m 0,16,17
 199 449 199 449 217.5 430 c 128,-1,18
 236 411 236 411 262 411 c 0,19,20
 289 411 289 411 307.5 430 c 128,-1,21
 326 449 326 449 326 476 c 0,22,23
 326 502 326 502 307.5 520.5 c 128,-1,24
 289 539 289 539 262 539 c 0,25,26
 236 539 236 539 217.5 520.5 c 128,-1,27
 199 502 199 502 199 476 c 0,16,17
EndSplineSet
EndChar

StartChar: oslash
Encoding: 248 248 186
Width: 602
GlyphClass: 1
Flags: W
LayerCount: 2
Fore
SplineSet
301 -10 m 0,0,1
 362 -10 362 -10 411.5 12 c 128,-1,2
 461 34 461 34 496.5 71 c 128,-1,3
 532 108 532 108 550.5 157.5 c 128,-1,4
 569 207 569 207 569 261 c 256,5,6
 569 315 569 315 550 364.5 c 128,-1,7
 531 414 531 414 496 451 c 128,-1,8
 461 488 461 488 411.5 510 c 128,-1,9
 362 532 362 532 301 532 c 256,10,11
 240 532 240 532 190.5 510 c 128,-1,12
 141 488 141 488 106 451 c 128,-1,13
 71 414 71 414 52 364.5 c 128,-1,14
 33 315 33 315 33 261 c 256,15,16
 33 207 33 207 51.5 157.5 c 128,-1,17
 70 108 70 108 105 71 c 128,-1,18
 140 34 140 34 189.5 12 c 128,-1,19
 239 -10 239 -10 301 -10 c 0,0,1
301 83 m 0,20,21
 268 83 268 83 239.5 96.5 c 128,-1,22
 211 110 211 110 189.5 133.5 c 128,-1,23
 168 157 168 157 156 189.5 c 128,-1,24
 144 222 144 222 144 260 c 256,25,26
 144 298 144 298 156 330.5 c 128,-1,27
 168 363 168 363 189.5 387 c 128,-1,28
 211 411 211 411 239.5 425 c 128,-1,29
 268 439 268 439 301 439 c 0,30,31
 333 439 333 439 362 425.5 c 128,-1,32
 391 412 391 412 412.5 388 c 128,-1,33
 434 364 434 364 446 331.5 c 128,-1,34
 458 299 458 299 458 261 c 256,35,36
 458 223 458 223 446 190.5 c 128,-1,37
 434 158 434 158 412.5 134 c 128,-1,38
 391 110 391 110 362 96.5 c 128,-1,39
 333 83 333 83 301 83 c 0,20,21
135 -3 m 1,40,-1
 197 72 l 1,41,-1
 143 107 l 1,42,-1
 55 -3 l 1,43,-1
 135 -3 l 1,40,-1
452 422 m 1,44,-1
 397 448 l 1,45,-1
 157 112 l 1,46,-1
 206 81 l 1,47,-1
 452 422 l 1,44,-1
544 526 m 1,48,-1
 463 526 l 1,49,-1
 406 456 l 1,50,-1
 466 428 l 1,51,-1
 544 526 l 1,48,-1
EndSplineSet
EndChar

StartChar: thorn
Encoding: 254 254 192
Width: 602
GlyphClass: 1
Flags: W
LayerCount: 2
Fore
SplineSet
571 257 m 0,0,1
 571 307 571 307 553.5 356.5 c 128,-1,2
 536 406 536 406 503 446.5 c 128,-1,3
 470 487 470 487 423.5 511.5 c 128,-1,4
 377 536 377 536 319 536 c 0,5,6
 264 536 264 536 230.5 513.5 c 128,-1,7
 197 491 197 491 177 464 c 1,8,-1
 177 710 l 1,9,-1
 66 710 l 1,10,-1
 66 -213 l 1,11,-1
 177 -213 l 1,12,-1
 177 45 l 1,13,14
 185 33 185 33 197.5 21 c 128,-1,15
 210 9 210 9 227 0 c 128,-1,16
 244 -9 244 -9 265 -15 c 128,-1,17
 286 -21 286 -21 310 -21 c 0,18,19
 364 -21 364 -21 411 2 c 128,-1,20
 458 25 458 25 493.5 63 c 128,-1,21
 529 101 529 101 549.5 151.5 c 128,-1,22
 570 202 570 202 571 257 c 0,0,1
460 258 m 256,23,24
 460 222 460 222 448.5 189.5 c 128,-1,25
 437 157 437 157 417 132 c 128,-1,26
 397 107 397 107 369 92 c 128,-1,27
 341 77 341 77 307 77 c 0,28,29
 286 77 286 77 263 85.5 c 128,-1,30
 240 94 240 94 221 108 c 128,-1,31
 202 122 202 122 189.5 139 c 128,-1,32
 177 156 177 156 177 174 c 2,33,-1
 177 341 l 1,34,35
 187 360 187 360 201 378 c 128,-1,36
 215 396 215 396 231.5 409 c 128,-1,37
 248 422 248 422 268.5 430 c 128,-1,38
 289 438 289 438 313 438 c 0,39,40
 346 438 346 438 373.5 423.5 c 128,-1,41
 401 409 401 409 420 384 c 128,-1,42
 439 359 439 359 449.5 326.5 c 128,-1,43
 460 294 460 294 460 258 c 256,23,24
EndSplineSet
EndChar

StartChar: Dcroat
Encoding: 272 272 210
Width: 722
GlyphClass: 1
Flags: W
LayerCount: 2
Fore
SplineSet
348 316 m 1,0,-1
 348 398 l 1,1,-1
 33 398 l 1,2,-1
 33 316 l 1,3,-1
 348 316 l 1,0,-1
337 0 m 2,4,5
 416 0 416 0 480 25.5 c 128,-1,6
 544 51 544 51 589.5 97.5 c 128,-1,7
 635 144 635 144 659 209.5 c 128,-1,8
 683 275 683 275 683 356 c 0,9,10
 683 430 683 430 661.5 494.5 c 128,-1,11
 640 559 640 559 596.5 607 c 128,-1,12
 553 655 553 655 488.5 682.5 c 128,-1,13
 424 710 424 710 337 710 c 2,14,-1
 86 710 l 1,15,-1
 86 0 l 1,16,-1
 337 0 l 2,4,5
571 356 m 0,17,18
 571 301 571 301 555.5 253.5 c 128,-1,19
 540 206 540 206 511 171.5 c 128,-1,20
 482 137 482 137 438 117.5 c 128,-1,21
 394 98 394 98 337 98 c 2,22,-1
 197 98 l 1,23,-1
 197 612 l 1,24,-1
 337 612 l 2,25,26
 393 612 393 612 436.5 593 c 128,-1,27
 480 574 480 574 510 540.5 c 128,-1,28
 540 507 540 507 555.5 459.5 c 128,-1,29
 571 412 571 412 571 356 c 0,17,18
EndSplineSet
EndChar

StartChar: dcroat
Encoding: 273 273 211
Width: 636
GlyphClass: 1
Flags: W
LayerCount: 2
Fore
SplineSet
628 605 m 1,0,-1
 628 671 l 1,1,-1
 348 671 l 1,2,-1
 348 605 l 1,3,-1
 628 605 l 1,0,-1
562 0 m 1,4,-1
 562 730 l 1,5,-1
 454 730 l 1,6,-1
 454 424 l 1,7,8
 440 447 440 447 420.5 467 c 128,-1,9
 401 487 401 487 377 501 c 128,-1,10
 353 515 353 515 326 523.5 c 128,-1,11
 299 532 299 532 268 532 c 0,12,13
 217 532 217 532 174.5 510.5 c 128,-1,14
 132 489 132 489 100.5 452.5 c 128,-1,15
 69 416 69 416 51.5 366.5 c 128,-1,16
 34 317 34 317 34 261 c 0,17,18
 34 206 34 206 52.5 156.5 c 128,-1,19
 71 107 71 107 104 70 c 128,-1,20
 137 33 137 33 182.5 11.5 c 128,-1,21
 228 -10 228 -10 282 -10 c 0,22,23
 338 -10 338 -10 382 16 c 128,-1,24
 426 42 426 42 454 87 c 1,25,-1
 454 0 l 1,26,-1
 562 0 l 1,4,-1
454 187 m 1,27,28
 449 165 449 165 434 146 c 128,-1,29
 419 127 419 127 398.5 113 c 128,-1,30
 378 99 378 99 354.5 91 c 128,-1,31
 331 83 331 83 309 83 c 0,32,33
 275 83 275 83 245 97 c 128,-1,34
 215 111 215 111 193 134.5 c 128,-1,35
 171 158 171 158 158.5 190.5 c 128,-1,36
 146 223 146 223 146 259 c 0,37,38
 146 294 146 294 157 326.5 c 128,-1,39
 168 359 168 359 188.5 384 c 128,-1,40
 209 409 209 409 237.5 424 c 128,-1,41
 266 439 266 439 301 439 c 0,42,43
 324 439 324 439 347.5 430.5 c 128,-1,44
 371 422 371 422 391.5 406.5 c 128,-1,45
 412 391 412 391 428.5 370.5 c 128,-1,46
 445 350 445 350 454 326 c 1,47,-1
 454 187 l 1,27,28
EndSplineSet
EndChar

StartChar: Hbar
Encoding: 294 294 232
Width: 752
GlyphClass: 1
Flags: W
LayerCount: 2
Fore
SplineSet
717 531 m 1,0,-1
 717 601 l 1,1,-1
 35 601 l 1,2,-1
 35 531 l 1,3,-1
 717 531 l 1,0,-1
556 710 m 1,4,-1
 556 412 l 1,5,-1
 196 412 l 1,6,-1
 196 710 l 1,7,-1
 85 710 l 1,8,-1
 85 0 l 1,9,-1
 196 0 l 1,10,-1
 196 314 l 1,11,-1
 556 314 l 1,12,-1
 556 0 l 1,13,-1
 667 0 l 1,14,-1
 667 710 l 1,15,-1
 556 710 l 1,4,-1
EndSplineSet
EndChar

StartChar: hbar
Encoding: 295 295 233
Width: 596
GlyphClass: 1
Flags: W
LayerCount: 2
Fore
SplineSet
295 605 m 1,0,-1
 295 671 l 1,1,-1
 16 671 l 1,2,-1
 16 605 l 1,3,-1
 295 605 l 1,0,-1
535 319 m 2,4,5
 535 362 535 362 527 400.5 c 128,-1,6
 519 439 519 439 500.5 468 c 128,-1,7
 482 497 482 497 450 514.5 c 128,-1,8
 418 532 418 532 370 532 c 0,9,10
 308 532 308 532 256.5 502 c 128,-1,11
 205 472 205 472 175 418 c 1,12,-1
 175 730 l 1,13,-1
 66 730 l 1,14,-1
 66 0 l 1,15,-1
 175 0 l 1,16,-1
 175 311 l 1,17,18
 183 338 183 338 199.5 361 c 128,-1,19
 216 384 216 384 236.5 400.5 c 128,-1,20
 257 417 257 417 280 426.5 c 128,-1,21
 303 436 303 436 326 436 c 0,22,23
 374 436 374 436 400 400.5 c 128,-1,24
 426 365 426 365 426 293 c 2,25,-1
 426 0 l 1,26,-1
 535 0 l 1,27,-1
 535 319 l 2,4,5
EndSplineSet
EndChar

StartChar: dotlessi
Encoding: 305 305 243
Width: 241
GlyphClass: 1
Flags: W
LayerCount: 2
Fore
SplineSet
175 0 m 1,0,-1
 175 523 l 1,1,-1
 66 523 l 1,2,-1
 66 0 l 1,3,-1
 175 0 l 1,0,-1
EndSplineSet
EndChar

StartChar: kgreenlandic
Encoding: 312 312 248
Width: 548
GlyphClass: 1
Flags: W
LayerCount: 2
Fore
SplineSet
546 0 m 1,0,-1
 332 303 l 1,1,-1
 535 522 l 1,2,-1
 417 522 l 1,3,-1
 175 266 l 1,4,-1
 175 523 l 1,5,-1
 66 523 l 1,6,-1
 66 0 l 1,7,-1
 175 0 l 1,8,-1
 175 159 l 1,9,-1
 262 242 l 1,10,-1
 430 0 l 1,11,-1
 546 0 l 1,0,-1
EndSplineSet
EndChar

StartChar: Lslash
Encoding: 321 321 257
Width: 592
GlyphClass: 1
Flags: W
LayerCount: 2
Fore
SplineSet
356 464 m 1,0,-1
 327 524 l 1,1,-1
 5 297 l 1,2,-1
 34 237 l 1,3,-1
 356 464 l 1,0,-1
580 0 m 1,4,-1
 580 98 l 1,5,-1
 199 98 l 1,6,-1
 199 710 l 1,7,-1
 88 710 l 1,8,-1
 88 0 l 1,9,-1
 580 0 l 1,4,-1
EndSplineSet
EndChar

StartChar: lslash
Encoding: 322 322 258
Width: 324
GlyphClass: 1
Flags: W
LayerCount: 2
Fore
SplineSet
315 464 m 1,0,-1
 285 523 l 1,1,-1
 4 336 l 1,2,-1
 34 277 l 1,3,-1
 315 464 l 1,0,-1
90 111 m 2,4,5
 90 54 90 54 121.5 23 c 128,-1,6
 153 -8 153 -8 209 -8 c 0,7,8
 235 -8 235 -8 267.5 -1 c 128,-1,9
 300 6 300 6 325 16 c 1,10,-1
 309 102 l 1,11,12
 296 96 296 96 278 91.5 c 128,-1,13
 260 87 260 87 241 87 c 0,14,15
 231 87 231 87 223 89 c 128,-1,16
 215 91 215 91 209.5 98 c 128,-1,17
 204 105 204 105 201 117 c 128,-1,18
 198 129 198 129 198 150 c 2,19,-1
 198 730 l 1,20,-1
 90 730 l 1,21,-1
 90 111 l 2,4,5
EndSplineSet
EndChar

StartChar: Eng
Encoding: 330 330 265
Width: 757
GlyphClass: 1
Flags: W
LayerCount: 2
Fore
SplineSet
568 21 m 1,0,-1
 568 -19 l 2,1,2
 568 -35 568 -35 562 -49.5 c 128,-1,3
 556 -64 556 -64 545 -74 c 128,-1,4
 534 -84 534 -84 520 -90 c 128,-1,5
 506 -96 506 -96 492 -96 c 0,6,7
 475 -96 475 -96 458 -90.5 c 128,-1,8
 441 -85 441 -85 428 -73 c 1,9,-1
 380 -146 l 1,10,11
 405 -169 405 -169 437 -180 c 128,-1,12
 469 -191 469 -191 505 -191 c 0,13,14
 539 -191 539 -191 569.5 -178 c 128,-1,15
 600 -165 600 -165 624 -142 c 128,-1,16
 648 -119 648 -119 662 -86.5 c 128,-1,17
 676 -54 676 -54 676 -15 c 2,18,-1
 676 709 l 1,19,-1
 565 709 l 1,20,-1
 565 201 l 1,21,-1
 165 710 l 1,22,-1
 80 710 l 1,23,-1
 80 0 l 1,24,-1
 191 0 l 1,25,-1
 191 501 l 1,26,-1
 568 21 l 1,0,-1
EndSplineSet
EndChar

StartChar: eng
Encoding: 331 331 266
Width: 596
GlyphClass: 1
Flags: W
LayerCount: 2
Fore
SplineSet
364 -191 m 0,0,1
 398 -191 398 -191 429 -177.5 c 128,-1,2
 460 -164 460 -164 483.5 -140 c 128,-1,3
 507 -116 507 -116 520.5 -83.5 c 128,-1,4
 534 -51 534 -51 534 -11 c 2,5,-1
 534 319 l 2,6,7
 534 362 534 362 527.5 401 c 128,-1,8
 521 440 521 440 503 469 c 128,-1,9
 485 498 485 498 455 515 c 128,-1,10
 425 532 425 532 378 532 c 0,11,12
 344 532 344 532 312 524 c 128,-1,13
 280 516 280 516 252 501 c 128,-1,14
 224 486 224 486 201.5 464.5 c 128,-1,15
 179 443 179 443 165 418 c 1,16,-1
 165 523 l 1,17,-1
 66 523 l 1,18,-1
 66 0 l 1,19,-1
 175 0 l 1,20,-1
 175 311 l 1,21,22
 183 338 183 338 199.5 361 c 128,-1,23
 216 384 216 384 238 400.5 c 128,-1,24
 260 417 260 417 284 426.5 c 128,-1,25
 308 436 308 436 332 436 c 0,26,27
 378 436 378 436 402 402 c 128,-1,28
 426 368 426 368 426 293 c 2,29,-1
 426 -19 l 2,30,31
 426 -35 426 -35 420 -49.5 c 128,-1,32
 414 -64 414 -64 403.5 -74 c 128,-1,33
 393 -84 393 -84 379 -90 c 128,-1,34
 365 -96 365 -96 351 -96 c 0,35,36
 334 -96 334 -96 316.5 -90.5 c 128,-1,37
 299 -85 299 -85 286 -73 c 1,38,-1
 238 -146 l 1,39,40
 263 -169 263 -169 295 -180 c 128,-1,41
 327 -191 327 -191 364 -191 c 0,0,1
EndSplineSet
EndChar

StartChar: OE
Encoding: 338 338 273
Width: 1111
GlyphClass: 1
Flags: W
LayerCount: 2
Fore
SplineSet
710 98 m 1,0,-1
 710 313 l 1,1,-1
 1012 313 l 1,2,-1
 1012 411 l 1,3,-1
 710 411 l 1,4,-1
 710 612 l 1,5,-1
 1066 612 l 1,6,-1
 1066 710 l 1,7,-1
 599 710 l 1,8,-1
 599 576 l 1,9,10
 583 606 583 606 559.5 631 c 128,-1,11
 536 656 536 656 507.5 675 c 128,-1,12
 479 694 479 694 445 704.5 c 128,-1,13
 411 715 411 715 373 715 c 0,14,15
 300 715 300 715 238.5 685.5 c 128,-1,16
 177 656 177 656 132 606 c 128,-1,17
 87 556 87 556 61.5 491 c 128,-1,18
 36 426 36 426 36 355 c 0,19,20
 36 287 36 287 60.5 222 c 128,-1,21
 85 157 85 157 129 106.5 c 128,-1,22
 173 56 173 56 234.5 25.5 c 128,-1,23
 296 -5 296 -5 371 -5 c 0,24,25
 408 -5 408 -5 442 5.5 c 128,-1,26
 476 16 476 16 505.5 34.5 c 128,-1,27
 535 53 535 53 558.5 79 c 128,-1,28
 582 105 582 105 599 134 c 1,29,-1
 599 0 l 1,30,-1
 1075 0 l 1,31,-1
 1075 98 l 1,32,-1
 710 98 l 1,0,-1
372 94 m 0,33,34
 321 94 321 94 279.5 115.5 c 128,-1,35
 238 137 238 137 208.5 173.5 c 128,-1,36
 179 210 179 210 163.5 257 c 128,-1,37
 148 304 148 304 148 355 c 0,38,39
 148 403 148 403 163.5 450 c 128,-1,40
 179 497 179 497 207.5 534 c 128,-1,41
 236 571 236 571 277.5 593.5 c 128,-1,42
 319 616 319 616 372 616 c 0,43,44
 422 616 422 616 463 594.5 c 128,-1,45
 504 573 504 573 533.5 536.5 c 128,-1,46
 563 500 563 500 579 453 c 128,-1,47
 595 406 595 406 595 356 c 0,48,49
 595 307 595 307 580 260 c 128,-1,50
 565 213 565 213 536.5 176 c 128,-1,51
 508 139 508 139 466.5 116.5 c 128,-1,52
 425 94 425 94 372 94 c 0,33,34
EndSplineSet
EndChar

StartChar: oe
Encoding: 339 339 274
Width: 1021
GlyphClass: 1
Flags: W
LayerCount: 2
Fore
SplineSet
299 -10 m 0,0,1
 333 -10 333 -10 363 -1 c 128,-1,2
 393 8 393 8 420 25 c 128,-1,3
 447 42 447 42 470.5 67.5 c 128,-1,4
 494 93 494 93 514 125 c 1,5,6
 534 94 534 94 558.5 68.5 c 128,-1,7
 583 43 583 43 610.5 25.5 c 128,-1,8
 638 8 638 8 669 -1 c 128,-1,9
 700 -10 700 -10 734 -10 c 0,10,11
 773 -10 773 -10 809 -0.5 c 128,-1,12
 845 9 845 9 876 27 c 128,-1,13
 907 45 907 45 931 69.5 c 128,-1,14
 955 94 955 94 969 124 c 1,15,-1
 878 150 l 1,16,17
 872 133 872 133 858 117.5 c 128,-1,18
 844 102 844 102 825.5 91.5 c 128,-1,19
 807 81 807 81 784.5 74.5 c 128,-1,20
 762 68 762 68 739 68 c 0,21,22
 706 68 706 68 677 80 c 128,-1,23
 648 92 648 92 626 113.5 c 128,-1,24
 604 135 604 135 590 164 c 128,-1,25
 576 193 576 193 573 226 c 1,26,-1
 994 226 l 1,27,28
 995 232 995 232 995 243 c 128,-1,29
 995 254 995 254 995 261 c 0,30,31
 993 322 993 322 972.5 371.5 c 128,-1,32
 952 421 952 421 917 457 c 128,-1,33
 882 493 882 493 834 512.5 c 128,-1,34
 786 532 786 532 729 532 c 0,35,36
 656 532 656 532 601.5 496.5 c 128,-1,37
 547 461 547 461 513 393 c 1,38,39
 497 426 497 426 475 452 c 128,-1,40
 453 478 453 478 426 495.5 c 128,-1,41
 399 513 399 513 367 522.5 c 128,-1,42
 335 532 335 532 300 532 c 0,43,44
 243 532 243 532 194 511 c 128,-1,45
 145 490 145 490 109 453.5 c 128,-1,46
 73 417 73 417 53 367.5 c 128,-1,47
 33 318 33 318 33 260 c 256,48,49
 33 202 33 202 53 153 c 128,-1,50
 73 104 73 104 108.5 67.5 c 128,-1,51
 144 31 144 31 193 10.5 c 128,-1,52
 242 -10 242 -10 299 -10 c 0,0,1
301 83 m 256,53,54
 268 83 268 83 239 96 c 128,-1,55
 210 109 210 109 189 133 c 128,-1,56
 168 157 168 157 156 189 c 128,-1,57
 144 221 144 221 144 259 c 256,58,59
 144 297 144 297 156 330 c 128,-1,60
 168 363 168 363 189 387 c 128,-1,61
 210 411 210 411 239 425 c 128,-1,62
 268 439 268 439 301 439 c 256,63,64
 334 439 334 439 363 425.5 c 128,-1,65
 392 412 392 412 413 388 c 128,-1,66
 434 364 434 364 446 331.5 c 128,-1,67
 458 299 458 299 458 261 c 256,68,69
 458 223 458 223 446 190.5 c 128,-1,70
 434 158 434 158 413 134 c 128,-1,71
 392 110 392 110 363 96.5 c 128,-1,72
 334 83 334 83 301 83 c 256,53,54
571 294 m 1,73,74
 573 329 573 329 585.5 358 c 128,-1,75
 598 387 598 387 618.5 408 c 128,-1,76
 639 429 639 429 666.5 440.5 c 128,-1,77
 694 452 694 452 726 452 c 256,78,79
 758 452 758 452 786 440.5 c 128,-1,80
 814 429 814 429 836 408 c 128,-1,81
 858 387 858 387 871.5 358 c 128,-1,82
 885 329 885 329 887 294 c 1,83,-1
 571 294 l 1,73,74
EndSplineSet
EndChar

StartChar: Tbar
Encoding: 358 358 293
Width: 643
GlyphClass: 1
Flags: W
LayerCount: 2
Fore
SplineSet
569 301 m 1,0,-1
 569 371 l 1,1,-1
 74 371 l 1,2,-1
 74 301 l 1,3,-1
 569 301 l 1,0,-1
614 710 m 1,4,-1
 29 710 l 1,5,-1
 29 612 l 1,6,-1
 266 612 l 1,7,-1
 266 0 l 1,8,-1
 377 0 l 1,9,-1
 377 612 l 1,10,-1
 614 612 l 1,11,-1
 614 710 l 1,4,-1
EndSplineSet
EndChar

StartChar: tbar
Encoding: 359 359 294
Width: 367
GlyphClass: 1
Flags: W
LayerCount: 2
Fore
SplineSet
305 263 m 1,0,-1
 305 330 l 1,1,-1
 34 330 l 1,2,-1
 34 263 l 1,3,-1
 305 263 l 1,0,-1
334 113 m 1,4,5
 329 110 329 110 321 106.5 c 128,-1,6
 313 103 313 103 303 99.5 c 128,-1,7
 293 96 293 96 281.5 94 c 128,-1,8
 270 92 270 92 258 92 c 0,9,10
 236 92 236 92 220.5 104.5 c 128,-1,11
 205 117 205 117 203 145 c 2,12,-1
 203 439 l 1,13,-1
 317 439 l 1,14,-1
 317 523 l 1,15,-1
 203 523 l 1,16,-1
 203 695 l 1,17,-1
 95 695 l 1,18,-1
 95 523 l 1,19,-1
 25 523 l 1,20,-1
 25 439 l 1,21,-1
 95 439 l 1,22,-1
 95 110 l 2,23,24
 95 79 95 79 105 57 c 128,-1,25
 115 35 115 35 132 20.5 c 128,-1,26
 149 6 149 6 172 -1 c 128,-1,27
 195 -8 195 -8 221 -8 c 0,28,29
 242 -8 242 -8 262 -4 c 128,-1,30
 282 0 282 0 299.5 5 c 128,-1,31
 317 10 317 10 332 16 c 128,-1,32
 347 22 347 22 357 27 c 1,33,-1
 334 113 l 1,4,5
EndSplineSet
EndChar

StartChar: uni018F
Encoding: 399 399 318
Width: 740
GlyphClass: 1
Flags: W
LayerCount: 2
Fore
SplineSet
366 -5 m 256,0,1
 440 -5 440 -5 502 23.5 c 128,-1,2
 564 52 564 52 609 101.5 c 128,-1,3
 654 151 654 151 679 216.5 c 128,-1,4
 704 282 704 282 704 356 c 0,5,6
 704 428 704 428 679 493 c 128,-1,7
 654 558 654 558 609 607.5 c 128,-1,8
 564 657 564 657 502.5 686 c 128,-1,9
 441 715 441 715 369 715 c 0,10,11
 320 715 320 715 274.5 701.5 c 128,-1,12
 229 688 229 688 189.5 665 c 128,-1,13
 150 642 150 642 118.5 608.5 c 128,-1,14
 87 575 87 575 67 535 c 1,15,-1
 176 492 l 1,16,17
 184 519 184 519 203 541.5 c 128,-1,18
 222 564 222 564 246.5 580 c 128,-1,19
 271 596 271 596 301 605 c 128,-1,20
 331 614 331 614 363 614 c 0,21,22
 405 614 405 614 442.5 598 c 128,-1,23
 480 582 480 582 509.5 553 c 128,-1,24
 539 524 539 524 558.5 484 c 128,-1,25
 578 444 578 444 582 396 c 1,26,-1
 28 396 l 1,27,28
 26 388 26 388 25 374.5 c 128,-1,29
 24 361 24 361 24 347 c 0,30,31
 24 277 24 277 50 213.5 c 128,-1,32
 76 150 76 150 122 101.5 c 128,-1,33
 168 53 168 53 230 24 c 128,-1,34
 292 -5 292 -5 366 -5 c 256,0,1
368 94 m 256,35,36
 324 94 324 94 285 110 c 128,-1,37
 246 126 246 126 215.5 154.5 c 128,-1,38
 185 183 185 183 166.5 221.5 c 128,-1,39
 148 260 148 260 145 305 c 1,40,-1
 583 305 l 1,41,42
 580 259 580 259 562 220 c 128,-1,43
 544 181 544 181 515.5 153 c 128,-1,44
 487 125 487 125 449.5 109.5 c 128,-1,45
 412 94 412 94 368 94 c 256,35,36
EndSplineSet
EndChar

StartChar: florin
Encoding: 402 402 319
Width: 540
GlyphClass: 1
Flags: W
LayerCount: 2
Fore
SplineSet
155 -191 m 256,0,1
 190 -191 190 -191 220.5 -178 c 128,-1,2
 251 -165 251 -165 274.5 -142 c 128,-1,3
 298 -119 298 -119 312 -87 c 128,-1,4
 326 -55 326 -55 326 -16 c 2,5,-1
 326 378 l 1,6,-1
 460 378 l 1,7,-1
 460 462 l 1,8,-1
 326 462 l 1,9,-1
 326 535 l 2,10,11
 326 590 326 590 346.5 619 c 128,-1,12
 367 648 367 648 407 648 c 0,13,14
 426 648 426 648 446.5 642.5 c 128,-1,15
 467 637 467 637 482 628 c 1,16,-1
 506 708 l 1,17,18
 478 723 478 723 446.5 731.5 c 128,-1,19
 415 740 415 740 384 740 c 0,20,21
 346 740 346 740 315.5 725.5 c 128,-1,22
 285 711 285 711 263 684 c 128,-1,23
 241 657 241 657 229.5 618 c 128,-1,24
 218 579 218 579 218 531 c 2,25,-1
 218 462 l 1,26,-1
 148 462 l 1,27,-1
 148 378 l 1,28,-1
 218 378 l 1,29,-1
 218 -19 l 2,30,31
 218 -35 218 -35 212 -49.5 c 128,-1,32
 206 -64 206 -64 195 -74 c 128,-1,33
 184 -84 184 -84 170.5 -90 c 128,-1,34
 157 -96 157 -96 143 -96 c 0,35,36
 125 -96 125 -96 108 -90.5 c 128,-1,37
 91 -85 91 -85 78 -73 c 1,38,-1
 30 -146 l 1,39,40
 55 -169 55 -169 87.5 -180 c 128,-1,41
 120 -191 120 -191 155 -191 c 256,0,1
EndSplineSet
EndChar

StartChar: Aringacute
Encoding: 506 506 328
Width: 675
GlyphClass: 1
Flags: W
LayerCount: 2
Fore
SplineSet
8 0 m 1,0,-1
 124 0 l 1,1,-1
 199 194 l 1,2,-1
 475 194 l 1,3,-1
 551 0 l 1,4,-1
 667 0 l 1,5,-1
 390 710 l 1,6,-1
 286 710 l 1,7,-1
 8 0 l 1,0,-1
219 276 m 1,8,-1
 338 589 l 1,9,-1
 453 276 l 1,10,-1
 219 276 l 1,8,-1
239 766 m 0,11,12
 239 726 239 726 266.5 702.5 c 128,-1,13
 294 679 294 679 338 679 c 256,14,15
 382 679 382 679 409.5 702.5 c 128,-1,16
 437 726 437 726 437 766 c 0,17,18
 437 807 437 807 409.5 831 c 128,-1,19
 382 855 382 855 338 855 c 256,20,21
 294 855 294 855 266.5 831 c 128,-1,22
 239 807 239 807 239 766 c 0,11,12
338 812 m 256,23,24
 357 812 357 812 370.5 800 c 128,-1,25
 384 788 384 788 384 766 c 0,26,27
 384 747 384 747 370.5 734 c 128,-1,28
 357 721 357 721 338 721 c 256,29,30
 319 721 319 721 305.5 734 c 128,-1,31
 292 747 292 747 292 766 c 0,32,33
 292 788 292 788 305.5 800 c 128,-1,34
 319 812 319 812 338 812 c 256,23,24
486 971 m 1,35,-1
 381 971 l 1,36,-1
 306 821 l 1,37,-1
 364 821 l 1,38,-1
 486 971 l 1,35,-1
EndSplineSet
EndChar

StartChar: uni0237
Encoding: 567 567 370
Width: 241
GlyphClass: 1
Flags: W
LayerCount: 2
Fore
SplineSet
4 -191 m 0,0,1
 39 -191 39 -191 69.5 -177.5 c 128,-1,2
 100 -164 100 -164 123.5 -140 c 128,-1,3
 147 -116 147 -116 161 -83.5 c 128,-1,4
 175 -51 175 -51 175 -11 c 2,5,-1
 175 523 l 1,6,-1
 66 523 l 1,7,-1
 66 -19 l 2,8,9
 66 -35 66 -35 60 -49.5 c 128,-1,10
 54 -64 54 -64 43.5 -74 c 128,-1,11
 33 -84 33 -84 19.5 -90 c 128,-1,12
 6 -96 6 -96 -9 -96 c 0,13,14
 -26 -96 -26 -96 -43.5 -90.5 c 128,-1,15
 -61 -85 -61 -85 -73 -73 c 1,16,-1
 -122 -146 l 1,17,18
 -96 -169 -96 -169 -64 -180 c 128,-1,19
 -32 -191 -32 -191 4 -191 c 0,0,1
EndSplineSet
EndChar

StartChar: uni0259
Encoding: 601 601 371
Width: 595
GlyphClass: 1
Flags: W
LayerCount: 2
Fore
SplineSet
294 -10 m 256,0,1
 355 -10 355 -10 404.5 11.5 c 128,-1,2
 454 33 454 33 489 70 c 128,-1,3
 524 107 524 107 543 156 c 128,-1,4
 562 205 562 205 562 260 c 0,5,6
 562 316 562 316 542.5 365 c 128,-1,7
 523 414 523 414 488 451.5 c 128,-1,8
 453 489 453 489 403 510.5 c 128,-1,9
 353 532 353 532 292 532 c 0,10,11
 251 532 251 532 214 522 c 128,-1,12
 177 512 177 512 146.5 494 c 128,-1,13
 116 476 116 476 93 451.5 c 128,-1,14
 70 427 70 427 57 398 c 1,15,-1
 150 372 l 1,16,17
 157 389 157 389 171.5 404 c 128,-1,18
 186 419 186 419 204.5 429 c 128,-1,19
 223 439 223 439 244.5 445 c 128,-1,20
 266 451 266 451 288 451 c 0,21,22
 319 451 319 451 346.5 440 c 128,-1,23
 374 429 374 429 395.5 409 c 128,-1,24
 417 389 417 389 431 360.5 c 128,-1,25
 445 332 445 332 447 296 c 1,26,-1
 27 296 l 1,27,28
 26 290 26 290 25 279 c 128,-1,29
 24 268 24 268 24 261 c 0,30,31
 24 206 24 206 43.5 157 c 128,-1,32
 63 108 63 108 98.5 70.5 c 128,-1,33
 134 33 134 33 183.5 11.5 c 128,-1,34
 233 -10 233 -10 294 -10 c 256,0,1
295 70 m 0,35,36
 264 70 264 70 235.5 81.5 c 128,-1,37
 207 93 207 93 185.5 113.5 c 128,-1,38
 164 134 164 134 150 163 c 128,-1,39
 136 192 136 192 133 227 c 1,40,-1
 450 227 l 1,41,42
 447 193 447 193 434.5 164 c 128,-1,43
 422 135 422 135 401.5 114 c 128,-1,44
 381 93 381 93 354 81.5 c 128,-1,45
 327 70 327 70 295 70 c 0,35,36
EndSplineSet
EndChar

StartChar: uni02BE
Encoding: 702 702 376
Width: 157
GlyphClass: 1
Flags: W
LayerCount: 2
Fore
SplineSet
29 573 m 1,0,1
 73 573 73 573 100.5 597 c 128,-1,2
 128 621 128 621 128 661 c 256,3,4
 128 701 128 701 100.5 725.5 c 128,-1,5
 73 750 73 750 29 750 c 1,6,-1
 29 707 l 1,7,8
 48 707 48 707 61.5 694.5 c 128,-1,9
 75 682 75 682 75 661 c 0,10,11
 75 641 75 641 61 628 c 128,-1,12
 47 615 47 615 29 615 c 1,13,-1
 29 573 l 1,0,1
EndSplineSet
EndChar

StartChar: uni02BF
Encoding: 703 703 377
Width: 157
GlyphClass: 1
Flags: W
LayerCount: 2
Fore
SplineSet
128 615 m 1,0,1
 109 615 109 615 96 628.5 c 128,-1,2
 83 642 83 642 83 661 c 0,3,4
 83 682 83 682 96 694.5 c 128,-1,5
 109 707 109 707 128 707 c 1,6,-1
 128 750 l 1,7,8
 84 750 84 750 56.5 725.5 c 128,-1,9
 29 701 29 701 29 661 c 256,10,11
 29 621 29 621 56.5 597 c 128,-1,12
 84 573 84 573 128 573 c 1,13,-1
 128 615 l 1,0,1
EndSplineSet
EndChar

StartChar: uni02C8
Encoding: 712 712 380
Width: 257
GlyphClass: 1
Flags: W
LayerCount: 2
Fore
SplineSet
82 775 m 1,0,-1
 82 376 l 1,1,-1
 175 376 l 1,2,-1
 175 775 l 1,3,-1
 82 775 l 1,0,-1
EndSplineSet
EndChar

StartChar: uni02C9
Encoding: 713 713 381
Width: 410
GlyphClass: 1
Flags: W
LayerCount: 2
Fore
SplineSet
353 645 m 1,0,-1
 353 714 l 1,1,-1
 58 714 l 1,2,-1
 58 645 l 1,3,-1
 353 645 l 1,0,-1
EndSplineSet
EndChar

StartChar: uni02CA
Encoding: 714 714 382
Width: 221
GlyphClass: 1
Flags: W
LayerCount: 2
Fore
SplineSet
125 500 m 1,0,-1
 157 720 l 1,1,-1
 64 720 l 1,2,-1
 64 500 l 1,3,-1
 125 500 l 1,0,-1
EndSplineSet
EndChar

StartChar: uni02CB
Encoding: 715 715 383
Width: 221
GlyphClass: 1
Flags: W
LayerCount: 2
Fore
SplineSet
157 500 m 1,0,-1
 157 720 l 1,1,-1
 64 720 l 1,2,-1
 96 500 l 1,3,-1
 157 500 l 1,0,-1
EndSplineSet
EndChar

StartChar: uni02CC
Encoding: 716 716 384
Width: 257
GlyphClass: 1
Flags: W
LayerCount: 2
Fore
SplineSet
82 269 m 1,0,-1
 82 -130 l 1,1,-1
 175 -130 l 1,2,-1
 175 269 l 1,3,-1
 82 269 l 1,0,-1
EndSplineSet
EndChar

StartChar: tilde
Encoding: 732 732 389
Width: 425
GlyphClass: 1
Flags: W
LayerCount: 2
Fore
SplineSet
276 616 m 0,0,1
 310 616 310 616 331.5 631.5 c 128,-1,2
 353 647 353 647 366 667 c 128,-1,3
 379 687 379 687 384.5 705 c 128,-1,4
 390 723 390 723 390 730 c 1,5,-1
 328 730 l 1,6,7
 328 729 328 729 326.5 721 c 128,-1,8
 325 713 325 713 319 704 c 128,-1,9
 313 695 313 695 302.5 688 c 128,-1,10
 292 681 292 681 273 681 c 0,11,12
 255 681 255 681 241 687.5 c 128,-1,13
 227 694 227 694 212 703 c 128,-1,14
 197 712 197 712 181 718.5 c 128,-1,15
 165 725 165 725 143 725 c 0,16,17
 112 725 112 725 91.5 710.5 c 128,-1,18
 71 696 71 696 58.5 676 c 128,-1,19
 46 656 46 656 41 637.5 c 128,-1,20
 36 619 36 619 36 611 c 1,21,-1
 98 611 l 1,22,23
 98 613 98 613 99.5 620.5 c 128,-1,24
 101 628 101 628 105.5 636.5 c 128,-1,25
 110 645 110 645 120 652 c 128,-1,26
 130 659 130 659 146 659 c 256,27,28
 162 659 162 659 176.5 652.5 c 128,-1,29
 191 646 191 646 205.5 637.5 c 128,-1,30
 220 629 220 629 237 622.5 c 128,-1,31
 254 616 254 616 276 616 c 0,0,1
EndSplineSet
EndChar

StartChar: gravecomb
Encoding: 768 768 391
Width: 242
GlyphClass: 1
Flags: W
LayerCount: 2
Fore
SplineSet
37 760 m 1,0,-1
 159 600 l 1,1,-1
 216 600 l 1,2,-1
 141 760 l 1,3,-1
 37 760 l 1,0,-1
EndSplineSet
EndChar

StartChar: acutecomb
Encoding: 769 769 392
Width: 242
GlyphClass: 1
Flags: W
LayerCount: 2
Fore
SplineSet
216 760 m 1,0,-1
 112 760 l 1,1,-1
 37 600 l 1,2,-1
 94 600 l 1,3,-1
 216 760 l 1,0,-1
EndSplineSet
EndChar

StartChar: uni0302
Encoding: 770 770 393
Width: 354
GlyphClass: 1
Flags: W
LayerCount: 2
Fore
SplineSet
26 600 m 1,0,-1
 83 600 l 1,1,-1
 176 688 l 1,2,-1
 268 600 l 1,3,-1
 325 600 l 1,4,-1
 228 744 l 1,5,-1
 123 744 l 1,6,-1
 26 600 l 1,0,-1
EndSplineSet
EndChar

StartChar: tildecomb
Encoding: 771 771 394
Width: 425
GlyphClass: 1
Flags: W
LayerCount: 2
Fore
SplineSet
276 624 m 0,0,1
 310 624 310 624 331.5 639.5 c 128,-1,2
 353 655 353 655 366 675 c 128,-1,3
 379 695 379 695 384.5 713 c 128,-1,4
 390 731 390 731 390 738 c 1,5,-1
 328 738 l 1,6,7
 328 737 328 737 326.5 729 c 128,-1,8
 325 721 325 721 319 712 c 128,-1,9
 313 703 313 703 302.5 696 c 128,-1,10
 292 689 292 689 273 689 c 0,11,12
 255 689 255 689 241 695.5 c 128,-1,13
 227 702 227 702 212 711 c 128,-1,14
 197 720 197 720 181 726.5 c 128,-1,15
 165 733 165 733 143 733 c 0,16,17
 112 733 112 733 91.5 718.5 c 128,-1,18
 71 704 71 704 58.5 684 c 128,-1,19
 46 664 46 664 41 645.5 c 128,-1,20
 36 627 36 627 36 619 c 1,21,-1
 98 619 l 1,22,23
 98 621 98 621 99.5 628.5 c 128,-1,24
 101 636 101 636 105.5 644.5 c 128,-1,25
 110 653 110 653 120 660 c 128,-1,26
 130 667 130 667 146 667 c 256,27,28
 162 667 162 667 176.5 660.5 c 128,-1,29
 191 654 191 654 205.5 645.5 c 128,-1,30
 220 637 220 637 237 630.5 c 128,-1,31
 254 624 254 624 276 624 c 0,0,1
EndSplineSet
EndChar

StartChar: uni0304
Encoding: 772 772 395
Width: 410
GlyphClass: 1
Flags: W
LayerCount: 2
Fore
SplineSet
353 645 m 1,0,-1
 353 714 l 1,1,-1
 58 714 l 1,2,-1
 58 645 l 1,3,-1
 353 645 l 1,0,-1
EndSplineSet
EndChar

StartChar: uni0306
Encoding: 774 774 396
Width: 310
GlyphClass: 1
Flags: W
LayerCount: 2
Fore
SplineSet
155 659 m 0,0,1
 132 659 132 659 114.5 680.5 c 128,-1,2
 97 702 97 702 97 730 c 1,3,-1
 37 730 l 1,4,5
 37 704 37 704 46 682 c 128,-1,6
 55 660 55 660 71 643.5 c 128,-1,7
 87 627 87 627 108.5 618 c 128,-1,8
 130 609 130 609 155 609 c 0,9,10
 181 609 181 609 202.5 618 c 128,-1,11
 224 627 224 627 239.5 643.5 c 128,-1,12
 255 660 255 660 264 682 c 128,-1,13
 273 704 273 704 273 730 c 1,14,-1
 214 730 l 1,15,16
 211 700 211 700 194 679.5 c 128,-1,17
 177 659 177 659 155 659 c 0,0,1
EndSplineSet
EndChar

StartChar: uni0307
Encoding: 775 775 397
Width: 198
GlyphClass: 1
Flags: W
LayerCount: 2
Fore
SplineSet
35 671 m 256,0,1
 35 645 35 645 54 626.5 c 128,-1,2
 73 608 73 608 99 608 c 256,3,4
 125 608 125 608 143.5 626.5 c 128,-1,5
 162 645 162 645 162 671 c 256,6,7
 162 697 162 697 143.5 716 c 128,-1,8
 125 735 125 735 99 735 c 256,9,10
 73 735 73 735 54 716 c 128,-1,11
 35 697 35 697 35 671 c 256,0,1
EndSplineSet
EndChar

StartChar: uni0308
Encoding: 776 776 398
Width: 408
GlyphClass: 1
Flags: W
LayerCount: 2
Fore
SplineSet
45 669 m 0,0,1
 45 643 45 643 64 624.5 c 128,-1,2
 83 606 83 606 109 606 c 256,3,4
 135 606 135 606 153.5 624.5 c 128,-1,5
 172 643 172 643 172 669 c 0,6,7
 172 696 172 696 153.5 714.5 c 128,-1,8
 135 733 135 733 109 733 c 256,9,10
 83 733 83 733 64 714.5 c 128,-1,11
 45 696 45 696 45 669 c 0,0,1
236 669 m 0,12,13
 236 643 236 643 255 624.5 c 128,-1,14
 274 606 274 606 300 606 c 256,15,16
 326 606 326 606 344.5 624.5 c 128,-1,17
 363 643 363 643 363 669 c 0,18,19
 363 696 363 696 344.5 714.5 c 128,-1,20
 326 733 326 733 300 733 c 256,21,22
 274 733 274 733 255 714.5 c 128,-1,23
 236 696 236 696 236 669 c 0,12,13
EndSplineSet
EndChar

StartChar: hookabovecomb
Encoding: 777 777 399
Width: 600
GlyphClass: 1
Flags: W
LayerCount: 2
Fore
SplineSet
257 692 m 1,0,1
 271 705 271 705 281 710 c 128,-1,2
 291 715 291 715 304 715 c 0,3,4
 316 715 316 715 324 707 c 128,-1,5
 332 699 332 699 332 687 c 256,6,7
 332 675 332 675 325 663.5 c 128,-1,8
 318 652 318 652 301 637 c 1,9,-1
 330 604 l 1,10,11
 361 630 361 630 375.5 652.5 c 128,-1,12
 390 675 390 675 390 699 c 0,13,14
 390 727 390 727 370.5 748 c 128,-1,15
 351 769 351 769 313 769 c 0,16,17
 287 769 287 769 264.5 758.5 c 128,-1,18
 242 748 242 748 221 728 c 1,19,-1
 257 692 l 1,0,1
EndSplineSet
EndChar

StartChar: uni030A
Encoding: 778 778 400
Width: 256
GlyphClass: 1
Flags: W
LayerCount: 2
Fore
SplineSet
29 661 m 256,0,1
 29 621 29 621 56.5 597 c 128,-1,2
 84 573 84 573 128 573 c 0,3,4
 173 573 173 573 200.5 597 c 128,-1,5
 228 621 228 621 228 661 c 256,6,7
 228 701 228 701 200.5 725.5 c 128,-1,8
 173 750 173 750 128 750 c 0,9,10
 84 750 84 750 56.5 725.5 c 128,-1,11
 29 701 29 701 29 661 c 256,0,1
128 707 m 0,12,13
 148 707 148 707 161.5 694.5 c 128,-1,14
 175 682 175 682 175 661 c 0,15,16
 175 641 175 641 161 628 c 128,-1,17
 147 615 147 615 128 615 c 256,18,19
 109 615 109 615 96 628.5 c 128,-1,20
 83 642 83 642 83 661 c 0,21,22
 83 682 83 682 96 694.5 c 128,-1,23
 109 707 109 707 128 707 c 0,12,13
EndSplineSet
EndChar

StartChar: uni030C
Encoding: 780 780 402
Width: 354
GlyphClass: 1
Flags: W
LayerCount: 2
Fore
SplineSet
26 744 m 1,0,-1
 123 600 l 1,1,-1
 228 600 l 1,2,-1
 325 744 l 1,3,-1
 268 744 l 1,4,-1
 176 656 l 1,5,-1
 83 744 l 1,6,-1
 26 744 l 1,0,-1
EndSplineSet
EndChar

StartChar: uni0311
Encoding: 785 785 404
Width: 310
GlyphClass: 1
Flags: W
LayerCount: 2
Fore
SplineSet
155 679 m 0,0,1
 177 679 177 679 194 659 c 128,-1,2
 211 639 211 639 214 609 c 1,3,-1
 273 609 l 1,4,5
 273 635 273 635 264 657 c 128,-1,6
 255 679 255 679 239.5 695.5 c 128,-1,7
 224 712 224 712 202.5 721 c 128,-1,8
 181 730 181 730 155 730 c 0,9,10
 130 730 130 730 108.5 721 c 128,-1,11
 87 712 87 712 71 695.5 c 128,-1,12
 55 679 55 679 46 657 c 128,-1,13
 37 635 37 635 37 609 c 1,14,-1
 97 609 l 1,15,16
 97 637 97 637 114.5 658 c 128,-1,17
 132 679 132 679 155 679 c 0,0,1
EndSplineSet
EndChar

StartChar: uni0312
Encoding: 786 786 405
Width: 183
GlyphClass: 1
Flags: W
LayerCount: 2
Fore
SplineSet
21 585 m 1,0,-1
 126 585 l 1,1,-1
 193 732 l 1,2,-1
 136 732 l 1,3,-1
 21 585 l 1,0,-1
EndSplineSet
EndChar

StartChar: uni031B
Encoding: 795 795 406
Width: 286
GlyphClass: 1
Flags: W
LayerCount: 2
Fore
SplineSet
50 488 m 1,0,1
 73 488 73 488 95.5 491.5 c 128,-1,2
 118 495 118 495 137 501 c 128,-1,3
 156 507 156 507 171.5 515.5 c 128,-1,4
 187 524 187 524 198 536 c 0,5,6
 210 549 210 549 217 563 c 128,-1,7
 224 577 224 577 228 591.5 c 128,-1,8
 232 606 232 606 233.5 621 c 128,-1,9
 235 636 235 636 236 651 c 1,10,-1
 153 651 l 1,11,12
 152 631 152 631 149.5 616 c 128,-1,13
 147 601 147 601 136 588 c 0,14,15
 125 577 125 577 106 571 c 128,-1,16
 87 565 87 565 52 565 c 1,17,-1
 50 488 l 1,0,1
EndSplineSet
EndChar

StartChar: dotbelowcomb
Encoding: 803 803 407
Width: 198
GlyphClass: 1
Flags: W
LayerCount: 2
Fore
SplineSet
35 -137 m 256,0,1
 35 -163 35 -163 54 -181.5 c 128,-1,2
 73 -200 73 -200 99 -200 c 256,3,4
 125 -200 125 -200 144 -181.5 c 128,-1,5
 163 -163 163 -163 163 -137 c 256,6,7
 163 -111 163 -111 144 -92 c 128,-1,8
 125 -73 125 -73 99 -73 c 256,9,10
 73 -73 73 -73 54 -92 c 128,-1,11
 35 -111 35 -111 35 -137 c 256,0,1
EndSplineSet
EndChar

StartChar: uni0324
Encoding: 804 804 408
Width: 408
GlyphClass: 1
Flags: W
LayerCount: 2
Fore
SplineSet
227 -138 m 0,0,1
 227 -164 227 -164 246 -182.5 c 128,-1,2
 265 -201 265 -201 291 -201 c 256,3,4
 317 -201 317 -201 335.5 -182.5 c 128,-1,5
 354 -164 354 -164 354 -138 c 0,6,7
 354 -111 354 -111 335.5 -92.5 c 128,-1,8
 317 -74 317 -74 291 -74 c 256,9,10
 265 -74 265 -74 246 -92.5 c 128,-1,11
 227 -111 227 -111 227 -138 c 0,0,1
52 -138 m 0,12,13
 52 -164 52 -164 71 -182.5 c 128,-1,14
 90 -201 90 -201 116 -201 c 256,15,16
 142 -201 142 -201 160.5 -182.5 c 128,-1,17
 179 -164 179 -164 179 -138 c 0,18,19
 179 -111 179 -111 160.5 -92.5 c 128,-1,20
 142 -74 142 -74 116 -74 c 256,21,22
 90 -74 90 -74 71 -92.5 c 128,-1,23
 52 -111 52 -111 52 -138 c 0,12,13
EndSplineSet
EndChar

StartChar: uni0326
Encoding: 806 806 409
Width: 183
GlyphClass: 1
Flags: W
LayerCount: 2
Fore
SplineSet
84 -251 m 1,0,-1
 163 -48 l 1,1,-1
 66 -48 l 1,2,-1
 33 -251 l 1,3,-1
 84 -251 l 1,0,-1
EndSplineSet
EndChar

StartChar: uni0327
Encoding: 807 807 410
Width: 309
GlyphClass: 1
Flags: W
LayerCount: 2
Fore
SplineSet
48 -172 m 0,0,1
 70 -187 70 -187 97 -189.5 c 128,-1,2
 124 -192 124 -192 151 -192 c 0,3,4
 170 -192 170 -192 191 -188 c 128,-1,5
 212 -184 212 -184 229.5 -175.5 c 128,-1,6
 247 -167 247 -167 258 -151.5 c 128,-1,7
 269 -136 269 -136 269 -111 c 0,8,9
 269 -75 269 -75 244.5 -59.5 c 128,-1,10
 220 -44 220 -44 187 -44 c 0,11,12
 179 -44 179 -44 170 -45 c 128,-1,13
 161 -46 161 -46 153 -49 c 1,14,-1
 188 5 l 1,15,16
 186 6 186 6 179.5 8.5 c 128,-1,17
 173 11 173 11 166 13 c 128,-1,18
 159 15 159 15 153 17 c 128,-1,19
 147 19 147 19 143 20 c 1,20,-1
 84 -93 l 1,21,22
 105 -88 105 -88 125 -84.5 c 128,-1,23
 145 -81 145 -81 165 -81 c 0,24,25
 183 -81 183 -81 199.5 -87 c 128,-1,26
 216 -93 216 -93 216 -115 c 0,27,28
 216 -127 216 -127 210.5 -133 c 128,-1,29
 205 -139 205 -139 196.5 -143 c 128,-1,30
 188 -147 188 -147 178 -148 c 128,-1,31
 168 -149 168 -149 159 -149 c 0,32,33
 139 -149 139 -149 113.5 -144.5 c 128,-1,34
 88 -140 88 -140 71 -130 c 0,35,36
 69 -132 69 -132 65 -138.5 c 128,-1,37
 61 -145 61 -145 56.5 -151.5 c 128,-1,38
 52 -158 52 -158 49 -164.5 c 128,-1,39
 46 -171 46 -171 48 -172 c 0,0,1
EndSplineSet
EndChar

StartChar: uni0328
Encoding: 808 808 411
Width: 270
GlyphClass: 1
Flags: W
LayerCount: 2
Fore
SplineSet
58 -108 m 0,0,1
 58 -122 58 -122 63.5 -136 c 128,-1,2
 69 -150 69 -150 82.5 -162 c 128,-1,3
 96 -174 96 -174 120.5 -182.5 c 128,-1,4
 145 -191 145 -191 182 -194 c 1,5,-1
 205 -129 l 1,6,7
 169 -128 169 -128 149 -119.5 c 128,-1,8
 129 -111 129 -111 129 -91 c 0,9,10
 129 -73 129 -73 147 -51 c 128,-1,11
 165 -29 165 -29 205 0 c 1,12,-1
 187 19 l 1,13,-1
 155 19 l 1,14,15
 105 -11 105 -11 81.5 -43 c 128,-1,16
 58 -75 58 -75 58 -108 c 0,0,1
EndSplineSet
EndChar

StartChar: uni032E
Encoding: 814 814 412
Width: 310
GlyphClass: 1
Flags: W
LayerCount: 2
Fore
SplineSet
155 -125 m 0,0,1
 132 -125 132 -125 114.5 -103.5 c 128,-1,2
 97 -82 97 -82 97 -54 c 1,3,-1
 37 -54 l 1,4,5
 37 -81 37 -81 46 -102.5 c 128,-1,6
 55 -124 55 -124 71 -140.5 c 128,-1,7
 87 -157 87 -157 108.5 -166 c 128,-1,8
 130 -175 130 -175 155 -175 c 0,9,10
 181 -175 181 -175 202.5 -166 c 128,-1,11
 224 -157 224 -157 239.5 -140.5 c 128,-1,12
 255 -124 255 -124 264 -102.5 c 128,-1,13
 273 -81 273 -81 273 -54 c 1,14,-1
 214 -54 l 1,15,16
 211 -84 211 -84 194 -104.5 c 128,-1,17
 177 -125 177 -125 155 -125 c 0,0,1
EndSplineSet
EndChar

StartChar: uni0331
Encoding: 817 817 413
Width: 410
GlyphClass: 1
Flags: W
LayerCount: 2
Fore
SplineSet
353 -152 m 1,0,-1
 353 -83 l 1,1,-1
 58 -83 l 1,2,-1
 58 -152 l 1,3,-1
 353 -152 l 1,0,-1
EndSplineSet
EndChar

StartChar: uni0335
Encoding: 821 821 414
Width: 371
GlyphClass: 1
Flags: W
LayerCount: 2
Fore
SplineSet
321 263 m 1,0,-1
 321 330 l 1,1,-1
 50 330 l 1,2,-1
 50 263 l 1,3,-1
 321 263 l 1,0,-1
EndSplineSet
EndChar

StartChar: tonos
Encoding: 900 900 416
Width: 188
GlyphClass: 1
Flags: W
LayerCount: 2
Fore
SplineSet
67 808 m 1,0,-1
 42 579 l 1,1,-1
 104 570 l 1,2,-1
 147 792 l 1,3,-1
 67 808 l 1,0,-1
EndSplineSet
EndChar

StartChar: dieresistonos
Encoding: 901 901 417
Width: 468
GlyphClass: 1
Flags: W
LayerCount: 2
Fore
SplineSet
22 650 m 256,0,1
 22 621 22 621 41.5 601.5 c 128,-1,2
 61 582 61 582 90 582 c 0,3,4
 120 582 120 582 138.5 601.5 c 128,-1,5
 157 621 157 621 157 650 c 256,6,7
 157 679 157 679 138.5 698 c 128,-1,8
 120 717 120 717 90 717 c 0,9,10
 61 717 61 717 41.5 698 c 128,-1,11
 22 679 22 679 22 650 c 256,0,1
312 650 m 256,12,13
 312 621 312 621 331.5 601.5 c 128,-1,14
 351 582 351 582 380 582 c 256,15,16
 409 582 409 582 428 601.5 c 128,-1,17
 447 621 447 621 447 650 c 256,18,19
 447 679 447 679 428 698 c 128,-1,20
 409 717 409 717 380 717 c 256,21,22
 351 717 351 717 331.5 698 c 128,-1,23
 312 679 312 679 312 650 c 256,12,13
219 819 m 1,24,-1
 194 590 l 1,25,-1
 255 580 l 1,26,-1
 299 802 l 1,27,-1
 219 819 l 1,24,-1
EndSplineSet
EndChar

StartChar: Alphatonos
Encoding: 902 902 418
Width: 675
GlyphClass: 1
Flags: W
LayerCount: 2
Fore
SplineSet
8 0 m 1,0,-1
 124 0 l 1,1,-1
 199 194 l 1,2,-1
 475 194 l 1,3,-1
 551 0 l 1,4,-1
 667 0 l 1,5,-1
 390 710 l 1,6,-1
 286 710 l 1,7,-1
 8 0 l 1,0,-1
219 276 m 1,8,-1
 338 589 l 1,9,-1
 453 276 l 1,10,-1
 219 276 l 1,8,-1
185 888 m 1,11,-1
 91 667 l 1,12,-1
 150 639 l 1,13,-1
 269 827 l 1,14,-1
 185 888 l 1,11,-1
EndSplineSet
EndChar

StartChar: Epsilontonos
Encoding: 904 904 420
Width: 664
GlyphClass: 1
Flags: W
LayerCount: 2
Fore
SplineSet
252 98 m 1,0,-1
 252 316 l 1,1,-1
 570 316 l 1,2,-1
 570 408 l 1,3,-1
 252 408 l 1,4,-1
 252 612 l 1,5,-1
 619 612 l 1,6,-1
 619 710 l 1,7,-1
 141 710 l 1,8,-1
 141 0 l 1,9,-1
 628 0 l 1,10,-1
 628 98 l 1,11,-1
 252 98 l 1,0,-1
137 965 m 1,12,-1
 43 744 l 1,13,-1
 103 716 l 1,14,-1
 222 905 l 1,15,-1
 137 965 l 1,12,-1
EndSplineSet
EndChar

StartChar: Etatonos
Encoding: 905 905 421
Width: 785
GlyphClass: 1
Flags: W
LayerCount: 2
Fore
SplineSet
613 710 m 1,0,-1
 613 412 l 1,1,-1
 252 412 l 1,2,-1
 252 710 l 1,3,-1
 141 710 l 1,4,-1
 141 0 l 1,5,-1
 252 0 l 1,6,-1
 252 314 l 1,7,-1
 613 314 l 1,8,-1
 613 0 l 1,9,-1
 724 0 l 1,10,-1
 724 710 l 1,11,-1
 613 710 l 1,0,-1
74 884 m 1,12,-1
 -20 663 l 1,13,-1
 39 635 l 1,14,-1
 158 823 l 1,15,-1
 74 884 l 1,12,-1
EndSplineSet
EndChar

StartChar: Iotatonos
Encoding: 906 906 422
Width: 348
GlyphClass: 1
Flags: W
LayerCount: 2
Fore
SplineSet
247 0 m 1,0,-1
 247 710 l 1,1,-1
 136 710 l 1,2,-1
 136 0 l 1,3,-1
 247 0 l 1,0,-1
83 880 m 1,4,-1
 -11 659 l 1,5,-1
 49 632 l 1,6,-1
 168 820 l 1,7,-1
 83 880 l 1,4,-1
EndSplineSet
EndChar

StartChar: Omicrontonos
Encoding: 908 908 423
Width: 827
GlyphClass: 1
Flags: W
LayerCount: 2
Fore
SplineSet
405 -5 m 0,0,1
 478 -5 478 -5 540.5 24.5 c 128,-1,2
 603 54 603 54 648.5 103.5 c 128,-1,3
 694 153 694 153 719.5 218 c 128,-1,4
 745 283 745 283 745 354 c 0,5,6
 745 421 745 421 720.5 485.5 c 128,-1,7
 696 550 696 550 651.5 601 c 128,-1,8
 607 652 607 652 545 683.5 c 128,-1,9
 483 715 483 715 407 715 c 0,10,11
 334 715 334 715 271.5 685.5 c 128,-1,12
 209 656 209 656 163 606 c 128,-1,13
 117 556 117 556 91.5 491 c 128,-1,14
 66 426 66 426 66 355 c 0,15,16
 66 287 66 287 90 222 c 128,-1,17
 114 157 114 157 159 106.5 c 128,-1,18
 204 56 204 56 266 25.5 c 128,-1,19
 328 -5 328 -5 405 -5 c 0,0,1
178 355 m 0,20,21
 178 403 178 403 193.5 450 c 128,-1,22
 209 497 209 497 238 533.5 c 128,-1,23
 267 570 267 570 309.5 592.5 c 128,-1,24
 352 615 352 615 406 615 c 0,25,26
 457 615 457 615 499 593.5 c 128,-1,27
 541 572 541 572 571 536 c 128,-1,28
 601 500 601 500 617 453 c 128,-1,29
 633 406 633 406 633 355 c 0,30,31
 633 307 633 307 617.5 260.5 c 128,-1,32
 602 214 602 214 573 177 c 128,-1,33
 544 140 544 140 502 117 c 128,-1,34
 460 94 460 94 406 94 c 0,35,36
 353 94 353 94 311 115.5 c 128,-1,37
 269 137 269 137 239.5 173.5 c 128,-1,38
 210 210 210 210 194 257 c 128,-1,39
 178 304 178 304 178 355 c 0,20,21
94 880 m 1,40,-1
 0 659 l 1,41,-1
 60 632 l 1,42,-1
 179 820 l 1,43,-1
 94 880 l 1,40,-1
EndSplineSet
EndChar

StartChar: Upsilontonos
Encoding: 910 910 424
Width: 700
GlyphClass: 1
Flags: W
LayerCount: 2
Fore
SplineSet
327 0 m 1,0,-1
 433 0 l 1,1,-1
 433 236 l 2,2,3
 434 304 434 304 453.5 361 c 128,-1,4
 473 418 473 418 504.5 468.5 c 128,-1,5
 536 519 536 519 576 563.5 c 128,-1,6
 616 608 616 608 658 652 c 1,7,-1
 581 710 l 1,8,9
 537 667 537 667 504.5 632 c 128,-1,10
 472 597 472 597 448.5 563.5 c 128,-1,11
 425 530 425 530 409 495 c 128,-1,12
 393 460 393 460 382 417 c 1,13,-1
 377 417 l 1,14,15
 365 460 365 460 349.5 495.5 c 128,-1,16
 334 531 334 531 311 564.5 c 128,-1,17
 288 598 288 598 256 633 c 128,-1,18
 224 668 224 668 179 710 c 1,19,-1
 103 652 l 1,20,21
 143 612 143 612 182.5 568.5 c 128,-1,22
 222 525 222 525 255 474.5 c 128,-1,23
 288 424 288 424 308 365.5 c 128,-1,24
 328 307 328 307 327 236 c 2,25,-1
 327 0 l 1,0,-1
91 880 m 1,26,-1
 -3 659 l 1,27,-1
 56 632 l 1,28,-1
 175 820 l 1,29,-1
 91 880 l 1,26,-1
EndSplineSet
EndChar

StartChar: Omegatonos
Encoding: 911 911 425
Width: 715
GlyphClass: 1
Flags: W
LayerCount: 2
Fore
SplineSet
45 0 m 1,0,-1
 313 0 l 1,1,-1
 313 196 l 1,2,3
 278 206 278 206 249.5 226 c 128,-1,4
 221 246 221 246 201.5 274 c 128,-1,5
 182 302 182 302 172 336 c 128,-1,6
 162 370 162 370 162 408 c 0,7,8
 162 451 162 451 176 488.5 c 128,-1,9
 190 526 190 526 215.5 553.5 c 128,-1,10
 241 581 241 581 276.5 597 c 128,-1,11
 312 613 312 613 354 613 c 0,12,13
 397 613 397 613 433 597 c 128,-1,14
 469 581 469 581 494.5 553.5 c 128,-1,15
 520 526 520 526 534.5 489.5 c 128,-1,16
 549 453 549 453 549 411 c 0,17,18
 549 370 549 370 537.5 334.5 c 128,-1,19
 526 299 526 299 505 271 c 128,-1,20
 484 243 484 243 456 223.5 c 128,-1,21
 428 204 428 204 394 196 c 1,22,-1
 394 0 l 1,23,-1
 665 0 l 1,24,-1
 665 97 l 1,25,-1
 428 97 l 1,26,-1
 485 50 l 1,27,-1
 485 180 l 1,28,-1
 446 118 l 1,29,30
 494 132 494 132 534 159.5 c 128,-1,31
 574 187 574 187 602.5 225.5 c 128,-1,32
 631 264 631 264 647 311.5 c 128,-1,33
 663 359 663 359 663 413 c 0,34,35
 663 479 663 479 639 534.5 c 128,-1,36
 615 590 615 590 573 630.5 c 128,-1,37
 531 671 531 671 475 693.5 c 128,-1,38
 419 716 419 716 354 716 c 256,39,40
 289 716 289 716 232.5 693.5 c 128,-1,41
 176 671 176 671 135 630.5 c 128,-1,42
 94 590 94 590 71 534.5 c 128,-1,43
 48 479 48 479 48 412 c 0,44,45
 48 359 48 359 63 312 c 128,-1,46
 78 265 78 265 106.5 226 c 128,-1,47
 135 187 135 187 174.5 158.5 c 128,-1,48
 214 130 214 130 264 116 c 1,49,-1
 225 180 l 1,50,-1
 225 50 l 1,51,-1
 283 97 l 1,52,-1
 46 97 l 1,53,-1
 45 0 l 1,0,-1
88 880 m 1,54,-1
 -5 659 l 1,55,-1
 54 632 l 1,56,-1
 173 820 l 1,57,-1
 88 880 l 1,54,-1
EndSplineSet
EndChar

StartChar: iotadieresistonos
Encoding: 912 912 426
Width: 369
GlyphClass: 1
Flags: W
LayerCount: 2
Fore
SplineSet
225 -8 m 0,0,1
 244 -8 244 -8 264.5 -5 c 128,-1,2
 285 -2 285 -2 302 6 c 1,3,-1
 285 98 l 1,4,5
 275 95 275 95 265 91.5 c 128,-1,6
 255 88 255 88 246 87 c 0,7,8
 228 88 228 88 219.5 104.5 c 128,-1,9
 211 121 211 121 211 173 c 0,10,11
 211 195 211 195 212.5 236.5 c 128,-1,12
 214 278 214 278 216 326.5 c 128,-1,13
 218 375 218 375 220 426 c 128,-1,14
 222 477 222 477 224 519 c 1,15,-1
 120 519 l 1,16,17
 119 464 119 464 118.5 414 c 128,-1,18
 118 364 118 364 117.5 316 c 128,-1,19
 117 268 117 268 116.5 221.5 c 128,-1,20
 116 175 116 175 116 130 c 0,21,22
 116 94 116 94 124 68 c 128,-1,23
 132 42 132 42 146 25 c 128,-1,24
 160 8 160 8 180.5 0 c 128,-1,25
 201 -8 201 -8 225 -8 c 0,0,1
-41 657 m 0,26,27
 -41 628 -41 628 -21.5 608.5 c 128,-1,28
 -2 589 -2 589 26 589 c 0,29,30
 56 589 56 589 74.5 608.5 c 128,-1,31
 93 628 93 628 93 657 c 0,32,33
 93 687 93 687 74.5 705 c 128,-1,34
 56 723 56 723 26 723 c 0,35,36
 -2 723 -2 723 -21.5 705 c 128,-1,37
 -41 687 -41 687 -41 657 c 0,26,27
247 657 m 0,38,39
 247 628 247 628 266.5 608.5 c 128,-1,40
 286 589 286 589 314 589 c 0,41,42
 343 589 343 589 362 608.5 c 128,-1,43
 381 628 381 628 381 657 c 0,44,45
 381 687 381 687 362 705 c 128,-1,46
 343 723 343 723 314 723 c 0,47,48
 286 723 286 723 266.5 705 c 128,-1,49
 247 687 247 687 247 657 c 0,38,39
154 825 m 1,50,-1
 129 597 l 1,51,-1
 190 588 l 1,52,-1
 234 808 l 1,53,-1
 154 825 l 1,50,-1
EndSplineSet
EndChar

StartChar: Gamma
Encoding: 915 915 429
Width: 497
GlyphClass: 1
Flags: W
LayerCount: 2
Fore
SplineSet
562 708 m 1,0,-1
 562 611 l 1,1,-1
 188 611 l 1,2,-1
 188 10 l 1,3,-1
 79 10 l 1,4,-1
 79 708 l 1,5,-1
 562 708 l 1,0,-1
EndSplineSet
EndChar

StartChar: uni0394
Encoding: 916 916 430
Width: 641
GlyphClass: 1
Flags: W
LayerCount: 2
Fore
SplineSet
14 0 m 1,0,-1
 628 0 l 1,1,-1
 628 21 l 1,2,-1
 386 708 l 1,3,-1
 255 708 l 1,4,-1
 14 21 l 1,5,-1
 14 0 l 1,0,-1
138 89 m 1,6,-1
 248 392 l 1,7,-1
 318 613 l 1,8,-1
 322 613 l 1,9,-1
 395 392 l 1,10,-1
 501 89 l 1,11,-1
 138 89 l 1,6,-1
EndSplineSet
EndChar

StartChar: Theta
Encoding: 920 920 434
Width: 751
GlyphClass: 1
Flags: W
LayerCount: 2
Fore
SplineSet
209 306 m 1,0,-1
 534 306 l 1,1,-1
 534 403 l 1,2,-1
 209 403 l 1,3,-1
 209 306 l 1,0,-1
369 -5 m 0,4,5
 441 -5 441 -5 502 24 c 128,-1,6
 563 53 563 53 607.5 102 c 128,-1,7
 652 151 652 151 677.5 214.5 c 128,-1,8
 703 278 703 278 703 348 c 0,9,10
 703 414 703 414 679 477.5 c 128,-1,11
 655 541 655 541 611.5 591 c 128,-1,12
 568 641 568 641 506.5 672 c 128,-1,13
 445 703 445 703 371 703 c 0,14,15
 299 703 299 703 237.5 674 c 128,-1,16
 176 645 176 645 130.5 596 c 128,-1,17
 85 547 85 547 60 483 c 128,-1,18
 35 419 35 419 35 349 c 0,19,20
 35 282 35 282 59 218.5 c 128,-1,21
 83 155 83 155 127 105 c 128,-1,22
 171 55 171 55 232 25 c 128,-1,23
 293 -5 293 -5 369 -5 c 0,4,5
146 349 m 0,24,25
 146 396 146 396 161 442 c 128,-1,26
 176 488 176 488 204.5 524 c 128,-1,27
 233 560 233 560 274.5 582 c 128,-1,28
 316 604 316 604 370 604 c 0,29,30
 420 604 420 604 461 583 c 128,-1,31
 502 562 502 562 531.5 526.5 c 128,-1,32
 561 491 561 491 577 445 c 128,-1,33
 593 399 593 399 593 349 c 0,34,35
 593 302 593 302 578 256 c 128,-1,36
 563 210 563 210 534 174 c 128,-1,37
 505 138 505 138 463.5 115.5 c 128,-1,38
 422 93 422 93 370 93 c 256,39,40
 318 93 318 93 276.5 114 c 128,-1,41
 235 135 235 135 206 171 c 128,-1,42
 177 207 177 207 161.5 253 c 128,-1,43
 146 299 146 299 146 349 c 0,24,25
EndSplineSet
EndChar

StartChar: Lambda
Encoding: 923 923 437
Width: 669
GlyphClass: 1
Flags: W
LayerCount: 2
Fore
SplineSet
18 0 m 1,0,-1
 126 0 l 1,1,-1
 258 385 l 1,2,-1
 333 607 l 1,3,-1
 337 607 l 1,4,-1
 412 384 l 1,5,-1
 543 0 l 1,6,-1
 652 0 l 1,7,-1
 403 708 l 1,8,-1
 267 708 l 1,9,-1
 18 0 l 1,0,-1
EndSplineSet
EndChar

StartChar: Xi
Encoding: 926 926 440
Width: 637
GlyphClass: 1
Flags: W
LayerCount: 2
Fore
SplineSet
67 0 m 1,0,-1
 569 0 l 1,1,-1
 569 89 l 1,2,-1
 67 89 l 1,3,-1
 67 0 l 1,0,-1
138 312 m 1,4,-1
 498 312 l 1,5,-1
 498 400 l 1,6,-1
 138 400 l 1,7,-1
 138 312 l 1,4,-1
67 619 m 1,8,-1
 569 619 l 1,9,-1
 569 709 l 1,10,-1
 67 709 l 1,11,-1
 67 619 l 1,8,-1
EndSplineSet
EndChar

StartChar: Pi
Encoding: 928 928 442
Width: 650
GlyphClass: 1
Flags: W
LayerCount: 2
Fore
SplineSet
79 0 m 1,0,-1
 186 0 l 1,1,-1
 186 619 l 1,2,-1
 465 619 l 1,3,-1
 465 0 l 1,4,-1
 571 0 l 1,5,-1
 571 709 l 1,6,-1
 79 709 l 1,7,-1
 79 0 l 1,0,-1
EndSplineSet
EndChar

StartChar: Sigma
Encoding: 931 931 444
Width: 557
GlyphClass: 1
Flags: W
LayerCount: 2
Fore
SplineSet
50 0 m 1,0,-1
 513 0 l 1,1,-1
 513 89 l 1,2,-1
 194 89 l 1,3,-1
 400 362 l 1,4,-1
 197 619 l 1,5,-1
 489 619 l 1,6,-1
 489 709 l 1,7,-1
 54 709 l 1,8,-1
 54 645 l 1,9,-1
 287 360 l 1,10,-1
 50 62 l 1,11,-1
 50 0 l 1,0,-1
EndSplineSet
EndChar

StartChar: Upsilon
Encoding: 933 933 446
Width: 627
GlyphClass: 1
Flags: W
LayerCount: 2
Fore
SplineSet
260 0 m 1,0,-1
 366 0 l 1,1,-1
 366 236 l 2,2,3
 367 304 367 304 386.5 361 c 128,-1,4
 406 418 406 418 437.5 468.5 c 128,-1,5
 469 519 469 519 509 563.5 c 128,-1,6
 549 608 549 608 591 652 c 1,7,-1
 514 710 l 1,8,9
 470 667 470 667 437.5 632 c 128,-1,10
 405 597 405 597 381.5 563.5 c 128,-1,11
 358 530 358 530 342 495 c 128,-1,12
 326 460 326 460 315 417 c 1,13,-1
 310 417 l 1,14,15
 298 460 298 460 282.5 495.5 c 128,-1,16
 267 531 267 531 244 564.5 c 128,-1,17
 221 598 221 598 189 633 c 128,-1,18
 157 668 157 668 112 710 c 1,19,-1
 36 652 l 1,20,21
 76 612 76 612 115.5 568.5 c 128,-1,22
 155 525 155 525 188 474.5 c 128,-1,23
 221 424 221 424 241 365.5 c 128,-1,24
 261 307 261 307 260 236 c 2,25,-1
 260 0 l 1,0,-1
EndSplineSet
EndChar

StartChar: Phi
Encoding: 934 934 447
Width: 732
GlyphClass: 1
Flags: W
LayerCount: 2
Fore
SplineSet
347 163 m 1,0,1
 303 163 303 163 266 177.5 c 128,-1,2
 229 192 229 192 202 217.5 c 128,-1,3
 175 243 175 243 159.5 278.5 c 128,-1,4
 144 314 144 314 144 356 c 256,5,6
 144 398 144 398 159.5 433 c 128,-1,7
 175 468 175 468 202 493.5 c 128,-1,8
 229 519 229 519 266 533 c 128,-1,9
 303 547 303 547 347 547 c 1,10,-1
 347 636 l 1,11,12
 281 636 281 636 225.5 615.5 c 128,-1,13
 170 595 170 595 130 558 c 128,-1,14
 90 521 90 521 68 469 c 128,-1,15
 46 417 46 417 46 356 c 0,16,17
 46 294 46 294 68 242.5 c 128,-1,18
 90 191 90 191 130 154 c 128,-1,19
 170 117 170 117 225.5 96 c 128,-1,20
 281 75 281 75 347 75 c 1,21,-1
 347 163 l 1,0,1
416 -30 m 1,22,-1
 416 739 l 1,23,-1
 317 739 l 1,24,-1
 317 -30 l 1,25,-1
 416 -30 l 1,22,-1
389 75 m 1,26,27
 457 75 457 75 512 96 c 128,-1,28
 567 117 567 117 606.5 154 c 128,-1,29
 646 191 646 191 667.5 242.5 c 128,-1,30
 689 294 689 294 689 356 c 0,31,32
 689 417 689 417 667.5 469 c 128,-1,33
 646 521 646 521 606.5 558 c 128,-1,34
 567 595 567 595 512 615.5 c 128,-1,35
 457 636 457 636 389 636 c 1,36,-1
 389 547 l 1,37,38
 434 547 434 547 470.5 533 c 128,-1,39
 507 519 507 519 533.5 493.5 c 128,-1,40
 560 468 560 468 574.5 433 c 128,-1,41
 589 398 589 398 589 356 c 256,42,43
 589 314 589 314 574.5 278.5 c 128,-1,44
 560 243 560 243 533.5 217.5 c 128,-1,45
 507 192 507 192 470.5 177.5 c 128,-1,46
 434 163 434 163 389 163 c 1,47,-1
 389 75 l 1,26,27
EndSplineSet
EndChar

StartChar: Psi
Encoding: 936 936 449
Width: 760
GlyphClass: 1
Flags: W
LayerCount: 2
Fore
SplineSet
330 0 m 1,0,-1
 430 0 l 1,1,-1
 430 708 l 1,2,-1
 330 708 l 1,3,-1
 330 0 l 1,0,-1
78 434 m 2,4,5
 78 378 78 378 93.5 331 c 128,-1,6
 109 284 109 284 142.5 250 c 128,-1,7
 176 216 176 216 227.5 197 c 128,-1,8
 279 178 279 178 350 178 c 1,9,-1
 347 261 l 1,10,11
 301 261 301 261 268 273.5 c 128,-1,12
 235 286 235 286 214.5 308.5 c 128,-1,13
 194 331 194 331 184 361.5 c 128,-1,14
 174 392 174 392 174 428 c 0,15,16
 174 442 174 442 175 460 c 128,-1,17
 176 478 176 478 176.5 498.5 c 128,-1,18
 177 519 177 519 177 541 c 128,-1,19
 177 563 177 563 177 584 c 0,20,21
 178 620 178 620 176.5 652.5 c 128,-1,22
 175 685 175 685 167 708 c 1,23,-1
 66 708 l 1,24,25
 71 685 71 685 73.5 665 c 128,-1,26
 76 645 76 645 77 626.5 c 128,-1,27
 78 608 78 608 78 590.5 c 128,-1,28
 78 573 78 573 78 558 c 2,29,-1
 78 434 l 2,4,5
680 558 m 2,30,31
 681 575 681 575 681 592 c 128,-1,32
 681 609 681 609 682 627.5 c 128,-1,33
 683 646 683 646 685.5 665.5 c 128,-1,34
 688 685 688 685 692 708 c 1,35,-1
 592 708 l 1,36,37
 583 685 583 685 582 652.5 c 128,-1,38
 581 620 581 620 581 584 c 0,39,40
 581 563 581 563 581.5 541 c 128,-1,41
 582 519 582 519 582 498.5 c 128,-1,42
 582 478 582 478 582.5 460 c 128,-1,43
 583 442 583 442 583 428 c 0,44,45
 583 393 583 393 574 362 c 128,-1,46
 565 331 565 331 544.5 308.5 c 128,-1,47
 524 286 524 286 492 273.5 c 128,-1,48
 460 261 460 261 414 261 c 1,49,-1
 410 178 l 1,50,51
 482 178 482 178 533 197.5 c 128,-1,52
 584 217 584 217 617 251 c 128,-1,53
 650 285 650 285 665.5 332 c 128,-1,54
 681 379 681 379 680 434 c 2,55,-1
 680 558 l 2,30,31
EndSplineSet
EndChar

StartChar: uni03A9
Encoding: 937 937 450
Width: 710
GlyphClass: 1
Flags: W
LayerCount: 2
Fore
SplineSet
45 0 m 1,0,-1
 313 0 l 1,1,-1
 313 196 l 1,2,3
 278 206 278 206 249.5 226 c 128,-1,4
 221 246 221 246 201.5 274 c 128,-1,5
 182 302 182 302 172 336 c 128,-1,6
 162 370 162 370 162 408 c 0,7,8
 162 451 162 451 176 488.5 c 128,-1,9
 190 526 190 526 215.5 553.5 c 128,-1,10
 241 581 241 581 276.5 597 c 128,-1,11
 312 613 312 613 354 613 c 0,12,13
 397 613 397 613 433 597 c 128,-1,14
 469 581 469 581 494.5 553.5 c 128,-1,15
 520 526 520 526 534.5 489.5 c 128,-1,16
 549 453 549 453 549 411 c 0,17,18
 549 370 549 370 537.5 334.5 c 128,-1,19
 526 299 526 299 505 271 c 128,-1,20
 484 243 484 243 456 223.5 c 128,-1,21
 428 204 428 204 394 196 c 1,22,-1
 394 0 l 1,23,-1
 665 0 l 1,24,-1
 665 97 l 1,25,-1
 428 97 l 1,26,-1
 485 50 l 1,27,-1
 485 180 l 1,28,-1
 446 118 l 1,29,30
 494 132 494 132 534 159.5 c 128,-1,31
 574 187 574 187 602.5 225.5 c 128,-1,32
 631 264 631 264 647 311.5 c 128,-1,33
 663 359 663 359 663 413 c 0,34,35
 663 479 663 479 639 534.5 c 128,-1,36
 615 590 615 590 573 630.5 c 128,-1,37
 531 671 531 671 475 693.5 c 128,-1,38
 419 716 419 716 354 716 c 256,39,40
 289 716 289 716 232.5 693.5 c 128,-1,41
 176 671 176 671 135 630.5 c 128,-1,42
 94 590 94 590 71 534.5 c 128,-1,43
 48 479 48 479 48 412 c 0,44,45
 48 359 48 359 63 312 c 128,-1,46
 78 265 78 265 106.5 226 c 128,-1,47
 135 187 135 187 174.5 158.5 c 128,-1,48
 214 130 214 130 264 116 c 1,49,-1
 225 180 l 1,50,-1
 225 50 l 1,51,-1
 283 97 l 1,52,-1
 46 97 l 1,53,-1
 45 0 l 1,0,-1
EndSplineSet
EndChar

StartChar: Iotadieresis
Encoding: 938 938 451
Width: 330
GlyphClass: 1
Flags: W
LayerCount: 2
Fore
SplineSet
188 0 m 1,0,-1
 188 698 l 1,1,-1
 79 698 l 1,2,-1
 79 0 l 1,3,-1
 188 0 l 1,0,-1
11 843 m 0,4,5
 11 816 11 816 25.5 798 c 128,-1,6
 40 780 40 780 62 780 c 0,7,8
 83 780 83 780 98 798 c 128,-1,9
 113 816 113 816 113 843 c 0,10,11
 113 869 113 869 98 887 c 128,-1,12
 83 905 83 905 62 905 c 0,13,14
 40 905 40 905 25.5 887 c 128,-1,15
 11 869 11 869 11 843 c 0,4,5
153 843 m 0,16,17
 153 816 153 816 168 798 c 128,-1,18
 183 780 183 780 205 780 c 0,19,20
 226 780 226 780 240.5 798 c 128,-1,21
 255 816 255 816 255 843 c 0,22,23
 255 869 255 869 240.5 887 c 128,-1,24
 226 905 226 905 205 905 c 0,25,26
 183 905 183 905 168 887 c 128,-1,27
 153 869 153 869 153 843 c 0,16,17
EndSplineSet
EndChar

StartChar: alphatonos
Encoding: 940 940 453
Width: 652
GlyphClass: 1
Flags: W
LayerCount: 2
Fore
SplineSet
412 248 m 2,0,1
 405 226 405 226 396 198.5 c 128,-1,2
 387 171 387 171 371.5 147.5 c 128,-1,3
 356 124 356 124 331.5 108 c 128,-1,4
 307 92 307 92 271 92 c 0,5,6
 243 92 243 92 218.5 102 c 128,-1,7
 194 112 194 112 176 132.5 c 128,-1,8
 158 153 158 153 147 184 c 128,-1,9
 136 215 136 215 136 257 c 0,10,11
 136 301 136 301 147.5 334 c 128,-1,12
 159 367 159 367 177 388 c 128,-1,13
 195 409 195 409 217.5 420 c 128,-1,14
 240 431 240 431 262 431 c 0,15,16
 285 431 285 431 303.5 421.5 c 128,-1,17
 322 412 322 412 337.5 395.5 c 128,-1,18
 353 379 353 379 364.5 357 c 128,-1,19
 376 335 376 335 385.5 310.5 c 128,-1,20
 395 286 395 286 401.5 259.5 c 128,-1,21
 408 233 408 233 411 208 c 1,22,-1
 461 295 l 1,23,24
 454 343 454 343 436.5 385.5 c 128,-1,25
 419 428 419 428 393 460 c 128,-1,26
 367 492 367 492 331.5 510.5 c 128,-1,27
 296 529 296 529 252 529 c 0,28,29
 206 529 206 529 167 508.5 c 128,-1,30
 128 488 128 488 100.5 451.5 c 128,-1,31
 73 415 73 415 57 365.5 c 128,-1,32
 41 316 41 316 41 258 c 256,33,34
 41 200 41 200 57.5 151 c 128,-1,35
 74 102 74 102 103 67 c 128,-1,36
 132 32 132 32 172 12 c 128,-1,37
 212 -8 212 -8 259 -8 c 0,38,39
 300 -8 300 -8 335.5 6.5 c 128,-1,40
 371 21 371 21 399.5 46.5 c 128,-1,41
 428 72 428 72 449 107 c 128,-1,42
 470 142 470 142 483 184 c 2,43,-1
 593 521 l 1,44,-1
 495 521 l 1,45,-1
 412 248 l 2,0,1
602 83 m 1,46,-1
 579 95 l 2,47,48
 569 100 569 100 558 108 c 128,-1,49
 547 116 547 116 534.5 130 c 128,-1,50
 522 144 522 144 509.5 163.5 c 128,-1,51
 497 183 497 183 486 210 c 1,52,-1
 432 138 l 1,53,54
 437 109 437 109 445.5 87 c 128,-1,55
 454 65 454 65 467.5 48 c 128,-1,56
 481 31 481 31 497 19.5 c 128,-1,57
 513 8 513 8 531 -1 c 2,58,-1
 550 -8 l 1,59,-1
 602 83 l 1,46,-1
283 810 m 1,60,-1
 257 581 l 1,61,-1
 319 572 l 1,62,-1
 363 794 l 1,63,-1
 283 810 l 1,60,-1
EndSplineSet
EndChar

StartChar: epsilontonos
Encoding: 941 941 454
Width: 492
GlyphClass: 1
Flags: W
LayerCount: 2
Fore
SplineSet
425 113 m 1,0,1
 384 101 384 101 349.5 95 c 128,-1,2
 315 89 315 89 282 89 c 0,3,4
 220 89 220 89 186.5 108.5 c 128,-1,5
 153 128 153 128 153 162 c 0,6,7
 153 179 153 179 163 190.5 c 128,-1,8
 173 202 173 202 190.5 209 c 128,-1,9
 208 216 208 216 231.5 219 c 128,-1,10
 255 222 255 222 282 222 c 2,11,-1
 329 222 l 1,12,-1
 329 311 l 1,13,-1
 281 311 l 2,14,15
 257 311 257 311 237 315.5 c 128,-1,16
 217 320 217 320 202 327.5 c 128,-1,17
 187 335 187 335 178.5 346 c 128,-1,18
 170 357 170 357 170 371 c 0,19,20
 170 383 170 383 176 393.5 c 128,-1,21
 182 404 182 404 195.5 412 c 128,-1,22
 209 420 209 420 231 424.5 c 128,-1,23
 253 429 253 429 285 429 c 0,24,25
 302 429 302 429 319.5 427.5 c 128,-1,26
 337 426 337 426 354 423.5 c 128,-1,27
 371 421 371 421 385.5 417 c 128,-1,28
 400 413 400 413 411 408 c 1,29,-1
 441 504 l 1,30,31
 423 514 423 514 403.5 518.5 c 128,-1,32
 384 523 384 523 364 526 c 128,-1,33
 344 529 344 529 325 529.5 c 128,-1,34
 306 530 306 530 289 529 c 0,35,36
 236 530 236 530 195.5 519.5 c 128,-1,37
 155 509 155 509 127.5 489.5 c 128,-1,38
 100 470 100 470 86 444.5 c 128,-1,39
 72 419 72 419 72 389 c 0,40,41
 72 368 72 368 79 350 c 128,-1,42
 86 332 86 332 96.5 316.5 c 128,-1,43
 107 301 107 301 119.5 290.5 c 128,-1,44
 132 280 132 280 145 275 c 1,45,-1
 145 274 l 1,46,47
 128 268 128 268 111.5 255.5 c 128,-1,48
 95 243 95 243 81.5 226 c 128,-1,49
 68 209 68 209 60 187.5 c 128,-1,50
 52 166 52 166 52 142 c 0,51,52
 52 107 52 107 69.5 79 c 128,-1,53
 87 51 87 51 118 31.5 c 128,-1,54
 149 12 149 12 190.5 1.5 c 128,-1,55
 232 -9 232 -9 280 -9 c 0,56,57
 302 -9 302 -9 326 -7.5 c 128,-1,58
 350 -6 350 -6 373 -3 c 128,-1,59
 396 0 396 0 415.5 4 c 128,-1,60
 435 8 435 8 448 12 c 1,61,-1
 425 113 l 1,0,1
275 854 m 1,62,-1
 249 624 l 1,63,-1
 311 615 l 1,64,-1
 355 837 l 1,65,-1
 275 854 l 1,62,-1
EndSplineSet
EndChar

StartChar: etatonos
Encoding: 942 942 455
Width: 601
GlyphClass: 1
Flags: W
LayerCount: 2
Fore
SplineSet
164 0 m 1,0,1
 173 94 173 94 180 176 c 128,-1,2
 187 258 187 258 186 337 c 0,3,4
 186 374 186 374 181.5 403.5 c 128,-1,5
 177 433 177 433 164.5 456.5 c 128,-1,6
 152 480 152 480 132 498.5 c 128,-1,7
 112 517 112 517 82 529 c 1,8,-1
 28 440 l 1,9,10
 43 432 43 432 54 420.5 c 128,-1,11
 65 409 65 409 71.5 391 c 128,-1,12
 78 373 78 373 80.5 346.5 c 128,-1,13
 83 320 83 320 83 283 c 0,14,15
 84 221 84 221 77.5 147.5 c 128,-1,16
 71 74 71 74 62 0 c 1,17,-1
 164 0 l 1,0,1
470 -206 m 1,18,19
 480 -161 480 -161 489 -101 c 128,-1,20
 498 -41 498 -41 505 22 c 128,-1,21
 512 85 512 85 516.5 147 c 128,-1,22
 521 209 521 209 521 260 c 0,23,24
 520 403 520 403 482.5 466 c 128,-1,25
 445 529 445 529 364 529 c 0,26,27
 330 529 330 529 297.5 517 c 128,-1,28
 265 505 265 505 238 484 c 128,-1,29
 211 463 211 463 191 433.5 c 128,-1,30
 171 404 171 404 163 370 c 1,31,-1
 182 213 l 1,32,33
 185 255 185 255 197 293.5 c 128,-1,34
 209 332 209 332 228 360.5 c 128,-1,35
 247 389 247 389 272 406 c 128,-1,36
 297 423 297 423 326 423 c 0,37,38
 374 423 374 423 396 378 c 128,-1,39
 418 333 418 333 419 229 c 0,40,41
 419 191 419 191 416 145 c 128,-1,42
 413 99 413 99 407 44.5 c 128,-1,43
 401 -10 401 -10 391 -72 c 128,-1,44
 381 -134 381 -134 367 -204 c 1,45,-1
 470 -206 l 1,18,19
324 810 m 1,46,-1
 298 581 l 1,47,-1
 361 572 l 1,48,-1
 404 794 l 1,49,-1
 324 810 l 1,46,-1
EndSplineSet
EndChar

StartChar: iotatonos
Encoding: 943 943 456
Width: 304
GlyphClass: 1
Flags: W
LayerCount: 2
Fore
SplineSet
186 -8 m 0,0,1
 205 -8 205 -8 225 -5 c 128,-1,2
 245 -2 245 -2 263 6 c 1,3,-1
 245 99 l 1,4,5
 236 95 236 95 226 92 c 128,-1,6
 216 89 216 89 207 88 c 0,7,8
 189 89 189 89 180.5 105.5 c 128,-1,9
 172 122 172 122 171 174 c 0,10,11
 171 198 171 198 172.5 239 c 128,-1,12
 174 280 174 280 176 329.5 c 128,-1,13
 178 379 178 379 180.5 430 c 128,-1,14
 183 481 183 481 184 523 c 1,15,-1
 80 523 l 1,16,17
 79 468 79 468 78 417.5 c 128,-1,18
 77 367 77 367 76.5 319 c 128,-1,19
 76 271 76 271 76 224 c 128,-1,20
 76 177 76 177 76 131 c 0,21,22
 76 95 76 95 84 68.5 c 128,-1,23
 92 42 92 42 106 25 c 128,-1,24
 120 8 120 8 140.5 0 c 128,-1,25
 161 -8 161 -8 186 -8 c 0,0,1
123 821 m 1,26,-1
 97 591 l 1,27,-1
 159 582 l 1,28,-1
 203 804 l 1,29,-1
 123 821 l 1,26,-1
EndSplineSet
EndChar

StartChar: upsilondieresistonos
Encoding: 944 944 457
Width: 571
GlyphClass: 1
Flags: W
LayerCount: 2
Fore
SplineSet
74 179 m 0,0,1
 74 131 74 131 91 95.5 c 128,-1,2
 108 60 108 60 136.5 36.5 c 128,-1,3
 165 13 165 13 203.5 2.5 c 128,-1,4
 242 -8 242 -8 285 -8 c 0,5,6
 338 -8 338 -8 380.5 9 c 128,-1,7
 423 26 423 26 452.5 62 c 128,-1,8
 482 98 482 98 498 152 c 128,-1,9
 514 206 514 206 514 280 c 0,10,11
 514 306 514 306 513.5 337.5 c 128,-1,12
 513 369 513 369 510.5 401.5 c 128,-1,13
 508 434 508 434 504.5 465.5 c 128,-1,14
 501 497 501 497 495 523 c 1,15,-1
 395 523 l 1,16,17
 402 488 402 488 406 454 c 128,-1,18
 410 420 410 420 412.5 389 c 128,-1,19
 415 358 415 358 415 330.5 c 128,-1,20
 415 303 415 303 415 282 c 0,21,22
 416 178 416 178 382.5 133 c 128,-1,23
 349 88 349 88 284 87 c 0,24,25
 260 87 260 87 239.5 93 c 128,-1,26
 219 99 219 99 204 111.5 c 128,-1,27
 189 124 189 124 180.5 144 c 128,-1,28
 172 164 172 164 171 193 c 0,29,30
 172 203 172 203 173 218.5 c 128,-1,31
 174 234 174 234 175 253 c 128,-1,32
 176 272 176 272 176.5 293.5 c 128,-1,33
 177 315 177 315 177 337 c 0,34,35
 177 370 177 370 175.5 396 c 128,-1,36
 174 422 174 422 171 443.5 c 128,-1,37
 168 465 168 465 163.5 484 c 128,-1,38
 159 503 159 503 153 523 c 1,39,-1
 56 523 l 1,40,41
 66 486 66 486 73 442 c 128,-1,42
 80 398 80 398 80 337 c 0,43,44
 80 315 80 315 79 292 c 128,-1,45
 78 269 78 269 77 248 c 128,-1,46
 76 227 76 227 75 209 c 128,-1,47
 74 191 74 191 74 179 c 0,0,1
53 652 m 256,48,49
 53 623 53 623 73 603.5 c 128,-1,50
 93 584 93 584 122 584 c 0,51,52
 152 584 152 584 170.5 603.5 c 128,-1,53
 189 623 189 623 189 652 c 256,54,55
 189 681 189 681 170.5 700 c 128,-1,56
 152 719 152 719 122 719 c 0,57,58
 93 719 93 719 73 700 c 128,-1,59
 53 681 53 681 53 652 c 256,48,49
345 652 m 256,60,61
 345 623 345 623 365 603.5 c 128,-1,62
 385 584 385 584 414 584 c 256,63,64
 443 584 443 584 462 603.5 c 128,-1,65
 481 623 481 623 481 652 c 256,66,67
 481 681 481 681 462 700 c 128,-1,68
 443 719 443 719 414 719 c 256,69,70
 385 719 385 719 365 700 c 128,-1,71
 345 681 345 681 345 652 c 256,60,61
252 821 m 1,72,-1
 226 592 l 1,73,-1
 288 582 l 1,74,-1
 332 804 l 1,75,-1
 252 821 l 1,72,-1
EndSplineSet
EndChar

StartChar: alpha
Encoding: 945 945 458
Width: 627
GlyphClass: 1
Flags: W
LayerCount: 2
Fore
SplineSet
412 248 m 2,0,1
 405 226 405 226 396 198.5 c 128,-1,2
 387 171 387 171 371.5 147.5 c 128,-1,3
 356 124 356 124 331.5 108 c 128,-1,4
 307 92 307 92 271 92 c 0,5,6
 243 92 243 92 218.5 102 c 128,-1,7
 194 112 194 112 176 132.5 c 128,-1,8
 158 153 158 153 147 184 c 128,-1,9
 136 215 136 215 136 257 c 0,10,11
 136 301 136 301 147.5 334 c 128,-1,12
 159 367 159 367 177 388 c 128,-1,13
 195 409 195 409 217.5 420 c 128,-1,14
 240 431 240 431 262 431 c 0,15,16
 285 431 285 431 303.5 421.5 c 128,-1,17
 322 412 322 412 337.5 395.5 c 128,-1,18
 353 379 353 379 364.5 357 c 128,-1,19
 376 335 376 335 385.5 310.5 c 128,-1,20
 395 286 395 286 401.5 259.5 c 128,-1,21
 408 233 408 233 411 208 c 1,22,-1
 461 295 l 1,23,24
 454 343 454 343 436.5 385.5 c 128,-1,25
 419 428 419 428 393 460 c 128,-1,26
 367 492 367 492 331.5 510.5 c 128,-1,27
 296 529 296 529 252 529 c 0,28,29
 206 529 206 529 167 508.5 c 128,-1,30
 128 488 128 488 100.5 451.5 c 128,-1,31
 73 415 73 415 57 365.5 c 128,-1,32
 41 316 41 316 41 258 c 256,33,34
 41 200 41 200 57.5 151 c 128,-1,35
 74 102 74 102 103 67 c 128,-1,36
 132 32 132 32 172 12 c 128,-1,37
 212 -8 212 -8 259 -8 c 0,38,39
 300 -8 300 -8 335.5 6.5 c 128,-1,40
 371 21 371 21 399.5 46.5 c 128,-1,41
 428 72 428 72 449 107 c 128,-1,42
 470 142 470 142 483 184 c 2,43,-1
 593 521 l 1,44,-1
 495 521 l 1,45,-1
 412 248 l 2,0,1
602 83 m 1,46,-1
 579 95 l 2,47,48
 569 100 569 100 558 108 c 128,-1,49
 547 116 547 116 534.5 130 c 128,-1,50
 522 144 522 144 509.5 163.5 c 128,-1,51
 497 183 497 183 486 210 c 1,52,-1
 432 138 l 1,53,54
 437 109 437 109 445.5 87 c 128,-1,55
 454 65 454 65 467.5 48 c 128,-1,56
 481 31 481 31 497 19.5 c 128,-1,57
 513 8 513 8 531 -1 c 2,58,-1
 550 -8 l 1,59,-1
 602 83 l 1,46,-1
EndSplineSet
EndChar

StartChar: beta
Encoding: 946 946 459
Width: 665
GlyphClass: 1
Flags: W
LayerCount: 2
Fore
SplineSet
167 52 m 1,0,1
 187 36 187 36 211 24.5 c 128,-1,2
 235 13 235 13 261 5.5 c 128,-1,3
 287 -2 287 -2 313 -5 c 128,-1,4
 339 -8 339 -8 363 -8 c 0,5,6
 416 -8 416 -8 460.5 10.5 c 128,-1,7
 505 29 505 29 537.5 60.5 c 128,-1,8
 570 92 570 92 588 133.5 c 128,-1,9
 606 175 606 175 606 220 c 0,10,11
 606 257 606 257 594.5 289.5 c 128,-1,12
 583 322 583 322 561 348 c 128,-1,13
 539 374 539 374 505.5 392 c 128,-1,14
 472 410 472 410 429 415 c 1,15,-1
 429 419 l 1,16,17
 454 434 454 434 473 453 c 128,-1,18
 492 472 492 472 505 494.5 c 128,-1,19
 518 517 518 517 525 542.5 c 128,-1,20
 532 568 532 568 532 594 c 0,21,22
 532 629 532 629 517.5 660.5 c 128,-1,23
 503 692 503 692 475.5 715.5 c 128,-1,24
 448 739 448 739 410 752.5 c 128,-1,25
 372 766 372 766 325 765 c 0,26,27
 265 766 265 766 220.5 744 c 128,-1,28
 176 722 176 722 146 682.5 c 128,-1,29
 116 643 116 643 100.5 589 c 128,-1,30
 85 535 85 535 85 471 c 2,31,-1
 85 -207 l 1,32,-1
 189 -207 l 1,33,34
 186 -119 186 -119 182 -53 c 128,-1,35
 178 13 178 13 174 55 c 1,36,-1
 175 129 l 2,37,38
 178 169 178 169 178.5 204.5 c 128,-1,39
 179 240 179 240 180 278.5 c 128,-1,40
 181 317 181 317 181 364 c 128,-1,41
 181 411 181 411 181 473 c 0,42,43
 181 518 181 518 189.5 555.5 c 128,-1,44
 198 593 198 593 215 619.5 c 128,-1,45
 232 646 232 646 258 660.5 c 128,-1,46
 284 675 284 675 320 675 c 0,47,48
 348 675 348 675 369.5 666.5 c 128,-1,49
 391 658 391 658 405.5 643.5 c 128,-1,50
 420 629 420 629 428 610.5 c 128,-1,51
 436 592 436 592 436 572 c 0,52,53
 436 549 436 549 425.5 527 c 128,-1,54
 415 505 415 505 395 486.5 c 128,-1,55
 375 468 375 468 346.5 454.5 c 128,-1,56
 318 441 318 441 280 434 c 1,57,-1
 280 362 l 1,58,59
 282 363 282 363 289.5 364 c 128,-1,60
 297 365 297 365 306.5 365.5 c 128,-1,61
 316 366 316 366 327 366 c 128,-1,62
 338 366 338 366 346 365 c 0,63,64
 384 366 384 366 415 355.5 c 128,-1,65
 446 345 446 345 468.5 326.5 c 128,-1,66
 491 308 491 308 503.5 282.5 c 128,-1,67
 516 257 516 257 516 227 c 256,68,69
 516 197 516 197 503 170.5 c 128,-1,70
 490 144 490 144 467.5 124 c 128,-1,71
 445 104 445 104 415 92.5 c 128,-1,72
 385 81 385 81 350 81 c 0,73,74
 332 81 332 81 308.5 85 c 128,-1,75
 285 89 285 89 260.5 97.5 c 128,-1,76
 236 106 236 106 211.5 119 c 128,-1,77
 187 132 187 132 166 151 c 1,78,-1
 167 52 l 1,0,1
EndSplineSet
EndChar

StartChar: gamma
Encoding: 947 947 460
Width: 577
GlyphClass: 1
Flags: W
LayerCount: 2
Fore
SplineSet
304 -207 m 1,0,1
 313 -95 313 -95 314.5 14.5 c 128,-1,2
 316 124 316 124 298.5 222 c 128,-1,3
 281 320 281 320 237.5 402 c 128,-1,4
 194 484 194 484 113 540 c 1,5,-1
 56 457 l 1,6,7
 98 430 98 430 127 386.5 c 128,-1,8
 156 343 156 343 175 289.5 c 128,-1,9
 194 236 194 236 203 175 c 128,-1,10
 212 114 212 114 214.5 49.5 c 128,-1,11
 217 -15 217 -15 214.5 -80.5 c 128,-1,12
 212 -146 212 -146 206 -207 c 1,13,-1
 304 -207 l 1,0,1
296 -1 m 1,14,15
 354 75 354 75 395.5 141 c 128,-1,16
 437 207 437 207 466 269 c 128,-1,17
 495 331 495 331 514.5 392.5 c 128,-1,18
 534 454 534 454 549 523 c 1,19,-1
 443 523 l 1,20,21
 435 468 435 468 419 413.5 c 128,-1,22
 403 359 403 359 381 307.5 c 128,-1,23
 359 256 359 256 332.5 209.5 c 128,-1,24
 306 163 306 163 277 124 c 1,25,-1
 296 -1 l 1,14,15
EndSplineSet
EndChar

StartChar: delta
Encoding: 948 948 461
Width: 610
GlyphClass: 1
Flags: W
LayerCount: 2
Fore
SplineSet
311 -8 m 0,0,1
 365 -8 365 -8 410.5 11 c 128,-1,2
 456 30 456 30 490 64.5 c 128,-1,3
 524 99 524 99 543 147 c 128,-1,4
 562 195 562 195 562 253 c 0,5,6
 562 310 562 310 544 353.5 c 128,-1,7
 526 397 526 397 499 429.5 c 128,-1,8
 472 462 472 462 441 485 c 128,-1,9
 410 508 410 508 382 525 c 0,10,11
 358 539 358 539 334 552 c 128,-1,12
 310 565 310 565 290.5 578.5 c 128,-1,13
 271 592 271 592 259 606 c 128,-1,14
 247 620 247 620 247 635 c 0,15,16
 247 651 247 651 262.5 660 c 128,-1,17
 278 669 278 669 308 669 c 0,18,19
 333 669 333 669 362 662.5 c 128,-1,20
 391 656 391 656 420.5 644.5 c 128,-1,21
 450 633 450 633 478.5 617 c 128,-1,22
 507 601 507 601 531 582 c 1,23,-1
 578 664 l 1,24,25
 557 681 557 681 526.5 699 c 128,-1,26
 496 717 496 717 459.5 731 c 128,-1,27
 423 745 423 745 382.5 753.5 c 128,-1,28
 342 762 342 762 301 762 c 0,29,30
 224 763 224 763 180 731 c 128,-1,31
 136 699 136 699 136 644 c 0,32,33
 136 611 136 611 152 585 c 128,-1,34
 168 559 168 559 193 538 c 128,-1,35
 218 517 218 517 249 499.5 c 128,-1,36
 280 482 280 482 309 464 c 0,37,38
 338 447 338 447 366.5 426.5 c 128,-1,39
 395 406 395 406 417.5 381.5 c 128,-1,40
 440 357 440 357 453.5 325 c 128,-1,41
 467 293 467 293 467 254 c 0,42,43
 467 217 467 217 455 187.5 c 128,-1,44
 443 158 443 158 421.5 136.5 c 128,-1,45
 400 115 400 115 371 103.5 c 128,-1,46
 342 92 342 92 309 92 c 0,47,48
 277 92 277 92 247 104 c 128,-1,49
 217 116 217 116 194.5 137.5 c 128,-1,50
 172 159 172 159 159 188.5 c 128,-1,51
 146 218 146 218 146 253 c 0,52,53
 146 289 146 289 158.5 319.5 c 128,-1,54
 171 350 171 350 194 373 c 128,-1,55
 217 396 217 396 247.5 409.5 c 128,-1,56
 278 423 278 423 313 423 c 0,57,58
 342 423 342 423 372.5 414 c 128,-1,59
 403 405 403 405 425 386 c 1,60,-1
 374 478 l 1,61,62
 357 488 357 488 331 493.5 c 128,-1,63
 305 499 305 499 279 500 c 0,64,65
 230 501 230 501 188 481.5 c 128,-1,66
 146 462 146 462 116 428.5 c 128,-1,67
 86 395 86 395 69 350 c 128,-1,68
 52 305 52 305 52 254 c 0,69,70
 52 200 52 200 71 152.5 c 128,-1,71
 90 105 90 105 124 69.5 c 128,-1,72
 158 34 158 34 206 13 c 128,-1,73
 254 -8 254 -8 311 -8 c 0,0,1
EndSplineSet
EndChar

StartChar: epsilon
Encoding: 949 949 462
Width: 484
GlyphClass: 1
Flags: W
LayerCount: 2
Fore
SplineSet
425 113 m 1,0,1
 384 101 384 101 349.5 95 c 128,-1,2
 315 89 315 89 282 89 c 0,3,4
 220 89 220 89 186.5 108.5 c 128,-1,5
 153 128 153 128 153 162 c 0,6,7
 153 179 153 179 163 190.5 c 128,-1,8
 173 202 173 202 190.5 209 c 128,-1,9
 208 216 208 216 231.5 219 c 128,-1,10
 255 222 255 222 282 222 c 2,11,-1
 329 222 l 1,12,-1
 329 311 l 1,13,-1
 281 311 l 2,14,15
 257 311 257 311 237 315.5 c 128,-1,16
 217 320 217 320 202 327.5 c 128,-1,17
 187 335 187 335 178.5 346 c 128,-1,18
 170 357 170 357 170 371 c 0,19,20
 170 383 170 383 176 393.5 c 128,-1,21
 182 404 182 404 195.5 412 c 128,-1,22
 209 420 209 420 231 424.5 c 128,-1,23
 253 429 253 429 285 429 c 0,24,25
 302 429 302 429 319.5 427.5 c 128,-1,26
 337 426 337 426 354 423.5 c 128,-1,27
 371 421 371 421 385.5 417 c 128,-1,28
 400 413 400 413 411 408 c 1,29,-1
 441 504 l 1,30,31
 423 514 423 514 403.5 518.5 c 128,-1,32
 384 523 384 523 364 526 c 128,-1,33
 344 529 344 529 325 529.5 c 128,-1,34
 306 530 306 530 289 529 c 0,35,36
 236 530 236 530 195.5 519.5 c 128,-1,37
 155 509 155 509 127.5 489.5 c 128,-1,38
 100 470 100 470 86 444.5 c 128,-1,39
 72 419 72 419 72 389 c 0,40,41
 72 368 72 368 79 350 c 128,-1,42
 86 332 86 332 96.5 316.5 c 128,-1,43
 107 301 107 301 119.5 290.5 c 128,-1,44
 132 280 132 280 145 275 c 1,45,-1
 145 274 l 1,46,47
 128 268 128 268 111.5 255.5 c 128,-1,48
 95 243 95 243 81.5 226 c 128,-1,49
 68 209 68 209 60 187.5 c 128,-1,50
 52 166 52 166 52 142 c 0,51,52
 52 107 52 107 69.5 79 c 128,-1,53
 87 51 87 51 118 31.5 c 128,-1,54
 149 12 149 12 190.5 1.5 c 128,-1,55
 232 -9 232 -9 280 -9 c 0,56,57
 302 -9 302 -9 326 -7.5 c 128,-1,58
 350 -6 350 -6 373 -3 c 128,-1,59
 396 0 396 0 415.5 4 c 128,-1,60
 435 8 435 8 448 12 c 1,61,-1
 425 113 l 1,0,1
EndSplineSet
EndChar

StartChar: zeta
Encoding: 950 950 463
Width: 505
GlyphClass: 1
Flags: W
LayerCount: 2
Fore
SplineSet
333 -187 m 0,0,1
 370 -187 370 -187 402.5 -175 c 128,-1,2
 435 -163 435 -163 459.5 -142 c 128,-1,3
 484 -121 484 -121 498 -91.5 c 128,-1,4
 512 -62 512 -62 512 -27 c 0,5,6
 512 0 512 0 502.5 22 c 128,-1,7
 493 44 493 44 476.5 60.5 c 128,-1,8
 460 77 460 77 437 86 c 128,-1,9
 414 95 414 95 386 95 c 0,10,11
 370 95 370 95 340 93 c 128,-1,12
 310 91 310 91 283 91 c 0,13,14
 265 91 265 91 243 94 c 128,-1,15
 221 97 221 97 202.5 108 c 128,-1,16
 184 119 184 119 171.5 141 c 128,-1,17
 159 163 159 163 160 200 c 256,18,19
 161 237 161 237 174 277.5 c 128,-1,20
 187 318 187 318 209 360.5 c 128,-1,21
 231 403 231 403 260.5 444.5 c 128,-1,22
 290 486 290 486 324 523.5 c 128,-1,23
 358 561 358 561 394 593 c 128,-1,24
 430 625 430 625 465 648 c 1,25,-1
 463 720 l 1,26,-1
 294 720 l 2,27,28
 282 720 282 720 270.5 721.5 c 128,-1,29
 259 723 259 723 249.5 726.5 c 128,-1,30
 240 730 240 730 234.5 736.5 c 128,-1,31
 229 743 229 743 229 753 c 0,32,33
 229 761 229 761 232 773 c 128,-1,34
 235 785 235 785 241 794 c 1,35,-1
 154 828 l 1,36,37
 142 806 142 806 135.5 788.5 c 128,-1,38
 129 771 129 771 129 751 c 0,39,40
 129 699 129 699 169 667.5 c 128,-1,41
 209 636 209 636 280 637 c 2,42,-1
 367 637 l 1,43,-1
 339 677 l 1,44,45
 291 640 291 640 240.5 586 c 128,-1,46
 190 532 190 532 150 468 c 128,-1,47
 110 404 110 404 84 332.5 c 128,-1,48
 58 261 58 261 58 189 c 0,49,50
 58 129 58 129 76.5 90.5 c 128,-1,51
 95 52 95 52 124.5 30 c 128,-1,52
 154 8 154 8 190.5 0 c 128,-1,53
 227 -8 227 -8 263 -8 c 0,54,55
 281 -8 281 -8 296.5 -7 c 128,-1,56
 312 -6 312 -6 326 -5 c 128,-1,57
 340 -4 340 -4 351.5 -3 c 128,-1,58
 363 -2 363 -2 370 -2 c 0,59,60
 395 -2 395 -2 404.5 -14 c 128,-1,61
 414 -26 414 -26 414 -36 c 0,62,63
 414 -47 414 -47 406.5 -56.5 c 128,-1,64
 399 -66 399 -66 385.5 -73.5 c 128,-1,65
 372 -81 372 -81 353.5 -84.5 c 128,-1,66
 335 -88 335 -88 312 -88 c 0,67,68
 293 -88 293 -88 272.5 -86 c 128,-1,69
 252 -84 252 -84 238 -80 c 1,70,-1
 238 -177 l 1,71,72
 266 -182 266 -182 291 -184.5 c 128,-1,73
 316 -187 316 -187 333 -187 c 0,0,1
EndSplineSet
EndChar

